<?xml version="1.0" encoding="UTF-8" standalone="no"?>
<!-- Created with Inkscape (http://www.inkscape.org/) -->
<svg
   xmlns:dc="http://purl.org/dc/elements/1.1/"
   xmlns:cc="http://web.resource.org/cc/"
   xmlns:rdf="http://www.w3.org/1999/02/22-rdf-syntax-ns#"
   xmlns:svg="http://www.w3.org/2000/svg"
   xmlns="http://www.w3.org/2000/svg"
   xmlns:sodipodi="http://sodipodi.sourceforge.net/DTD/sodipodi-0.dtd"
   xmlns:inkscape="http://www.inkscape.org/namespaces/inkscape"
   width="340"
   height="40"
   id="svg2"
   sodipodi:version="0.32"
   inkscape:version="0.45"
   version="1.0"
   sodipodi:docbase="/home/pippo/Desktop/Tilesets and co"
   sodipodi:docname="hicontrast.svg"
   inkscape:output_extension="org.inkscape.output.svg.inkscape"
   sodipodi:modified="true">
  <defs
     id="defs4" />
  <sodipodi:namedview
     id="base"
     pagecolor="#ffffff"
     bordercolor="#666666"
     borderopacity="1.0"
     inkscape:pageopacity="0.0"
     inkscape:pageshadow="2"
     inkscape:zoom="4"
     inkscape:cx="52.370977"
     inkscape:cy="10.946186"
     inkscape:document-units="px"
     inkscape:current-layer="layer1"
     width="340px"
     height="40px"
     showgrid="true"
     inkscape:object-bbox="true"
     inkscape:object-points="false"
     showguides="true"
     inkscape:guide-bbox="true"
     inkscape:window-width="1280"
     inkscape:window-height="729"
     inkscape:window-x="0"
     inkscape:window-y="25">
    <sodipodi:guide
       orientation="vertical"
       position="320"
       id="guide2160" />
  </sodipodi:namedview>
  <metadata
     id="metadata7">
    <rdf:RDF>
      <cc:Work
         rdf:about="">
        <dc:format>image/svg+xml</dc:format>
        <dc:type
           rdf:resource="http://purl.org/dc/dcmitype/StillImage" />
        <dc:title>GNOME Mastermind Accessible Theme</dc:title>
        <dc:date>28 May 07</dc:date>
        <dc:creator>
          <cc:Agent>
            <dc:title>Filippo Argiolas</dc:title>
          </cc:Agent>
        </dc:creator>
        <cc:license
           rdf:resource="http://creativecommons.org/licenses/GPL/2.0/" />
      </cc:Work>
      <cc:License
         rdf:about="http://creativecommons.org/licenses/GPL/2.0/">
        <cc:permits
           rdf:resource="http://web.resource.org/cc/Reproduction" />
        <cc:permits
           rdf:resource="http://web.resource.org/cc/Distribution" />
        <cc:requires
           rdf:resource="http://web.resource.org/cc/Notice" />
        <cc:permits
           rdf:resource="http://web.resource.org/cc/DerivativeWorks" />
        <cc:requires
           rdf:resource="http://web.resource.org/cc/ShareAlike" />
        <cc:requires
           rdf:resource="http://web.resource.org/cc/SourceCode" />
      </cc:License>
    </rdf:RDF>
  </metadata>
  <g
     inkscape:label="Livello 1"
     inkscape:groupmode="layer"
     id="layer1">
    <path
       sodipodi:type="arc"
       style="opacity:1;fill:#eeeeec;fill-opacity:1;fill-rule:nonzero;stroke:#000000;stroke-width:3.18744741;stroke-linejoin:round;stroke-miterlimit:4;stroke-dasharray:none;stroke-opacity:1"
       id="path3134"
       sodipodi:cx="20"
       sodipodi:cy="20"
       sodipodi:rx="15"
       sodipodi:ry="15"
       d="M 35 20 A 15 15 0 1 1  5,20 A 15 15 0 1 1  35 20 z"
       transform="matrix(0.941192,0,0,0.941192,1.17616,1.17616)" />
    <rect
       style="opacity:1;fill:#fce94f;fill-opacity:1;fill-rule:nonzero;stroke:#000000;stroke-width:3;stroke-linecap:butt;stroke-linejoin:round;stroke-miterlimit:4;stroke-dasharray:none;stroke-opacity:1"
       id="rect4105"
       width="26.583406"
       height="26.583406"
       x="46.708294"
       y="6.7082968" />
    <rect
       style="opacity:1;fill:#fcaf3e;fill-opacity:1;fill-rule:nonzero;stroke:#000000;stroke-width:2.99999992;stroke-linejoin:round;stroke-miterlimit:4;stroke-dasharray:none;stroke-opacity:1"
       id="rect4107"
       width="21.969122"
       height="21.969122"
       x="45.584034"
       y="73.868301"
       transform="matrix(0.7071068,-0.7071068,0.7071068,0.7071068,0,0)" />
    <path
       sodipodi:type="star"
       style="opacity:1;fill:#8ae234;fill-opacity:1;fill-rule:nonzero;stroke:#000000;stroke-width:3;stroke-linecap:butt;stroke-linejoin:round;stroke-miterlimit:4;stroke-dasharray:none;stroke-opacity:1"
       id="path5080"
       sodipodi:sides="5"
       sodipodi:cx="140"
       sodipodi:cy="20"
       sodipodi:r1="17.204651"
       sodipodi:r2="8.6333981"
       sodipodi:arg1="0.95054684"
       sodipodi:arg2="1.5788654"
       inkscape:flatsided="false"
       inkscape:rounded="0"
       inkscape:randomized="0"
       d="M 150,34 L 139.93034,28.633117 L 129.77538,33.836803 L 131.76789,22.601527 L 123.68084,14.551615 L 134.98194,12.974715 L 140.13882,2.7959092 L 145.13078,13.056608 L 156.40496,14.815673 L 148.18906,22.734033 L 150,34 z "
       transform="translate(0,0.9999997)" />
    <path
       sodipodi:type="star"
       style="opacity:1;fill:#729fcf;fill-opacity:1;fill-rule:nonzero;stroke:#000000;stroke-width:3.12369846;stroke-linecap:butt;stroke-linejoin:round;stroke-miterlimit:4;stroke-dasharray:none;stroke-opacity:1"
       id="path5100"
       sodipodi:sides="5"
       sodipodi:cx="140"
       sodipodi:cy="20"
       sodipodi:r1="17.204651"
       sodipodi:r2="14.010268"
       sodipodi:arg1="0.95054684"
       sodipodi:arg2="1.5788654"
       inkscape:flatsided="false"
       inkscape:rounded="0"
       inkscape:randomized="0"
       d="M 150,34 L 139.88695,34.009812 L 129.77538,33.836803 L 126.64094,24.221755 L 123.68084,14.551615 L 131.8567,8.5993758 L 140.13882,2.7959092 L 148.32622,8.732272 L 156.40496,14.815673 L 153.28919,24.436785 L 150,34 z "
       transform="matrix(0.9604,0,0,0.9604,45.545863,1.728753)" />
    <path
       style="fill:#ad7fa8;fill-opacity:1;fill-rule:nonzero;stroke:#000000;stroke-width:2.90696955;stroke-linejoin:round;stroke-miterlimit:4;stroke-opacity:1"
       d="M 204.59526,34.037112 L 220.17629,5.5696013 L 235.75734,34.037118 L 204.59526,34.037112 z "
       id="rect8022"
       sodipodi:nodetypes="cccc" />
    <path
       sodipodi:type="star"
       style="opacity:1;fill:#ef2929;fill-opacity:1;fill-rule:nonzero;stroke:#000000;stroke-width:3;stroke-linecap:round;stroke-linejoin:round;stroke-miterlimit:4;stroke-dasharray:none;stroke-opacity:1"
       id="path10015"
       sodipodi:sides="3"
       sodipodi:cx="260"
       sodipodi:cy="20"
       sodipodi:r1="17.700636"
       sodipodi:r2="5.3101907"
       sodipodi:arg1="0.52359878"
       sodipodi:arg2="1.5707963"
       inkscape:flatsided="false"
       inkscape:rounded="0.54"
       inkscape:randomized="0"
       d="M 275.3292,28.850318 C 271.08138,36.207759 268.49564,25.310191 260,25.310191 C 251.50436,25.310191 248.91862,36.207759 244.6708,28.850318 C 240.42298,21.492877 251.15342,24.702346 255.40124,17.344905 C 259.64906,9.9874634 251.50436,2.2993643 260,2.2993641 C 268.49564,2.2993639 260.35094,9.9874633 264.59876,17.344905 C 268.84658,24.702346 279.57702,21.492877 275.3292,28.850318 z "
       transform="translate(0,4)" />
    <path
       sodipodi:type="star"
       style="opacity:1;fill:#ffffff;fill-opacity:1;fill-rule:nonzero;stroke:#000000;stroke-width:3.33267472;stroke-linecap:round;stroke-linejoin:round;stroke-miterlimit:4;stroke-dasharray:none;stroke-opacity:1"
       id="path10019"
       sodipodi:sides="4"
       sodipodi:cx="314.5"
       sodipodi:cy="11.5"
       sodipodi:r1="9.9561539"
       sodipodi:r2="0.099561542"
       sodipodi:arg1="0.89213384"
       sodipodi:arg2="1.677532"
       inkscape:flatsided="false"
       inkscape:rounded="0"
       inkscape:randomized="0"
       d="M 320.75,19.25 L 314.48939,11.598995 L 306.75,17.75 L 314.40101,11.489393 L 308.25,3.75 L 314.51061,11.401005 L 322.25,5.25 L 314.59899,11.510607 L 320.75,19.25 z "
       transform="matrix(0.7462488,-7.6387678e-2,7.6387678e-2,0.7462488,94.801277,25.442063)" />
    <path
       sodipodi:type="arc"
       style="opacity:1;fill:#ffffff;fill-opacity:1;fill-rule:nonzero;stroke:#000000;stroke-width:6.30991421;stroke-linejoin:round;stroke-miterlimit:4;stroke-dasharray:none;stroke-opacity:1"
       id="path10992"
       sodipodi:cx="20"
       sodipodi:cy="20"
       sodipodi:rx="15"
       sodipodi:ry="15"
       d="M 35 20 A 15 15 0 1 1  5,20 A 15 15 0 1 1  35 20 z"
       transform="matrix(0.3962019,0,0,0.3962019,322.07597,22.075956)" />
    <path
       sodipodi:type="star"
       style="opacity:1;fill:#c17d11;fill-opacity:1;fill-rule:nonzero;stroke:#000000;stroke-width:3.53445411;stroke-linecap:round;stroke-linejoin:round;stroke-miterlimit:4;stroke-dasharray:none;stroke-opacity:1"
       id="path13902"
       sodipodi:sides="4"
       sodipodi:cx="260"
       sodipodi:cy="20"
       sodipodi:r1="17.700636"
       sodipodi:r2="9.9123564"
       sodipodi:arg1="0.52359878"
       sodipodi:arg2="1.3089969"
       inkscape:flatsided="false"
       inkscape:rounded="0.5"
       inkscape:randomized="0"
       d="M 275.3292,28.850318 C 272.13314,34.386051 268.73981,27.9202 262.56551,29.574601 C 256.3912,31.229002 256.68542,38.525257 251.14968,35.3292 C 245.61395,32.133144 252.0798,28.739814 250.4254,22.565507 C 248.771,16.391199 241.47474,16.685415 244.6708,11.149682 C 247.86686,5.6139493 251.26019,12.0798 257.43449,10.425399 C 263.6088,8.7709983 263.31458,1.474743 268.85032,4.6707997 C 274.38605,7.8668561 267.9202,11.260186 269.5746,17.434493 C 271.229,23.608801 278.52526,23.314585 275.3292,28.850318 z "
       transform="matrix(0.7330584,-0.4278614,0.4278614,0.7330584,100.90986,116.64505)" />
  </g>
</svg>
