<?xml version="1.0" encoding="UTF-8" standalone="no"?>
<!-- Created with Inkscape (http://www.inkscape.org/) -->
<svg
   xmlns:dc="http://purl.org/dc/elements/1.1/"
   xmlns:cc="http://web.resource.org/cc/"
   xmlns:rdf="http://www.w3.org/1999/02/22-rdf-syntax-ns#"
   xmlns:svg="http://www.w3.org/2000/svg"
   xmlns="http://www.w3.org/2000/svg"
   xmlns:xlink="http://www.w3.org/1999/xlink"
   xmlns:sodipodi="http://sodipodi.sourceforge.net/DTD/sodipodi-0.dtd"
   xmlns:inkscape="http://www.inkscape.org/namespaces/inkscape"
   width="340"
   height="40"
   id="svg2"
   sodipodi:version="0.32"
   inkscape:version="0.45"
   version="1.0"
   sodipodi:docbase="/home/pippo/svn/gnome-mastermind/themes"
   sodipodi:docname="simple-glossy.svg"
   inkscape:output_extension="org.inkscape.output.svg.inkscape"
   sodipodi:modified="true">
  <defs
     id="defs4">
    <linearGradient
       id="linearGradient3285">
      <stop
         id="stop3287"
         offset="0"
         style="stop-color:#ffffff;stop-opacity:0;" />
      <stop
         style="stop-color:#ffffff;stop-opacity:1;"
         offset="1"
         id="stop3289" />
    </linearGradient>
    <linearGradient
       id="linearGradient10331">
      <stop
         style="stop-color:#ff3520;stop-opacity:1;"
         offset="0"
         id="stop10333" />
      <stop
         style="stop-color:#f80000;stop-opacity:1;"
         offset="1"
         id="stop10335" />
    </linearGradient>
    <linearGradient
       id="linearGradient4326">
      <stop
         style="stop-color:#ffffff;stop-opacity:1;"
         offset="0"
         id="stop4328" />
      <stop
         style="stop-color:#bebebe;stop-opacity:1;"
         offset="1"
         id="stop4330" />
    </linearGradient>
    <linearGradient
       id="linearGradient4315">
      <stop
         id="stop4317"
         offset="0"
         style="stop-color:#8c8c8c;stop-opacity:1;" />
      <stop
         id="stop4319"
         offset="1"
         style="stop-color:#eeeeec;stop-opacity:0;" />
    </linearGradient>
    <linearGradient
       id="linearGradient4276">
      <stop
         style="stop-color:#ffffff;stop-opacity:0;"
         offset="0"
         id="stop4278" />
      <stop
         style="stop-color:#000000;stop-opacity:1;"
         offset="1"
         id="stop4280" />
    </linearGradient>
    <linearGradient
       id="linearGradient5351">
      <stop
         style="stop-color:#ff39ca;stop-opacity:1;"
         offset="0"
         id="stop5353" />
      <stop
         style="stop-color:#b40c47;stop-opacity:1;"
         offset="1"
         id="stop5355" />
    </linearGradient>
    <linearGradient
       id="linearGradient5345">
      <stop
         id="stop5347"
         offset="0"
         style="stop-color:#aed206;stop-opacity:1;" />
      <stop
         id="stop5349"
         offset="1"
         style="stop-color:#749114;stop-opacity:1;" />
    </linearGradient>
    <linearGradient
       id="linearGradient5339">
      <stop
         id="stop5341"
         offset="0"
         style="stop-color:#e6853d;stop-opacity:1;" />
      <stop
         id="stop5343"
         offset="1"
         style="stop-color:#823700;stop-opacity:1;" />
    </linearGradient>
    <linearGradient
       id="linearGradient5333">
      <stop
         id="stop5335"
         offset="0"
         style="stop-color:#f95023;stop-opacity:1;" />
      <stop
         id="stop5337"
         offset="1"
         style="stop-color:#d30000;stop-opacity:1;" />
    </linearGradient>
    <linearGradient
       id="linearGradient5327">
      <stop
         id="stop5329"
         offset="0"
         style="stop-color:#feed16;stop-opacity:1;" />
      <stop
         id="stop5331"
         offset="1"
         style="stop-color:#ffb616;stop-opacity:1;" />
    </linearGradient>
    <linearGradient
       id="linearGradient5189">
      <stop
         style="stop-color:#499acd;stop-opacity:1;"
         offset="0"
         id="stop5191" />
      <stop
         style="stop-color:#053379;stop-opacity:1;"
         offset="1"
         id="stop5193" />
    </linearGradient>
    <linearGradient
       id="linearGradient5180">
      <stop
         id="stop5182"
         offset="0"
         style="stop-color:#ffb80d;stop-opacity:1;" />
      <stop
         id="stop5184"
         offset="1"
         style="stop-color:#df7223;stop-opacity:1;" />
    </linearGradient>
    <linearGradient
       id="linearGradient3165">
      <stop
         style="stop-color:#8c28ab;stop-opacity:1;"
         offset="0"
         id="stop3167" />
      <stop
         style="stop-color:#570074;stop-opacity:1;"
         offset="1"
         id="stop3169" />
    </linearGradient>
    <linearGradient
       id="linearGradient4122">
      <stop
         style="stop-color:#75507b;stop-opacity:1;"
         offset="0"
         id="stop4124" />
      <stop
         style="stop-color:#75507b;stop-opacity:0;"
         offset="1"
         id="stop4126" />
    </linearGradient>
    <linearGradient
       id="linearGradient5134">
      <stop
         style="stop-color:#ffffff;stop-opacity:1;"
         offset="0"
         id="stop5136" />
      <stop
         style="stop-color:#eeeeec;stop-opacity:0;"
         offset="1"
         id="stop5138" />
    </linearGradient>
    <linearGradient
       id="linearGradient4151">
      <stop
         style="stop-color:#ffffff;stop-opacity:0;"
         offset="0"
         id="stop4153" />
      <stop
         id="stop4159"
         offset="1"
         style="stop-color:#ffffff;stop-opacity:1;" />
    </linearGradient>
    <linearGradient
       id="linearGradient4141">
      <stop
         style="stop-color:#ffffff;stop-opacity:1;"
         offset="0"
         id="stop4143" />
      <stop
         style="stop-color:#000000;stop-opacity:0;"
         offset="1"
         id="stop4145" />
    </linearGradient>
    <linearGradient
       id="linearGradient4123">
      <stop
         style="stop-color:#ffffff;stop-opacity:1;"
         offset="0"
         id="stop4125" />
      <stop
         style="stop-color:#ffffff;stop-opacity:0;"
         offset="1"
         id="stop4127" />
    </linearGradient>
    <linearGradient
       inkscape:collect="always"
       xlink:href="#linearGradient4123"
       id="linearGradient4129"
       x1="27.969831"
       y1="8.0017986"
       x2="13.724033"
       y2="33.974377"
       gradientUnits="userSpaceOnUse" />
    <linearGradient
       inkscape:collect="always"
       xlink:href="#linearGradient4151"
       id="linearGradient4157"
       x1="19.151711"
       y1="31.854549"
       x2="24.524218"
       y2="-15.985482"
       gradientUnits="userSpaceOnUse" />
    <linearGradient
       inkscape:collect="always"
       xlink:href="#linearGradient5134"
       id="linearGradient5218"
       gradientUnits="userSpaceOnUse"
       x1="29.839071"
       y1="13.407934"
       x2="27.008896"
       y2="16.774937"
       gradientTransform="matrix(2.0661439,0.7436222,-0.7436222,2.0661439,-74.386304,-34.225362)" />
    <radialGradient
       inkscape:collect="always"
       xlink:href="#linearGradient3165"
       id="radialGradient3171"
       cx="15.668239"
       cy="25.848892"
       fx="15.668239"
       fy="25.848892"
       r="15.75"
       gradientUnits="userSpaceOnUse"
       gradientTransform="matrix(1.6236519,1.6679625e-2,-1.4472656e-2,1.4088248,-8.5104269,-11.462985)" />
    <linearGradient
       inkscape:collect="always"
       xlink:href="#linearGradient4315"
       id="linearGradient4313"
       gradientUnits="userSpaceOnUse"
       gradientTransform="matrix(1.2360489,0,0,1.2360489,296.73415,8.250801)"
       x1="29.839071"
       y1="13.407934"
       x2="27.008896"
       y2="16.774937" />
    <linearGradient
       inkscape:collect="always"
       xlink:href="#linearGradient5134"
       id="linearGradient4324"
       gradientUnits="userSpaceOnUse"
       gradientTransform="matrix(1.2360489,0,0,1.2360489,296.69249,-11.748846)"
       x1="29.839071"
       y1="13.407934"
       x2="27.008896"
       y2="16.774937" />
    <linearGradient
       inkscape:collect="always"
       xlink:href="#linearGradient4151"
       id="linearGradient3275"
       gradientUnits="userSpaceOnUse"
       x1="19.847391"
       y1="27.516979"
       x2="18.950731"
       y2="-17.881937" />
    <radialGradient
       inkscape:collect="always"
       xlink:href="#linearGradient5180"
       id="radialGradient2319"
       gradientUnits="userSpaceOnUse"
       gradientTransform="matrix(1.6236519,1.6679625e-2,-1.4472656e-2,1.4088248,-8.5104269,-11.462985)"
       cx="15.668239"
       cy="25.848892"
       fx="15.668239"
       fy="25.848892"
       r="15.75" />
    <linearGradient
       inkscape:collect="always"
       xlink:href="#linearGradient4123"
       id="linearGradient2321"
       gradientUnits="userSpaceOnUse"
       x1="27.969831"
       y1="8.0017986"
       x2="13.724033"
       y2="33.974377" />
    <linearGradient
       inkscape:collect="always"
       xlink:href="#linearGradient4151"
       id="linearGradient2323"
       gradientUnits="userSpaceOnUse"
       x1="19.151711"
       y1="31.854549"
       x2="24.524218"
       y2="-15.985482" />
    <linearGradient
       inkscape:collect="always"
       xlink:href="#linearGradient4151"
       id="linearGradient2325"
       gradientUnits="userSpaceOnUse"
       x1="19.847391"
       y1="27.516979"
       x2="18.950731"
       y2="-17.881937" />
    <radialGradient
       inkscape:collect="always"
       xlink:href="#linearGradient5189"
       id="radialGradient2341"
       gradientUnits="userSpaceOnUse"
       gradientTransform="matrix(1.6236519,1.6679625e-2,-1.4472656e-2,1.4088248,-8.5104269,-11.462985)"
       cx="15.668239"
       cy="25.848892"
       fx="15.668239"
       fy="25.848892"
       r="15.75" />
    <linearGradient
       inkscape:collect="always"
       xlink:href="#linearGradient4123"
       id="linearGradient2343"
       gradientUnits="userSpaceOnUse"
       x1="27.969831"
       y1="8.0017986"
       x2="13.724033"
       y2="33.974377" />
    <linearGradient
       inkscape:collect="always"
       xlink:href="#linearGradient4151"
       id="linearGradient2345"
       gradientUnits="userSpaceOnUse"
       x1="19.151711"
       y1="31.854549"
       x2="24.524218"
       y2="-15.985482" />
    <linearGradient
       inkscape:collect="always"
       xlink:href="#linearGradient4151"
       id="linearGradient2347"
       gradientUnits="userSpaceOnUse"
       x1="19.847391"
       y1="27.516979"
       x2="18.950731"
       y2="-17.881937" />
    <radialGradient
       inkscape:collect="always"
       xlink:href="#linearGradient5327"
       id="radialGradient2363"
       gradientUnits="userSpaceOnUse"
       gradientTransform="matrix(1.6236519,1.6679625e-2,-1.4472656e-2,1.4088248,-8.5104269,-11.462985)"
       cx="15.668239"
       cy="25.848892"
       fx="15.668239"
       fy="25.848892"
       r="15.75" />
    <linearGradient
       inkscape:collect="always"
       xlink:href="#linearGradient4123"
       id="linearGradient2365"
       gradientUnits="userSpaceOnUse"
       x1="27.969831"
       y1="8.0017986"
       x2="13.724033"
       y2="33.974377" />
    <linearGradient
       inkscape:collect="always"
       xlink:href="#linearGradient4151"
       id="linearGradient2367"
       gradientUnits="userSpaceOnUse"
       x1="19.151711"
       y1="31.854549"
       x2="24.524218"
       y2="-15.985482" />
    <linearGradient
       inkscape:collect="always"
       xlink:href="#linearGradient4151"
       id="linearGradient2369"
       gradientUnits="userSpaceOnUse"
       x1="19.847391"
       y1="27.516979"
       x2="18.950731"
       y2="-17.881937" />
    <radialGradient
       inkscape:collect="always"
       xlink:href="#linearGradient5333"
       id="radialGradient2385"
       gradientUnits="userSpaceOnUse"
       gradientTransform="matrix(1.6236519,1.6679625e-2,-1.4472656e-2,1.4088248,-8.5104269,-11.462985)"
       cx="15.668239"
       cy="25.848892"
       fx="15.668239"
       fy="25.848892"
       r="15.75" />
    <linearGradient
       inkscape:collect="always"
       xlink:href="#linearGradient4123"
       id="linearGradient2387"
       gradientUnits="userSpaceOnUse"
       x1="27.969831"
       y1="8.0017986"
       x2="13.724033"
       y2="33.974377" />
    <linearGradient
       inkscape:collect="always"
       xlink:href="#linearGradient4151"
       id="linearGradient2389"
       gradientUnits="userSpaceOnUse"
       x1="19.151711"
       y1="31.854549"
       x2="24.524218"
       y2="-15.985482" />
    <linearGradient
       inkscape:collect="always"
       xlink:href="#linearGradient4151"
       id="linearGradient2391"
       gradientUnits="userSpaceOnUse"
       x1="19.847391"
       y1="27.516979"
       x2="18.950731"
       y2="-17.881937" />
    <radialGradient
       inkscape:collect="always"
       xlink:href="#linearGradient5339"
       id="radialGradient2407"
       gradientUnits="userSpaceOnUse"
       gradientTransform="matrix(1.6236519,1.6679625e-2,-1.4472656e-2,1.4088248,-8.5104269,-11.462985)"
       cx="15.668239"
       cy="25.848892"
       fx="15.668239"
       fy="25.848892"
       r="15.75" />
    <linearGradient
       inkscape:collect="always"
       xlink:href="#linearGradient4123"
       id="linearGradient2409"
       gradientUnits="userSpaceOnUse"
       x1="27.969831"
       y1="8.0017986"
       x2="13.724033"
       y2="33.974377" />
    <linearGradient
       inkscape:collect="always"
       xlink:href="#linearGradient4151"
       id="linearGradient2411"
       gradientUnits="userSpaceOnUse"
       x1="19.151711"
       y1="31.854549"
       x2="24.524218"
       y2="-15.985482" />
    <linearGradient
       inkscape:collect="always"
       xlink:href="#linearGradient4151"
       id="linearGradient2413"
       gradientUnits="userSpaceOnUse"
       x1="19.847391"
       y1="27.516979"
       x2="18.950731"
       y2="-17.881937" />
    <radialGradient
       inkscape:collect="always"
       xlink:href="#linearGradient5345"
       id="radialGradient2429"
       gradientUnits="userSpaceOnUse"
       gradientTransform="matrix(1.6236519,1.6679625e-2,-1.4472656e-2,1.4088248,-8.5104269,-11.462985)"
       cx="15.668239"
       cy="25.848892"
       fx="15.668239"
       fy="25.848892"
       r="15.75" />
    <linearGradient
       inkscape:collect="always"
       xlink:href="#linearGradient4123"
       id="linearGradient2431"
       gradientUnits="userSpaceOnUse"
       x1="27.969831"
       y1="8.0017986"
       x2="13.724033"
       y2="33.974377" />
    <linearGradient
       inkscape:collect="always"
       xlink:href="#linearGradient4151"
       id="linearGradient2433"
       gradientUnits="userSpaceOnUse"
       x1="19.151711"
       y1="31.854549"
       x2="24.524218"
       y2="-15.985482" />
    <linearGradient
       inkscape:collect="always"
       xlink:href="#linearGradient4151"
       id="linearGradient2435"
       gradientUnits="userSpaceOnUse"
       x1="19.847391"
       y1="27.516979"
       x2="18.950731"
       y2="-17.881937" />
    <radialGradient
       inkscape:collect="always"
       xlink:href="#linearGradient5351"
       id="radialGradient2451"
       gradientUnits="userSpaceOnUse"
       gradientTransform="matrix(1.6236519,1.6679625e-2,-1.4472656e-2,1.4088248,-8.5104269,-11.462985)"
       cx="15.668239"
       cy="25.848892"
       fx="15.668239"
       fy="25.848892"
       r="15.75" />
    <linearGradient
       inkscape:collect="always"
       xlink:href="#linearGradient4123"
       id="linearGradient2453"
       gradientUnits="userSpaceOnUse"
       x1="27.969831"
       y1="8.0017986"
       x2="13.724033"
       y2="33.974377" />
    <linearGradient
       inkscape:collect="always"
       xlink:href="#linearGradient4151"
       id="linearGradient2455"
       gradientUnits="userSpaceOnUse"
       x1="19.151711"
       y1="31.854549"
       x2="24.524218"
       y2="-15.985482" />
    <linearGradient
       inkscape:collect="always"
       xlink:href="#linearGradient4151"
       id="linearGradient2457"
       gradientUnits="userSpaceOnUse"
       x1="19.847391"
       y1="27.516979"
       x2="18.950731"
       y2="-17.881937" />
    <radialGradient
       inkscape:collect="always"
       xlink:href="#linearGradient4326"
       id="radialGradient7396"
       cx="328.49091"
       cy="11.528673"
       fx="328.49091"
       fy="11.528673"
       r="5.6198349"
       gradientUnits="userSpaceOnUse"
       gradientTransform="matrix(1.358744,-9.7369289e-4,8.7353491e-4,1.2189671,-117.91934,-2.2574273)" />
    <linearGradient
       inkscape:collect="always"
       xlink:href="#linearGradient4151"
       id="linearGradient8369"
       gradientUnits="userSpaceOnUse"
       x1="18.777697"
       y1="32.541389"
       x2="22.260418"
       y2="2.6692705" />
    <linearGradient
       inkscape:collect="always"
       xlink:href="#linearGradient4151"
       id="linearGradient8375"
       gradientUnits="userSpaceOnUse"
       x1="19.151711"
       y1="31.854549"
       x2="24.524218"
       y2="-15.985482" />
    <linearGradient
       inkscape:collect="always"
       xlink:href="#linearGradient4151"
       id="linearGradient8379"
       gradientUnits="userSpaceOnUse"
       x1="19.847391"
       y1="27.516979"
       x2="18.950731"
       y2="-17.881937" />
    <linearGradient
       inkscape:collect="always"
       xlink:href="#linearGradient3285"
       id="linearGradient8383"
       gradientUnits="userSpaceOnUse"
       x1="19.598301"
       y1="45.59549"
       x2="20.952374"
       y2="3.5389352" />
    <radialGradient
       inkscape:collect="always"
       xlink:href="#linearGradient10331"
       id="radialGradient10337"
       cx="327.94147"
       cy="12.151251"
       fx="327.94147"
       fy="12.151251"
       r="5.6198347"
       gradientUnits="userSpaceOnUse"
       gradientTransform="matrix(1.184379,-1.0991785e-2,6.471194e-3,0.6972795,-60.642263,7.4972158)" />
  </defs>
  <sodipodi:namedview
     id="base"
     pagecolor="#ffffff"
     bordercolor="#666666"
     borderopacity="1.0"
     inkscape:pageopacity="0.0"
     inkscape:pageshadow="2"
     inkscape:zoom="45.254832"
     inkscape:cx="330.44539"
     inkscape:cy="11.316362"
     inkscape:document-units="px"
     inkscape:current-layer="layer1"
     width="340px"
     height="40px"
     showgrid="false"
     borderlayer="false"
     inkscape:window-width="1280"
     inkscape:window-height="729"
     inkscape:window-x="0"
     inkscape:window-y="25" />
  <metadata
     id="metadata7">
    <rdf:RDF>
      <cc:Work
         rdf:about="">
        <dc:format>image/svg+xml</dc:format>
        <dc:type
           rdf:resource="http://purl.org/dc/dcmitype/StillImage" />
        <dc:title>Simple Glossy tileset for GNOME Mastermind</dc:title>
        <dc:date>15 May 07</dc:date>
        <dc:creator>
          <cc:Agent>
            <dc:title>Filippo Argiolas</dc:title>
          </cc:Agent>
        </dc:creator>
      </cc:Work>
    </rdf:RDF>
  </metadata>
  <g
     inkscape:label="Livello 1"
     inkscape:groupmode="layer"
     id="layer1">
    <path
       sodipodi:type="arc"
       style="opacity:1;fill:#ffffff;fill-opacity:1;fill-rule:nonzero;stroke:none;stroke-width:1.23966944;stroke-miterlimit:4;stroke-dasharray:none;stroke-opacity:1"
       id="path4490"
       sodipodi:cx="330"
       sodipodi:cy="10"
       sodipodi:rx="5"
       sodipodi:ry="5"
       d="M 335 10 A 5 5 0 1 1  325,10 A 5 5 0 1 1  335 10 z"
       transform="matrix(1.2705,0,0,1.2705,-89.264,17.294771)" />
    <path
       style="opacity:0.1;fill:#000000;fill-opacity:1;fill-rule:nonzero;stroke:none;stroke-width:2;stroke-miterlimit:4;stroke-opacity:1"
       d="M 336.62316,10.624088 C 336.62316,14.394139 333.5634,17.453893 329.79335,17.453893 C 326.0233,17.453893 322.96355,14.394139 322.96355,10.624088 C 322.96355,6.854036 326.0233,3.794283 329.79335,3.794283 C 333.5634,3.794283 336.62316,6.854036 336.62316,10.624088 z "
       id="path4293" />
    <path
       style="opacity:0.1;fill:#000000;fill-opacity:1;fill-rule:nonzero;stroke:none;stroke-width:2;stroke-miterlimit:4;stroke-opacity:1"
       d="M 336.71603,11.114548 C 336.71603,14.884599 333.65628,17.944353 329.88623,17.944353 C 326.11618,17.944353 323.05642,14.884599 323.05642,11.114548 C 323.05642,7.344496 326.11618,4.284744 329.88623,4.284744 C 333.65628,4.284744 336.71603,7.344496 336.71603,11.114548 z "
       id="path5305" />
    <path
       style="opacity:0.1;fill:#000000;fill-opacity:1;fill-rule:nonzero;stroke:none;stroke-width:2;stroke-miterlimit:4;stroke-opacity:1"
       d="M 33.5,22.5 C 33.5,30.78 26.78,37.5 18.5,37.5 C 10.22,37.5 3.5,30.78 3.5,22.5 C 3.5,14.22 10.22,7.5 18.5,7.5 C 26.78,7.5 33.5,14.22 33.5,22.5 z "
       id="path5144" />
    <path
       style="opacity:0.1;fill:#000000;fill-opacity:1;fill-rule:nonzero;stroke:none;stroke-width:2;stroke-miterlimit:4;stroke-opacity:1"
       d="M 33.75,22 C 33.75,30.28 27.03,37 18.75,37 C 10.47,37 3.75,30.28 3.75,22 C 3.75,13.72 10.47,7 18.75,7 C 27.03,7 33.75,13.72 33.75,22 z "
       id="path6243" />
    <path
       style="opacity:0.1;fill:#000000;fill-opacity:1;fill-rule:nonzero;stroke:none;stroke-width:2;stroke-miterlimit:4;stroke-opacity:1"
       d="M 34,21.5625 C 34,29.8425 27.28,36.5625 19,36.5625 C 10.72,36.5625 4,29.8425 4,21.5625 C 4,13.2825 10.72,6.5625 19,6.5625 C 27.28,6.5625 34,13.2825 34,21.5625 z "
       id="path6245" />
    <path
       sodipodi:type="arc"
       style="opacity:1;fill:url(#radialGradient3171);fill-opacity:1.0;fill-rule:nonzero;stroke:#5c3566;stroke-width:1.5;stroke-miterlimit:4;stroke-dasharray:none;stroke-opacity:1"
       id="path2160"
       sodipodi:cx="20"
       sodipodi:cy="20"
       sodipodi:rx="15"
       sodipodi:ry="15"
       d="M 35 20 A 15 15 0 1 1  5,20 A 15 15 0 1 1  35 20 z" />
    <path
       sodipodi:type="arc"
       style="opacity:0.7;fill:none;fill-opacity:1;fill-rule:nonzero;stroke:url(#linearGradient4129);stroke-width:1.77083302;stroke-miterlimit:4;stroke-dasharray:none;stroke-opacity:1"
       id="path3142"
       sodipodi:cx="20"
       sodipodi:cy="20"
       sodipodi:rx="15"
       sodipodi:ry="15"
       d="M 35 20 A 15 15 0 1 1  5,20 A 15 15 0 1 1  35 20 z"
       transform="matrix(0.8944049,0,0,0.8944049,2.1119011,2.1119011)" />
    <path
       sodipodi:type="arc"
       style="opacity:1;fill:url(#linearGradient4157);fill-opacity:1;fill-rule:nonzero;stroke:none;stroke-width:2;stroke-miterlimit:4;stroke-dasharray:none;stroke-opacity:1"
       id="path4131"
       sodipodi:cx="20"
       sodipodi:cy="20"
       sodipodi:rx="15"
       sodipodi:ry="15"
       d="M 35 20 A 15 15 0 1 1  5,20 A 15 15 0 1 1  35 20 z"
       transform="matrix(0.6039651,0.3486994,-0.2875884,0.4981176,15.265071,-5.6486407e-2)" />
    <path
       sodipodi:type="arc"
       style="opacity:1;fill:url(#radialGradient10337);fill-opacity:1.0;fill-rule:nonzero;stroke:#000000;stroke-width:1.23966944;stroke-miterlimit:4;stroke-dasharray:none;stroke-opacity:1"
       id="path3253"
       sodipodi:cx="330"
       sodipodi:cy="10"
       sodipodi:rx="5"
       sodipodi:ry="5"
       d="M 335 10 A 5 5 0 1 1  325,10 A 5 5 0 1 1  335 10 z"
       transform="matrix(1.2705,0,0,1.2705,-89.264,-2.705229)" />
    <path
       style="opacity:0.1;fill:#000000;fill-opacity:1;fill-rule:nonzero;stroke:none;stroke-width:2;stroke-miterlimit:4;stroke-opacity:1"
       d="M 336.66482,30.623735 C 336.66482,34.393786 333.60506,37.45354 329.83501,37.45354 C 326.06496,37.45354 323.0052,34.393786 323.0052,30.623735 C 323.0052,26.853682 326.06496,23.793931 329.83501,23.793931 C 333.60506,23.793931 336.66482,26.853682 336.66482,30.623735 z "
       id="path4305" />
    <path
       style="opacity:0.1;fill:#000000;fill-opacity:1;fill-rule:nonzero;stroke:none;stroke-width:2;stroke-miterlimit:4;stroke-opacity:1"
       d="M 336.7577,31.114195 C 336.7577,34.884246 333.69794,37.944 329.92789,37.944 C 326.15784,37.944 323.09809,34.884246 323.09809,31.114195 C 323.09809,27.344144 326.15784,24.284391 329.92789,24.284391 C 333.69794,24.284391 336.7577,27.344144 336.7577,31.114195 z "
       id="path4307" />
    <path
       sodipodi:type="arc"
       style="opacity:1;fill:url(#radialGradient7396);fill-opacity:1.0;fill-rule:nonzero;stroke:#000000;stroke-width:1.23966942;stroke-miterlimit:4;stroke-dasharray:none;stroke-opacity:1"
       id="path4309"
       sodipodi:cx="330"
       sodipodi:cy="10"
       sodipodi:rx="5"
       sodipodi:ry="5"
       d="M 335 10 A 5 5 0 1 1  325,10 A 5 5 0 1 1  335 10 z"
       transform="matrix(1.2705,0,0,1.2705,-89.222335,17.294418)" />
    <path
       sodipodi:type="arc"
       style="opacity:1;fill:url(#linearGradient3275);fill-opacity:1;fill-rule:nonzero;stroke:none;stroke-width:2;stroke-miterlimit:4;stroke-dasharray:none;stroke-opacity:1"
       id="path3273"
       sodipodi:cx="20"
       sodipodi:cy="20"
       sodipodi:rx="15"
       sodipodi:ry="15"
       d="M 35 20 A 15 15 0 1 1  5,20 A 15 15 0 1 1  35 20 z"
       transform="matrix(0.2325332,0.1972024,-0.1626417,0.1917807,23.345866,6.3459074)" />
    <path
       style="opacity:0.1;fill:#000000;fill-opacity:1;fill-rule:nonzero;stroke:none;stroke-width:2;stroke-miterlimit:4;stroke-opacity:1"
       d="M 73.875,21.625 C 73.875,29.905 67.155,36.625 58.875,36.625 C 50.595,36.625 43.875,29.905 43.875,21.625 C 43.875,13.345 50.595,6.625 58.875,6.625 C 67.155,6.625 73.875,13.345 73.875,21.625 z "
       id="path2305" />
    <path
       style="opacity:0.1;fill:#000000;fill-opacity:1;fill-rule:nonzero;stroke:none;stroke-width:2;stroke-miterlimit:4;stroke-opacity:1"
       d="M 74.125,21.125 C 74.125,29.405 67.405,36.125 59.125,36.125 C 50.845,36.125 44.125,29.405 44.125,21.125 C 44.125,12.845 50.845,6.125 59.125,6.125 C 67.405,6.125 74.125,12.845 74.125,21.125 z "
       id="path2307" />
    <path
       style="opacity:0.1;fill:#000000;fill-opacity:1;fill-rule:nonzero;stroke:none;stroke-width:2;stroke-miterlimit:4;stroke-opacity:1"
       d="M 74.375,20.6875 C 74.375,28.9675 67.655,35.6875 59.375,35.6875 C 51.095,35.6875 44.375,28.9675 44.375,20.6875 C 44.375,12.4075 51.095,5.6875 59.375,5.6875 C 67.655,5.6875 74.375,12.4075 74.375,20.6875 z "
       id="path2309" />
    <path
       sodipodi:type="arc"
       style="opacity:1;fill:url(#radialGradient2319);fill-opacity:1.0;fill-rule:nonzero;stroke:#ce5c00;stroke-width:1.5;stroke-miterlimit:4;stroke-dasharray:none;stroke-opacity:1"
       id="path2311"
       sodipodi:cx="20"
       sodipodi:cy="20"
       sodipodi:rx="15"
       sodipodi:ry="15"
       d="M 35 20 A 15 15 0 1 1  5,20 A 15 15 0 1 1  35 20 z"
       transform="translate(40.375,-0.875)" />
    <path
       sodipodi:type="arc"
       style="opacity:0.7;fill:none;fill-opacity:1;fill-rule:nonzero;stroke:url(#linearGradient2321);stroke-width:1.77083302;stroke-miterlimit:4;stroke-dasharray:none;stroke-opacity:1"
       id="path2313"
       sodipodi:cx="20"
       sodipodi:cy="20"
       sodipodi:rx="15"
       sodipodi:ry="15"
       d="M 35 20 A 15 15 0 1 1  5,20 A 15 15 0 1 1  35 20 z"
       transform="matrix(0.8944049,0,0,0.8944049,42.486901,1.2369011)" />
    <path
       sodipodi:type="arc"
       style="opacity:1;fill:url(#linearGradient2323);fill-opacity:1;fill-rule:nonzero;stroke:none;stroke-width:2;stroke-miterlimit:4;stroke-dasharray:none;stroke-opacity:1"
       id="path2315"
       sodipodi:cx="20"
       sodipodi:cy="20"
       sodipodi:rx="15"
       sodipodi:ry="15"
       d="M 35 20 A 15 15 0 1 1  5,20 A 15 15 0 1 1  35 20 z"
       transform="matrix(0.6039651,0.3486994,-0.2875884,0.4981176,55.640071,-0.9314864)" />
    <path
       sodipodi:type="arc"
       style="opacity:1;fill:url(#linearGradient2325);fill-opacity:1;fill-rule:nonzero;stroke:none;stroke-width:2;stroke-miterlimit:4;stroke-dasharray:none;stroke-opacity:1"
       id="path2317"
       sodipodi:cx="20"
       sodipodi:cy="20"
       sodipodi:rx="15"
       sodipodi:ry="15"
       d="M 35 20 A 15 15 0 1 1  5,20 A 15 15 0 1 1  35 20 z"
       transform="matrix(0.2325332,0.1972024,-0.1626417,0.1917807,63.720866,5.4709074)" />
    <path
       style="opacity:0.1;fill:#000000;fill-opacity:1;fill-rule:nonzero;stroke:none;stroke-width:2;stroke-miterlimit:4;stroke-opacity:1"
       d="M 113.875,21.625 C 113.875,29.905 107.155,36.625 98.875,36.625 C 90.595,36.625 83.875,29.905 83.875,21.625 C 83.875,13.345 90.595,6.625 98.875,6.625 C 107.155,6.625 113.875,13.345 113.875,21.625 z "
       id="path2327" />
    <path
       style="opacity:0.1;fill:#000000;fill-opacity:1;fill-rule:nonzero;stroke:none;stroke-width:2;stroke-miterlimit:4;stroke-opacity:1"
       d="M 114.125,21.125 C 114.125,29.405 107.405,36.125 99.125,36.125 C 90.845,36.125 84.125,29.405 84.125,21.125 C 84.125,12.845 90.845,6.125 99.125,6.125 C 107.405,6.125 114.125,12.845 114.125,21.125 z "
       id="path2329" />
    <path
       style="opacity:0.1;fill:#000000;fill-opacity:1;fill-rule:nonzero;stroke:none;stroke-width:2;stroke-miterlimit:4;stroke-opacity:1"
       d="M 114.375,20.6875 C 114.375,28.9675 107.655,35.6875 99.375,35.6875 C 91.095,35.6875 84.375,28.9675 84.375,20.6875 C 84.375,12.4075 91.095,5.6875 99.375,5.6875 C 107.655,5.6875 114.375,12.4075 114.375,20.6875 z "
       id="path2331" />
    <path
       sodipodi:type="arc"
       style="opacity:1;fill:url(#radialGradient2341);fill-opacity:1.0;fill-rule:nonzero;stroke:#204a87;stroke-width:1.5;stroke-miterlimit:4;stroke-dasharray:none;stroke-opacity:1"
       id="path2333"
       sodipodi:cx="20"
       sodipodi:cy="20"
       sodipodi:rx="15"
       sodipodi:ry="15"
       d="M 35 20 A 15 15 0 1 1  5,20 A 15 15 0 1 1  35 20 z"
       transform="translate(80.375,-0.875)" />
    <path
       sodipodi:type="arc"
       style="opacity:0.7;fill:none;fill-opacity:1;fill-rule:nonzero;stroke:url(#linearGradient2343);stroke-width:1.77083302;stroke-miterlimit:4;stroke-dasharray:none;stroke-opacity:1"
       id="path2335"
       sodipodi:cx="20"
       sodipodi:cy="20"
       sodipodi:rx="15"
       sodipodi:ry="15"
       d="M 35 20 A 15 15 0 1 1  5,20 A 15 15 0 1 1  35 20 z"
       transform="matrix(0.8944049,0,0,0.8944049,82.486901,1.2369011)" />
    <path
       sodipodi:type="arc"
       style="opacity:1;fill:url(#linearGradient2345);fill-opacity:1;fill-rule:nonzero;stroke:none;stroke-width:2;stroke-miterlimit:4;stroke-dasharray:none;stroke-opacity:1"
       id="path2337"
       sodipodi:cx="20"
       sodipodi:cy="20"
       sodipodi:rx="15"
       sodipodi:ry="15"
       d="M 35 20 A 15 15 0 1 1  5,20 A 15 15 0 1 1  35 20 z"
       transform="matrix(0.6039651,0.3486994,-0.2875884,0.4981176,95.640071,-0.9314864)" />
    <path
       sodipodi:type="arc"
       style="opacity:1;fill:url(#linearGradient2347);fill-opacity:1;fill-rule:nonzero;stroke:none;stroke-width:2;stroke-miterlimit:4;stroke-dasharray:none;stroke-opacity:1"
       id="path2339"
       sodipodi:cx="20"
       sodipodi:cy="20"
       sodipodi:rx="15"
       sodipodi:ry="15"
       d="M 35 20 A 15 15 0 1 1  5,20 A 15 15 0 1 1  35 20 z"
       transform="matrix(0.2325332,0.1972024,-0.1626417,0.1917807,103.72087,5.4709074)" />
    <path
       style="opacity:0.1;fill:#000000;fill-opacity:1;fill-rule:nonzero;stroke:none;stroke-width:2;stroke-miterlimit:4;stroke-opacity:1"
       d="M 153.875,21.625 C 153.875,29.905 147.155,36.625 138.875,36.625 C 130.595,36.625 123.875,29.905 123.875,21.625 C 123.875,13.345 130.595,6.625 138.875,6.625 C 147.155,6.625 153.875,13.345 153.875,21.625 z "
       id="path2349" />
    <path
       style="opacity:0.1;fill:#000000;fill-opacity:1;fill-rule:nonzero;stroke:none;stroke-width:2;stroke-miterlimit:4;stroke-opacity:1"
       d="M 154.125,21.125 C 154.125,29.405 147.405,36.125 139.125,36.125 C 130.845,36.125 124.125,29.405 124.125,21.125 C 124.125,12.845 130.845,6.125 139.125,6.125 C 147.405,6.125 154.125,12.845 154.125,21.125 z "
       id="path2351" />
    <path
       style="opacity:0.1;fill:#000000;fill-opacity:1;fill-rule:nonzero;stroke:none;stroke-width:2;stroke-miterlimit:4;stroke-opacity:1"
       d="M 154.375,20.6875 C 154.375,28.9675 147.655,35.6875 139.375,35.6875 C 131.095,35.6875 124.375,28.9675 124.375,20.6875 C 124.375,12.4075 131.095,5.6875 139.375,5.6875 C 147.655,5.6875 154.375,12.4075 154.375,20.6875 z "
       id="path2353" />
    <path
       sodipodi:type="arc"
       style="opacity:1;fill:url(#radialGradient2363);fill-opacity:1.0;fill-rule:nonzero;stroke:#c4a000;stroke-width:1.5;stroke-miterlimit:4;stroke-dasharray:none;stroke-opacity:1"
       id="path2355"
       sodipodi:cx="20"
       sodipodi:cy="20"
       sodipodi:rx="15"
       sodipodi:ry="15"
       d="M 35 20 A 15 15 0 1 1  5,20 A 15 15 0 1 1  35 20 z"
       transform="translate(120.375,-0.875)" />
    <path
       sodipodi:type="arc"
       style="opacity:0.7;fill:none;fill-opacity:1;fill-rule:nonzero;stroke:url(#linearGradient2365);stroke-width:1.77083302;stroke-miterlimit:4;stroke-dasharray:none;stroke-opacity:1"
       id="path2357"
       sodipodi:cx="20"
       sodipodi:cy="20"
       sodipodi:rx="15"
       sodipodi:ry="15"
       d="M 35 20 A 15 15 0 1 1  5,20 A 15 15 0 1 1  35 20 z"
       transform="matrix(0.8944049,0,0,0.8944049,122.4869,1.2369011)" />
    <path
       sodipodi:type="arc"
       style="opacity:1;fill:url(#linearGradient2367);fill-opacity:1;fill-rule:nonzero;stroke:none;stroke-width:2;stroke-miterlimit:4;stroke-dasharray:none;stroke-opacity:1"
       id="path2359"
       sodipodi:cx="20"
       sodipodi:cy="20"
       sodipodi:rx="15"
       sodipodi:ry="15"
       d="M 35 20 A 15 15 0 1 1  5,20 A 15 15 0 1 1  35 20 z"
       transform="matrix(0.6039651,0.3486994,-0.2875884,0.4981176,135.64007,-0.9314864)" />
    <path
       sodipodi:type="arc"
       style="opacity:1;fill:url(#linearGradient2369);fill-opacity:1;fill-rule:nonzero;stroke:none;stroke-width:2;stroke-miterlimit:4;stroke-dasharray:none;stroke-opacity:1"
       id="path2361"
       sodipodi:cx="20"
       sodipodi:cy="20"
       sodipodi:rx="15"
       sodipodi:ry="15"
       d="M 35 20 A 15 15 0 1 1  5,20 A 15 15 0 1 1  35 20 z"
       transform="matrix(0.2325332,0.1972024,-0.1626417,0.1917807,143.72087,5.4709074)" />
    <path
       style="opacity:0.1;fill:#000000;fill-opacity:1;fill-rule:nonzero;stroke:none;stroke-width:2;stroke-miterlimit:4;stroke-opacity:1"
       d="M 193.875,21.625 C 193.875,29.905 187.155,36.625 178.875,36.625 C 170.595,36.625 163.875,29.905 163.875,21.625 C 163.875,13.345 170.595,6.625 178.875,6.625 C 187.155,6.625 193.875,13.345 193.875,21.625 z "
       id="path2371" />
    <path
       style="opacity:0.1;fill:#000000;fill-opacity:1;fill-rule:nonzero;stroke:none;stroke-width:2;stroke-miterlimit:4;stroke-opacity:1"
       d="M 194.125,21.125 C 194.125,29.405 187.405,36.125 179.125,36.125 C 170.845,36.125 164.125,29.405 164.125,21.125 C 164.125,12.845 170.845,6.125 179.125,6.125 C 187.405,6.125 194.125,12.845 194.125,21.125 z "
       id="path2373" />
    <path
       style="opacity:0.1;fill:#000000;fill-opacity:1;fill-rule:nonzero;stroke:none;stroke-width:2;stroke-miterlimit:4;stroke-opacity:1"
       d="M 194.375,20.6875 C 194.375,28.9675 187.655,35.6875 179.375,35.6875 C 171.095,35.6875 164.375,28.9675 164.375,20.6875 C 164.375,12.4075 171.095,5.6875 179.375,5.6875 C 187.655,5.6875 194.375,12.4075 194.375,20.6875 z "
       id="path2375" />
    <path
       sodipodi:type="arc"
       style="opacity:1;fill:url(#radialGradient2385);fill-opacity:1.0;fill-rule:nonzero;stroke:#a40000;stroke-width:1.5;stroke-miterlimit:4;stroke-dasharray:none;stroke-opacity:1"
       id="path2377"
       sodipodi:cx="20"
       sodipodi:cy="20"
       sodipodi:rx="15"
       sodipodi:ry="15"
       d="M 35 20 A 15 15 0 1 1  5,20 A 15 15 0 1 1  35 20 z"
       transform="translate(160.375,-0.875)" />
    <path
       sodipodi:type="arc"
       style="opacity:0.7;fill:none;fill-opacity:1;fill-rule:nonzero;stroke:url(#linearGradient2387);stroke-width:1.77083302;stroke-miterlimit:4;stroke-dasharray:none;stroke-opacity:1"
       id="path2379"
       sodipodi:cx="20"
       sodipodi:cy="20"
       sodipodi:rx="15"
       sodipodi:ry="15"
       d="M 35 20 A 15 15 0 1 1  5,20 A 15 15 0 1 1  35 20 z"
       transform="matrix(0.8944049,0,0,0.8944049,162.4869,1.2369011)" />
    <path
       sodipodi:type="arc"
       style="opacity:1;fill:url(#linearGradient2389);fill-opacity:1;fill-rule:nonzero;stroke:none;stroke-width:2;stroke-miterlimit:4;stroke-dasharray:none;stroke-opacity:1"
       id="path2381"
       sodipodi:cx="20"
       sodipodi:cy="20"
       sodipodi:rx="15"
       sodipodi:ry="15"
       d="M 35 20 A 15 15 0 1 1  5,20 A 15 15 0 1 1  35 20 z"
       transform="matrix(0.6039651,0.3486994,-0.2875884,0.4981176,175.64007,-0.9314864)" />
    <path
       sodipodi:type="arc"
       style="opacity:1;fill:url(#linearGradient2391);fill-opacity:1;fill-rule:nonzero;stroke:none;stroke-width:2;stroke-miterlimit:4;stroke-dasharray:none;stroke-opacity:1"
       id="path2383"
       sodipodi:cx="20"
       sodipodi:cy="20"
       sodipodi:rx="15"
       sodipodi:ry="15"
       d="M 35 20 A 15 15 0 1 1  5,20 A 15 15 0 1 1  35 20 z"
       transform="matrix(0.2325332,0.1972024,-0.1626417,0.1917807,183.72087,5.4709074)" />
    <path
       style="opacity:0.1;fill:#000000;fill-opacity:1;fill-rule:nonzero;stroke:none;stroke-width:2;stroke-miterlimit:4;stroke-opacity:1"
       d="M 233.875,21.625 C 233.875,29.905 227.155,36.625 218.875,36.625 C 210.595,36.625 203.875,29.905 203.875,21.625 C 203.875,13.345 210.595,6.625 218.875,6.625 C 227.155,6.625 233.875,13.345 233.875,21.625 z "
       id="path2393" />
    <path
       style="opacity:0.1;fill:#000000;fill-opacity:1;fill-rule:nonzero;stroke:none;stroke-width:2;stroke-miterlimit:4;stroke-opacity:1"
       d="M 234.125,21.125 C 234.125,29.405 227.405,36.125 219.125,36.125 C 210.845,36.125 204.125,29.405 204.125,21.125 C 204.125,12.845 210.845,6.125 219.125,6.125 C 227.405,6.125 234.125,12.845 234.125,21.125 z "
       id="path2395" />
    <path
       style="opacity:0.1;fill:#000000;fill-opacity:1;fill-rule:nonzero;stroke:none;stroke-width:2;stroke-miterlimit:4;stroke-opacity:1"
       d="M 234.375,20.6875 C 234.375,28.9675 227.655,35.6875 219.375,35.6875 C 211.095,35.6875 204.375,28.9675 204.375,20.6875 C 204.375,12.4075 211.095,5.6875 219.375,5.6875 C 227.655,5.6875 234.375,12.4075 234.375,20.6875 z "
       id="path2397" />
    <path
       sodipodi:type="arc"
       style="opacity:1;fill:url(#radialGradient2407);fill-opacity:1.0;fill-rule:nonzero;stroke:#8e5801;stroke-width:1.5;stroke-miterlimit:4;stroke-dasharray:none;stroke-opacity:1"
       id="path2399"
       sodipodi:cx="20"
       sodipodi:cy="20"
       sodipodi:rx="15"
       sodipodi:ry="15"
       d="M 35 20 A 15 15 0 1 1  5,20 A 15 15 0 1 1  35 20 z"
       transform="translate(200.375,-0.875)" />
    <path
       sodipodi:type="arc"
       style="opacity:0.7;fill:none;fill-opacity:1;fill-rule:nonzero;stroke:url(#linearGradient2409);stroke-width:1.77083302;stroke-miterlimit:4;stroke-dasharray:none;stroke-opacity:1"
       id="path2401"
       sodipodi:cx="20"
       sodipodi:cy="20"
       sodipodi:rx="15"
       sodipodi:ry="15"
       d="M 35 20 A 15 15 0 1 1  5,20 A 15 15 0 1 1  35 20 z"
       transform="matrix(0.8944049,0,0,0.8944049,202.4869,1.2369011)" />
    <path
       sodipodi:type="arc"
       style="opacity:1;fill:url(#linearGradient2411);fill-opacity:1;fill-rule:nonzero;stroke:none;stroke-width:2;stroke-miterlimit:4;stroke-dasharray:none;stroke-opacity:1"
       id="path2403"
       sodipodi:cx="20"
       sodipodi:cy="20"
       sodipodi:rx="15"
       sodipodi:ry="15"
       d="M 35 20 A 15 15 0 1 1  5,20 A 15 15 0 1 1  35 20 z"
       transform="matrix(0.6039651,0.3486994,-0.2875884,0.4981176,215.64007,-0.9314864)" />
    <path
       sodipodi:type="arc"
       style="opacity:1;fill:url(#linearGradient2413);fill-opacity:1;fill-rule:nonzero;stroke:none;stroke-width:2;stroke-miterlimit:4;stroke-dasharray:none;stroke-opacity:1"
       id="path2405"
       sodipodi:cx="20"
       sodipodi:cy="20"
       sodipodi:rx="15"
       sodipodi:ry="15"
       d="M 35 20 A 15 15 0 1 1  5,20 A 15 15 0 1 1  35 20 z"
       transform="matrix(0.2325332,0.1972024,-0.1626417,0.1917807,223.72087,5.4709074)" />
    <path
       style="opacity:0.1;fill:#000000;fill-opacity:1;fill-rule:nonzero;stroke:none;stroke-width:2;stroke-miterlimit:4;stroke-opacity:1"
       d="M 273.875,21.625 C 273.875,29.905 267.155,36.625 258.875,36.625 C 250.595,36.625 243.875,29.905 243.875,21.625 C 243.875,13.345 250.595,6.625 258.875,6.625 C 267.155,6.625 273.875,13.345 273.875,21.625 z "
       id="path2415" />
    <path
       style="opacity:0.1;fill:#000000;fill-opacity:1;fill-rule:nonzero;stroke:none;stroke-width:2;stroke-miterlimit:4;stroke-opacity:1"
       d="M 274.125,21.125 C 274.125,29.405 267.405,36.125 259.125,36.125 C 250.845,36.125 244.125,29.405 244.125,21.125 C 244.125,12.845 250.845,6.125 259.125,6.125 C 267.405,6.125 274.125,12.845 274.125,21.125 z "
       id="path2417" />
    <path
       style="opacity:0.1;fill:#000000;fill-opacity:1;fill-rule:nonzero;stroke:none;stroke-width:2;stroke-miterlimit:4;stroke-opacity:1"
       d="M 274.375,20.6875 C 274.375,28.9675 267.655,35.6875 259.375,35.6875 C 251.095,35.6875 244.375,28.9675 244.375,20.6875 C 244.375,12.4075 251.095,5.6875 259.375,5.6875 C 267.655,5.6875 274.375,12.4075 274.375,20.6875 z "
       id="path2419" />
    <path
       sodipodi:type="arc"
       style="opacity:1;fill:url(#radialGradient2429);fill-opacity:1.0;fill-rule:nonzero;stroke:#5a8f07;stroke-width:1.5;stroke-miterlimit:4;stroke-dasharray:none;stroke-opacity:1"
       id="path2421"
       sodipodi:cx="20"
       sodipodi:cy="20"
       sodipodi:rx="15"
       sodipodi:ry="15"
       d="M 35 20 A 15 15 0 1 1  5,20 A 15 15 0 1 1  35 20 z"
       transform="translate(240.375,-0.875)" />
    <path
       sodipodi:type="arc"
       style="opacity:0.7;fill:none;fill-opacity:1;fill-rule:nonzero;stroke:url(#linearGradient2431);stroke-width:1.77083302;stroke-miterlimit:4;stroke-dasharray:none;stroke-opacity:1"
       id="path2423"
       sodipodi:cx="20"
       sodipodi:cy="20"
       sodipodi:rx="15"
       sodipodi:ry="15"
       d="M 35 20 A 15 15 0 1 1  5,20 A 15 15 0 1 1  35 20 z"
       transform="matrix(0.8944049,0,0,0.8944049,242.4869,1.2369011)" />
    <path
       sodipodi:type="arc"
       style="opacity:1;fill:url(#linearGradient2433);fill-opacity:1;fill-rule:nonzero;stroke:none;stroke-width:2;stroke-miterlimit:4;stroke-dasharray:none;stroke-opacity:1"
       id="path2425"
       sodipodi:cx="20"
       sodipodi:cy="20"
       sodipodi:rx="15"
       sodipodi:ry="15"
       d="M 35 20 A 15 15 0 1 1  5,20 A 15 15 0 1 1  35 20 z"
       transform="matrix(0.6039651,0.3486994,-0.2875884,0.4981176,255.64007,-0.9314864)" />
    <path
       sodipodi:type="arc"
       style="opacity:1;fill:url(#linearGradient2435);fill-opacity:1;fill-rule:nonzero;stroke:none;stroke-width:2;stroke-miterlimit:4;stroke-dasharray:none;stroke-opacity:1"
       id="path2427"
       sodipodi:cx="20"
       sodipodi:cy="20"
       sodipodi:rx="15"
       sodipodi:ry="15"
       d="M 35 20 A 15 15 0 1 1  5,20 A 15 15 0 1 1  35 20 z"
       transform="matrix(0.2325332,0.1972024,-0.1626417,0.1917807,263.72087,5.4709074)" />
    <path
       style="opacity:0.1;fill:#000000;fill-opacity:1;fill-rule:nonzero;stroke:none;stroke-width:2;stroke-miterlimit:4;stroke-opacity:1"
       d="M 313.875,21.625 C 313.875,29.905 307.155,36.625 298.875,36.625 C 290.595,36.625 283.875,29.905 283.875,21.625 C 283.875,13.345 290.595,6.625 298.875,6.625 C 307.155,6.625 313.875,13.345 313.875,21.625 z "
       id="path2437" />
    <path
       style="opacity:0.1;fill:#000000;fill-opacity:1;fill-rule:nonzero;stroke:none;stroke-width:2;stroke-miterlimit:4;stroke-opacity:1"
       d="M 314.125,21.125 C 314.125,29.405 307.405,36.125 299.125,36.125 C 290.845,36.125 284.125,29.405 284.125,21.125 C 284.125,12.845 290.845,6.125 299.125,6.125 C 307.405,6.125 314.125,12.845 314.125,21.125 z "
       id="path2439" />
    <path
       style="opacity:0.1;fill:#000000;fill-opacity:1;fill-rule:nonzero;stroke:none;stroke-width:2;stroke-miterlimit:4;stroke-opacity:1"
       d="M 314.375,20.6875 C 314.375,28.9675 307.655,35.6875 299.375,35.6875 C 291.095,35.6875 284.375,28.9675 284.375,20.6875 C 284.375,12.4075 291.095,5.6875 299.375,5.6875 C 307.655,5.6875 314.375,12.4075 314.375,20.6875 z "
       id="path2441" />
    <path
       sodipodi:type="arc"
       style="opacity:1;fill:url(#radialGradient2451);fill-opacity:1.0;fill-rule:nonzero;stroke:#a40060;stroke-width:1.5;stroke-miterlimit:4;stroke-dasharray:none;stroke-opacity:1"
       id="path2443"
       sodipodi:cx="20"
       sodipodi:cy="20"
       sodipodi:rx="15"
       sodipodi:ry="15"
       d="M 35 20 A 15 15 0 1 1  5,20 A 15 15 0 1 1  35 20 z"
       transform="translate(280.375,-0.875)" />
    <path
       sodipodi:type="arc"
       style="opacity:0.7;fill:none;fill-opacity:1;fill-rule:nonzero;stroke:url(#linearGradient2453);stroke-width:1.77083302;stroke-miterlimit:4;stroke-dasharray:none;stroke-opacity:1"
       id="path2445"
       sodipodi:cx="20"
       sodipodi:cy="20"
       sodipodi:rx="15"
       sodipodi:ry="15"
       d="M 35 20 A 15 15 0 1 1  5,20 A 15 15 0 1 1  35 20 z"
       transform="matrix(0.8944049,0,0,0.8944049,282.4869,1.2369011)" />
    <path
       sodipodi:type="arc"
       style="opacity:1;fill:url(#linearGradient2455);fill-opacity:1;fill-rule:nonzero;stroke:none;stroke-width:2;stroke-miterlimit:4;stroke-dasharray:none;stroke-opacity:1"
       id="path2447"
       sodipodi:cx="20"
       sodipodi:cy="20"
       sodipodi:rx="15"
       sodipodi:ry="15"
       d="M 35 20 A 15 15 0 1 1  5,20 A 15 15 0 1 1  35 20 z"
       transform="matrix(0.6039651,0.3486994,-0.2875884,0.4981176,295.64007,-0.9314864)" />
    <path
       sodipodi:type="arc"
       style="opacity:1;fill:url(#linearGradient2457);fill-opacity:1;fill-rule:nonzero;stroke:none;stroke-width:2;stroke-miterlimit:4;stroke-dasharray:none;stroke-opacity:1"
       id="path2449"
       sodipodi:cx="20"
       sodipodi:cy="20"
       sodipodi:rx="15"
       sodipodi:ry="15"
       d="M 35 20 A 15 15 0 1 1  5,20 A 15 15 0 1 1  35 20 z"
       transform="matrix(0.2325332,0.1972024,-0.1626417,0.1917807,303.72087,5.4709074)" />
    <path
       sodipodi:type="arc"
       style="opacity:1;fill:url(#linearGradient8369);fill-opacity:1;fill-rule:nonzero;stroke:none;stroke-width:2;stroke-miterlimit:4;stroke-dasharray:none;stroke-opacity:1"
       id="path8367"
       sodipodi:cx="20"
       sodipodi:cy="20"
       sodipodi:rx="15"
       sodipodi:ry="15"
       d="M 35 20 A 15 15 0 1 1  5,20 A 15 15 0 1 1  35 20 z"
       transform="matrix(0.2521544,0.1455814,-0.1200677,0.2079633,328.29347,21.424252)" />
    <path
       sodipodi:type="arc"
       style="opacity:1;fill:url(#linearGradient8375);fill-opacity:1;fill-rule:nonzero;stroke:none;stroke-width:2;stroke-miterlimit:4;stroke-dasharray:none;stroke-opacity:1"
       id="path8373"
       sodipodi:cx="20"
       sodipodi:cy="20"
       sodipodi:rx="15"
       sodipodi:ry="15"
       d="M 35 20 A 15 15 0 1 1  5,20 A 15 15 0 1 1  35 20 z"
       transform="matrix(0.2521544,0.1455814,-0.1200677,0.2079633,328.16847,1.3617522)" />
    <path
       sodipodi:type="arc"
       style="opacity:1;fill:url(#linearGradient8379);fill-opacity:1;fill-rule:nonzero;stroke:none;stroke-width:2;stroke-miterlimit:4;stroke-dasharray:none;stroke-opacity:1"
       id="path8377"
       sodipodi:cx="20"
       sodipodi:cy="20"
       sodipodi:rx="15"
       sodipodi:ry="15"
       d="M 35 20 A 15 15 0 1 1  5,20 A 15 15 0 1 1  35 20 z"
       transform="matrix(0.1021916,8.6664783e-2,-7.1476359e-2,8.4282098e-2,331.56241,4.0185616)" />
    <path
       sodipodi:type="arc"
       style="opacity:1;fill:url(#linearGradient8383);fill-opacity:1.0;fill-rule:nonzero;stroke:none;stroke-width:2;stroke-miterlimit:4;stroke-dasharray:none;stroke-opacity:1"
       id="path8381"
       sodipodi:cx="20"
       sodipodi:cy="20"
       sodipodi:rx="15"
       sodipodi:ry="15"
       d="M 35 20 A 15 15 0 1 1  5,20 A 15 15 0 1 1  35 20 z"
       transform="matrix(0.1021916,8.6664783e-2,-7.1476359e-2,8.4282098e-2,331.56222,23.977993)" />
  </g>
</svg>
