<?xml version="1.0" encoding="UTF-8" standalone="no"?>
<!-- Created with Inkscape (http://www.inkscape.org/) -->
<svg
   xmlns:dc="http://purl.org/dc/elements/1.1/"
   xmlns:cc="http://web.resource.org/cc/"
   xmlns:rdf="http://www.w3.org/1999/02/22-rdf-syntax-ns#"
   xmlns:svg="http://www.w3.org/2000/svg"
   xmlns="http://www.w3.org/2000/svg"
   xmlns:xlink="http://www.w3.org/1999/xlink"
   xmlns:sodipodi="http://sodipodi.sourceforge.net/DTD/sodipodi-0.dtd"
   xmlns:inkscape="http://www.inkscape.org/namespaces/inkscape"
   width="340"
   height="40"
   id="svg2523"
   sodipodi:version="0.32"
   inkscape:version="0.45"
   version="1.0"
   sodipodi:docbase="/home/pippo/svn/gnome-mastermind/themes"
   sodipodi:docname="simple.svg"
   inkscape:output_extension="org.inkscape.output.svg.inkscape"
   sodipodi:modified="true">
  <defs
     id="defs2525">
    <linearGradient
       id="linearGradient3303">
      <stop
         style="stop-color:#ff6b6b;stop-opacity:1;"
         offset="0"
         id="stop3305" />
      <stop
         style="stop-color:#ff0000;stop-opacity:1;"
         offset="1"
         id="stop3307" />
    </linearGradient>
    <linearGradient
       id="linearGradient24534">
      <stop
         style="stop-color:#ffffff;stop-opacity:1;"
         offset="0"
         id="stop24536" />
      <stop
         style="stop-color:#e3dedb;stop-opacity:0;"
         offset="1"
         id="stop24538" />
    </linearGradient>
    <linearGradient
       id="linearGradient5134">
      <stop
         style="stop-color:#ffffff;stop-opacity:1;"
         offset="0"
         id="stop5136" />
      <stop
         style="stop-color:#eeeeec;stop-opacity:0;"
         offset="1"
         id="stop5138" />
    </linearGradient>
    <linearGradient
       inkscape:collect="always"
       xlink:href="#linearGradient5134"
       id="linearGradient5519"
       gradientUnits="userSpaceOnUse"
       gradientTransform="matrix(1.2360489,0,0,1.2360489,296.69149,-11.748846)"
       x1="29.839071"
       y1="13.407934"
       x2="27.008896"
       y2="16.774937" />
    <linearGradient
       id="linearGradient4326">
      <stop
         style="stop-color:#ffffff;stop-opacity:1;"
         offset="0"
         id="stop4328" />
      <stop
         style="stop-color:#b8b8b8;stop-opacity:1;"
         offset="1"
         id="stop4330" />
    </linearGradient>
    <linearGradient
       id="linearGradient4315">
      <stop
         id="stop4317"
         offset="0"
         style="stop-color:#8c8c8c;stop-opacity:1;" />
      <stop
         id="stop4319"
         offset="1"
         style="stop-color:#eeeeec;stop-opacity:0;" />
    </linearGradient>
    <linearGradient
       inkscape:collect="always"
       xlink:href="#linearGradient4315"
       id="linearGradient5523"
       gradientUnits="userSpaceOnUse"
       gradientTransform="matrix(1.2360489,0,0,1.2360489,296.73315,8.250801)"
       x1="29.839071"
       y1="13.407934"
       x2="27.008896"
       y2="16.774937" />
    <linearGradient
       id="linearGradient13564">
      <stop
         style="stop-color:#ffffff;stop-opacity:1;"
         offset="0"
         id="stop13566" />
      <stop
         id="stop14820"
         offset="0.5"
         style="stop-color:#ffffff;stop-opacity:0.49803922;" />
      <stop
         style="stop-color:#ffffff;stop-opacity:0;"
         offset="1"
         id="stop13568" />
    </linearGradient>
    <linearGradient
       id="linearGradient13556">
      <stop
         style="stop-color:#8c28ab;stop-opacity:1;"
         offset="0"
         id="stop13558" />
      <stop
         style="stop-color:#8c28ab;stop-opacity:0;"
         offset="1"
         id="stop13560" />
    </linearGradient>
    <linearGradient
       id="linearGradient6102">
      <stop
         style="stop-color:#000000;stop-opacity:1;"
         offset="0"
         id="stop6104" />
      <stop
         style="stop-color:#000000;stop-opacity:0;"
         offset="1"
         id="stop6106" />
    </linearGradient>
    <linearGradient
       id="linearGradient5106">
      <stop
         style="stop-color:#000000;stop-opacity:1;"
         offset="0"
         id="stop5108" />
      <stop
         style="stop-color:#000000;stop-opacity:0;"
         offset="1"
         id="stop5110" />
    </linearGradient>
    <linearGradient
       id="linearGradient4127">
      <stop
         style="stop-color:#ffffff;stop-opacity:1;"
         offset="0"
         id="stop4129" />
      <stop
         style="stop-color:#ffffff;stop-opacity:0;"
         offset="1"
         id="stop4131" />
    </linearGradient>
    <linearGradient
       inkscape:collect="always"
       xlink:href="#linearGradient4127"
       id="linearGradient4133"
       x1="10"
       y1="14.711454"
       x2="27.979185"
       y2="14.711454"
       gradientUnits="userSpaceOnUse"
       gradientTransform="matrix(1.4713996,0,0,1.4678867,-8.1180585,-7.3577373)" />
    <linearGradient
       inkscape:collect="always"
       xlink:href="#linearGradient6102"
       id="linearGradient6108"
       x1="4.5"
       y1="20.035715"
       x2="35.5"
       y2="20.035715"
       gradientUnits="userSpaceOnUse" />
    <linearGradient
       inkscape:collect="always"
       xlink:href="#linearGradient6102"
       id="linearGradient12189"
       gradientUnits="userSpaceOnUse"
       x1="3.7418327"
       y1="23.087822"
       x2="33.555206"
       y2="13.44334" />
    <linearGradient
       inkscape:collect="always"
       xlink:href="#linearGradient13564"
       id="linearGradient14553"
       x1="20"
       y1="29.290297"
       x2="20"
       y2="5.0714293"
       gradientUnits="userSpaceOnUse" />
    <linearGradient
       inkscape:collect="always"
       xlink:href="#linearGradient6102"
       id="linearGradient2272"
       gradientUnits="userSpaceOnUse"
       x1="3.7418327"
       y1="23.087822"
       x2="33.555206"
       y2="13.44334" />
    <linearGradient
       inkscape:collect="always"
       xlink:href="#linearGradient6102"
       id="linearGradient5675"
       gradientUnits="userSpaceOnUse"
       x1="3.7418327"
       y1="23.087822"
       x2="33.555206"
       y2="13.44334" />
    <linearGradient
       inkscape:collect="always"
       xlink:href="#linearGradient6102"
       id="linearGradient5687"
       gradientUnits="userSpaceOnUse"
       x1="3.7418327"
       y1="23.087822"
       x2="33.555206"
       y2="13.44334" />
    <linearGradient
       inkscape:collect="always"
       xlink:href="#linearGradient6102"
       id="linearGradient5701"
       gradientUnits="userSpaceOnUse"
       x1="3.7418327"
       y1="23.087822"
       x2="33.555206"
       y2="13.44334" />
    <linearGradient
       inkscape:collect="always"
       xlink:href="#linearGradient6102"
       id="linearGradient5715"
       gradientUnits="userSpaceOnUse"
       x1="3.7418327"
       y1="23.087822"
       x2="33.555206"
       y2="13.44334" />
    <linearGradient
       inkscape:collect="always"
       xlink:href="#linearGradient6102"
       id="linearGradient5729"
       gradientUnits="userSpaceOnUse"
       x1="3.7418327"
       y1="23.087822"
       x2="33.555206"
       y2="13.44334" />
    <linearGradient
       inkscape:collect="always"
       xlink:href="#linearGradient6102"
       id="linearGradient5743"
       gradientUnits="userSpaceOnUse"
       x1="3.7418327"
       y1="23.087822"
       x2="33.555206"
       y2="13.44334" />
    <linearGradient
       inkscape:collect="always"
       xlink:href="#linearGradient6102"
       id="linearGradient5757"
       gradientUnits="userSpaceOnUse"
       x1="3.7418327"
       y1="23.087822"
       x2="33.555206"
       y2="13.44334" />
    <linearGradient
       inkscape:collect="always"
       xlink:href="#linearGradient6102"
       id="linearGradient5771"
       gradientUnits="userSpaceOnUse"
       x1="3.7418327"
       y1="23.087822"
       x2="33.555206"
       y2="13.44334" />
    <radialGradient
       inkscape:collect="always"
       xlink:href="#linearGradient24534"
       id="radialGradient28556"
       gradientUnits="userSpaceOnUse"
       gradientTransform="matrix(4.2378495,-5.7128366e-2,2.4805504e-2,1.8890786,-56.646623,22.536375)"
       cx="15.556296"
       cy="-9.3991909"
       fx="15.556296"
       fy="-9.3991909"
       r="14.192338" />
    <radialGradient
       inkscape:collect="always"
       xlink:href="#linearGradient24534"
       id="radialGradient28624"
       gradientUnits="userSpaceOnUse"
       gradientTransform="matrix(4.2382309,-5.6775172e-3,2.031086e-3,2.1609688,-16.879384,24.503038)"
       cx="15.600896"
       cy="-9.1416578"
       fx="15.600896"
       fy="-9.1416578"
       r="14.192338" />
    <radialGradient
       inkscape:collect="always"
       xlink:href="#linearGradient24534"
       id="radialGradient28628"
       gradientUnits="userSpaceOnUse"
       gradientTransform="matrix(4.2382309,-5.6775172e-3,2.031086e-3,2.1609688,23.120616,24.503038)"
       cx="15.600896"
       cy="-9.1416578"
       fx="15.600896"
       fy="-9.1416578"
       r="14.192338" />
    <radialGradient
       inkscape:collect="always"
       xlink:href="#linearGradient24534"
       id="radialGradient28632"
       gradientUnits="userSpaceOnUse"
       gradientTransform="matrix(4.2382309,-5.6775172e-3,2.031086e-3,2.1609688,63.120616,24.503038)"
       cx="15.600896"
       cy="-9.1416578"
       fx="15.600896"
       fy="-9.1416578"
       r="14.192338" />
    <radialGradient
       inkscape:collect="always"
       xlink:href="#linearGradient24534"
       id="radialGradient28636"
       gradientUnits="userSpaceOnUse"
       gradientTransform="matrix(4.2382309,-5.6775172e-3,2.031086e-3,2.1609688,103.12062,24.503038)"
       cx="15.600896"
       cy="-9.1416578"
       fx="15.600896"
       fy="-9.1416578"
       r="14.192338" />
    <radialGradient
       inkscape:collect="always"
       xlink:href="#linearGradient24534"
       id="radialGradient28640"
       gradientUnits="userSpaceOnUse"
       gradientTransform="matrix(4.2382309,-5.6775172e-3,2.031086e-3,2.1609688,143.12062,24.503038)"
       cx="15.600896"
       cy="-9.1416578"
       fx="15.600896"
       fy="-9.1416578"
       r="14.192338" />
    <radialGradient
       inkscape:collect="always"
       xlink:href="#linearGradient24534"
       id="radialGradient28644"
       gradientUnits="userSpaceOnUse"
       gradientTransform="matrix(4.2382309,-5.6775172e-3,2.031086e-3,2.1609688,183.12062,24.503038)"
       cx="15.600896"
       cy="-9.1416578"
       fx="15.600896"
       fy="-9.1416578"
       r="14.192338" />
    <radialGradient
       inkscape:collect="always"
       xlink:href="#linearGradient24534"
       id="radialGradient28648"
       gradientUnits="userSpaceOnUse"
       gradientTransform="matrix(4.2382309,-5.6775172e-3,2.031086e-3,2.1609688,223.12062,24.503038)"
       cx="15.600896"
       cy="-9.1416578"
       fx="15.600896"
       fy="-9.1416578"
       r="14.192338" />
    <radialGradient
       inkscape:collect="always"
       xlink:href="#linearGradient24534"
       id="radialGradient40280"
       gradientUnits="userSpaceOnUse"
       gradientTransform="matrix(4.2378495,-5.7128366e-2,2.4805504e-2,1.8890786,-16.646623,22.536375)"
       cx="15.556296"
       cy="-9.3991909"
       fx="15.556296"
       fy="-9.3991909"
       r="14.192338" />
    <radialGradient
       inkscape:collect="always"
       xlink:href="#linearGradient24534"
       id="radialGradient40284"
       gradientUnits="userSpaceOnUse"
       gradientTransform="matrix(4.2378495,-5.7128366e-2,2.4805504e-2,1.8890786,23.353377,22.536375)"
       cx="15.556296"
       cy="-9.3991909"
       fx="15.556296"
       fy="-9.3991909"
       r="14.192338" />
    <radialGradient
       inkscape:collect="always"
       xlink:href="#linearGradient24534"
       id="radialGradient40288"
       gradientUnits="userSpaceOnUse"
       gradientTransform="matrix(5.576878,-9.3095603e-2,5.6900643e-2,3.5974069,42.824719,39.152796)"
       cx="15.364982"
       cy="-8.2227354"
       fx="15.364982"
       fy="-8.2227354"
       r="14.192338" />
    <radialGradient
       inkscape:collect="always"
       xlink:href="#linearGradient24534"
       id="radialGradient40292"
       gradientUnits="userSpaceOnUse"
       gradientTransform="matrix(4.2378495,-5.7128366e-2,2.4805504e-2,1.8890786,103.35338,22.536375)"
       cx="15.556296"
       cy="-9.3991909"
       fx="15.556296"
       fy="-9.3991909"
       r="14.192338" />
    <radialGradient
       inkscape:collect="always"
       xlink:href="#linearGradient24534"
       id="radialGradient40296"
       gradientUnits="userSpaceOnUse"
       gradientTransform="matrix(4.2378495,-5.7128366e-2,2.4805504e-2,1.8890786,143.35338,22.536375)"
       cx="15.556296"
       cy="-9.3991909"
       fx="15.556296"
       fy="-9.3991909"
       r="14.192338" />
    <radialGradient
       inkscape:collect="always"
       xlink:href="#linearGradient24534"
       id="radialGradient40300"
       gradientUnits="userSpaceOnUse"
       gradientTransform="matrix(4.2378495,-5.7128366e-2,2.4805504e-2,1.8890786,183.35338,22.536375)"
       cx="15.556296"
       cy="-9.3991909"
       fx="15.556296"
       fy="-9.3991909"
       r="14.192338" />
    <radialGradient
       inkscape:collect="always"
       xlink:href="#linearGradient24534"
       id="radialGradient40304"
       gradientUnits="userSpaceOnUse"
       gradientTransform="matrix(4.2378495,-5.7128366e-2,2.4805504e-2,1.8890786,223.35338,22.536375)"
       cx="15.556296"
       cy="-9.3991909"
       fx="15.556296"
       fy="-9.3991909"
       r="14.192338" />
    <radialGradient
       inkscape:collect="always"
       xlink:href="#linearGradient24534"
       id="radialGradient40308"
       gradientUnits="userSpaceOnUse"
       gradientTransform="matrix(1.6368152,-2.6549093e-2,2.27926e-2,1.3383728,300.47395,16.734061)"
       cx="15.556296"
       cy="-9.3991909"
       fx="15.556296"
       fy="-9.3991909"
       r="14.192338" />
    <radialGradient
       inkscape:collect="always"
       xlink:href="#linearGradient24534"
       id="radialGradient40312"
       gradientUnits="userSpaceOnUse"
       gradientTransform="matrix(1.6368898,-2.1430005e-2,9.5812458e-3,0.7086316,300.34861,30.735369)"
       cx="15.556296"
       cy="-9.3991909"
       fx="15.556296"
       fy="-9.3991909"
       r="14.192338" />
    <radialGradient
       inkscape:collect="always"
       xlink:href="#linearGradient24534"
       id="radialGradient41296"
       gradientUnits="userSpaceOnUse"
       gradientTransform="matrix(1.8878611,-2.6432869e-2,2.2877736e-2,1.5189278,296.93488,37.034405)"
       cx="15.654434"
       cy="-6.1743584"
       fx="15.654434"
       fy="-6.1743584"
       r="14.192338" />
    <radialGradient
       inkscape:collect="always"
       xlink:href="#linearGradient4326"
       id="radialGradient3301"
       cx="327.24518"
       cy="6.5072808"
       fx="327.24518"
       fy="6.5072808"
       r="5.6198349"
       gradientUnits="userSpaceOnUse"
       gradientTransform="matrix(1.4459711,7.6519228e-3,-7.5185401e-3,1.4207683,-145.89292,-5.2421128)" />
    <radialGradient
       inkscape:collect="always"
       xlink:href="#linearGradient3303"
       id="radialGradient3309"
       cx="328.03226"
       cy="8.2782373"
       fx="328.03226"
       fy="8.2782373"
       r="5.6198349"
       gradientUnits="userSpaceOnUse"
       gradientTransform="matrix(1.1686005,-8.9516411e-3,6.1015077e-3,0.7965271,-55.356939,4.6208244)" />
  </defs>
  <sodipodi:namedview
     id="base"
     pagecolor="#ffffff"
     bordercolor="#666666"
     borderopacity="1.0"
     inkscape:pageopacity="0.0"
     inkscape:pageshadow="2"
     inkscape:zoom="32"
     inkscape:cx="326.86467"
     inkscape:cy="33.610609"
     inkscape:current-layer="layer1"
     showgrid="false"
     inkscape:grid-bbox="true"
     inkscape:document-units="px"
     width="340px"
     height="40px"
     inkscape:window-width="1280"
     inkscape:window-height="729"
     inkscape:window-x="0"
     inkscape:window-y="25"
     inkscape:guide-bbox="true"
     inkscape:grid-points="true"
     inkscape:object-bbox="true"
     showguides="false"
     inkscape:object-paths="false"
     gridspacingx="0.5px"
     gridspacingy="0.5px"
     gridempspacing="2"
     inkscape:object-points="false">
    <sodipodi:guide
       orientation="horizontal"
       position="20"
       id="guide4434" />
  </sodipodi:namedview>
  <metadata
     id="metadata2528">
    <rdf:RDF>
      <cc:Work
         rdf:about="">
        <dc:format>image/svg+xml</dc:format>
        <dc:type
           rdf:resource="http://purl.org/dc/dcmitype/StillImage" />
        <dc:title>Simple tileset for GNOME Mastermind</dc:title>
        <dc:date>14 May 2007</dc:date>
        <dc:creator>
          <cc:Agent>
            <dc:title>Filippo Argiolas &lt;filippo.argiolas@gmail.com&gt;</dc:title>
          </cc:Agent>
        </dc:creator>
        <cc:license
           rdf:resource="http://creativecommons.org/licenses/GPL/2.0/" />
      </cc:Work>
      <cc:License
         rdf:about="http://creativecommons.org/licenses/GPL/2.0/">
        <cc:permits
           rdf:resource="http://web.resource.org/cc/Reproduction" />
        <cc:permits
           rdf:resource="http://web.resource.org/cc/Distribution" />
        <cc:requires
           rdf:resource="http://web.resource.org/cc/Notice" />
        <cc:permits
           rdf:resource="http://web.resource.org/cc/DerivativeWorks" />
        <cc:requires
           rdf:resource="http://web.resource.org/cc/ShareAlike" />
        <cc:requires
           rdf:resource="http://web.resource.org/cc/SourceCode" />
      </cc:License>
    </rdf:RDF>
  </metadata>
  <g
     id="layer1"
     inkscape:label="Layer 1"
     inkscape:groupmode="layer">
    <path
       sodipodi:type="arc"
       style="opacity:0.2;fill:none;fill-opacity:1;stroke:url(#linearGradient5675);stroke-width:2.30114675;stroke-miterlimit:4;stroke-dasharray:none;stroke-opacity:1"
       id="path3245"
       sodipodi:cx="20"
       sodipodi:cy="20.035715"
       sodipodi:rx="15.303802"
       sodipodi:ry="15.303802"
       d="M 35.303802 20.035715 A 15.303802 15.303802 0 1 1  4.6961985,20.035715 A 15.303802 15.303802 0 1 1  35.303802 20.035715 z"
       transform="matrix(-0.2618524,-1.0310846,1.0332476,-0.2613043,4.5351935,45.857111)" />
    <path
       sodipodi:type="arc"
       style="opacity:1;fill:#8c28ab;fill-opacity:1;stroke:#580075;stroke-width:1.44175315;stroke-miterlimit:4;stroke-dasharray:none;stroke-opacity:1"
       id="path2531"
       sodipodi:cx="20"
       sodipodi:cy="20.035715"
       sodipodi:rx="15"
       sodipodi:ry="14.964286"
       d="M 35 20.035715 A 15 14.964286 0 1 1  5,20.035715 A 15 14.964286 0 1 1  35 20.035715 z"
       transform="matrix(1.009499,0,0,1.009499,-0.193598,-0.1984603)" />
    <path
       sodipodi:type="arc"
       style="opacity:1;fill:none;fill-opacity:1;stroke:#aa87de;stroke-width:1.32692444;stroke-miterlimit:4;stroke-dasharray:none;stroke-opacity:1"
       id="path4076"
       sodipodi:cx="20"
       sodipodi:cy="20.035715"
       sodipodi:rx="15"
       sodipodi:ry="14.964286"
       d="M 35 20.035715 A 15 14.964286 0 1 1  5,20.035715 A 15 14.964286 0 1 1  35 20.035715 z"
       transform="matrix(0.9140488,0,0,0.9140488,1.7519388,1.6749624)" />
    <path
       style="opacity:0.65;fill:url(#radialGradient28556);fill-opacity:1;stroke:none;stroke-width:1;stroke-miterlimit:4;stroke-opacity:1"
       d="M 33.711834,15.899058 C 28.154742,15.037913 27.906837,14.484538 19.134955,17.946896 C 10.405532,21.392495 5.8537309,22.213568 5.6906408,20.409407 C 4.996184,12.682886 12.558727,5.6433677 19.869108,5.6433677 C 27.179489,5.6433677 32.374895,11.131371 33.711834,15.899058 z "
       id="path12585"
       sodipodi:nodetypes="csssc" />
    <path
       sodipodi:type="arc"
       style="opacity:1;fill:#ffffff;fill-opacity:1;fill-rule:nonzero;stroke:none;stroke-width:1.23966944;stroke-miterlimit:4;stroke-dasharray:none;stroke-opacity:1"
       id="path4490"
       sodipodi:cx="330"
       sodipodi:cy="10"
       sodipodi:rx="5"
       sodipodi:ry="5"
       d="M 335 10 A 5 5 0 1 1  325,10 A 5 5 0 1 1  335 10 z"
       transform="matrix(1.2705,0,0,1.2705,-89.265,17.294771)" />
    <path
       style="opacity:0.1;fill:#000000;fill-opacity:1;fill-rule:nonzero;stroke:none;stroke-width:2;stroke-miterlimit:4;stroke-opacity:1"
       d="M 336.62216,10.624088 C 336.62216,14.394139 333.5624,17.453893 329.79235,17.453893 C 326.0223,17.453893 322.96255,14.394139 322.96255,10.624088 C 322.96255,6.854036 326.0223,3.794284 329.79235,3.794284 C 333.5624,3.794284 336.62216,6.854036 336.62216,10.624088 z "
       id="path4293" />
    <path
       style="opacity:0.1;fill:#000000;fill-opacity:1;fill-rule:nonzero;stroke:none;stroke-width:2;stroke-miterlimit:4;stroke-opacity:1"
       d="M 336.71503,11.114548 C 336.71503,14.884599 333.65528,17.944353 329.88523,17.944353 C 326.11518,17.944353 323.05542,14.884599 323.05542,11.114548 C 323.05542,7.344496 326.11518,4.284744 329.88523,4.284744 C 333.65528,4.284744 336.71503,7.344496 336.71503,11.114548 z "
       id="path5305" />
    <path
       sodipodi:type="arc"
       style="opacity:1;fill:url(#radialGradient3309);fill-opacity:1.0;fill-rule:nonzero;stroke:#000000;stroke-width:1.23966944;stroke-miterlimit:4;stroke-dasharray:none;stroke-opacity:1"
       id="path3253"
       sodipodi:cx="330"
       sodipodi:cy="10"
       sodipodi:rx="5"
       sodipodi:ry="5"
       d="M 335 10 A 5 5 0 1 1  325,10 A 5 5 0 1 1  335 10 z"
       transform="matrix(1.2705,0,0,1.2705,-89.265,-2.705229)" />
    <path
       style="opacity:0.1;fill:#000000;fill-opacity:1;fill-rule:nonzero;stroke:none;stroke-width:2;stroke-miterlimit:4;stroke-opacity:1"
       d="M 336.66382,30.623735 C 336.66382,34.393786 333.60406,37.45354 329.83401,37.45354 C 326.06396,37.45354 323.0042,34.393786 323.0042,30.623735 C 323.0042,26.853682 326.06396,23.793931 329.83401,23.793931 C 333.60406,23.793931 336.66382,26.853682 336.66382,30.623735 z "
       id="path4305" />
    <path
       style="opacity:0.1;fill:#000000;fill-opacity:1;fill-rule:nonzero;stroke:none;stroke-width:2;stroke-miterlimit:4;stroke-opacity:1"
       d="M 336.7567,31.114195 C 336.7567,34.884246 333.69694,37.944 329.92689,37.944 C 326.15684,37.944 323.09709,34.884246 323.09709,31.114195 C 323.09709,27.344144 326.15684,24.284391 329.92689,24.284391 C 333.69694,24.284391 336.7567,27.344144 336.7567,31.114195 z "
       id="path4307" />
    <path
       sodipodi:type="arc"
       style="opacity:1;fill:url(#radialGradient3301);fill-opacity:1.0;fill-rule:nonzero;stroke:#000000;stroke-width:1.23966944;stroke-miterlimit:4;stroke-dasharray:none;stroke-opacity:1"
       id="path4309"
       sodipodi:cx="330"
       sodipodi:cy="10"
       sodipodi:rx="5"
       sodipodi:ry="5"
       d="M 335 10 A 5 5 0 1 1  325,10 A 5 5 0 1 1  335 10 z"
       transform="matrix(1.2705,0,0,1.2705,-89.223335,17.294418)" />
    <path
       sodipodi:type="arc"
       style="opacity:0.2;fill:none;fill-opacity:1;stroke:url(#linearGradient5687);stroke-width:2.30114675;stroke-miterlimit:4;stroke-dasharray:none;stroke-opacity:1"
       id="path5679"
       sodipodi:cx="20"
       sodipodi:cy="20.035715"
       sodipodi:rx="15.303802"
       sodipodi:ry="15.303802"
       d="M 35.303802 20.035715 A 15.303802 15.303802 0 1 1  4.6961985,20.035715 A 15.303802 15.303802 0 1 1  35.303802 20.035715 z"
       transform="matrix(-0.2618524,-1.0310846,1.0332476,-0.2613043,44.535193,45.857111)" />
    <path
       sodipodi:type="arc"
       style="opacity:1;fill:#ff9f19;fill-opacity:1;stroke:#df7223;stroke-width:1.44175315;stroke-miterlimit:4;stroke-dasharray:none;stroke-opacity:1"
       id="path5681"
       sodipodi:cx="20"
       sodipodi:cy="20.035715"
       sodipodi:rx="15"
       sodipodi:ry="14.964286"
       d="M 35 20.035715 A 15 14.964286 0 1 1  5,20.035715 A 15 14.964286 0 1 1  35 20.035715 z"
       transform="matrix(1.009499,0,0,1.009499,39.806402,-0.1984603)" />
    <path
       sodipodi:type="arc"
       style="opacity:1;fill:none;fill-opacity:1;stroke:#fcca6d;stroke-width:1.32692444;stroke-miterlimit:4;stroke-dasharray:none;stroke-opacity:1"
       id="path5683"
       sodipodi:cx="20"
       sodipodi:cy="20.035715"
       sodipodi:rx="15"
       sodipodi:ry="14.964286"
       d="M 35 20.035715 A 15 14.964286 0 1 1  5,20.035715 A 15 14.964286 0 1 1  35 20.035715 z"
       transform="matrix(0.9140488,0,0,0.9140488,41.751939,1.6749624)" />
    <path
       sodipodi:type="arc"
       style="opacity:0.2;fill:none;fill-opacity:1;stroke:url(#linearGradient5701);stroke-width:2.30114675;stroke-miterlimit:4;stroke-dasharray:none;stroke-opacity:1"
       id="path5693"
       sodipodi:cx="20"
       sodipodi:cy="20.035715"
       sodipodi:rx="15.303802"
       sodipodi:ry="15.303802"
       d="M 35.303802 20.035715 A 15.303802 15.303802 0 1 1  4.6961985,20.035715 A 15.303802 15.303802 0 1 1  35.303802 20.035715 z"
       transform="matrix(-0.2618524,-1.0310846,1.0332476,-0.2613043,84.535194,45.857111)" />
    <path
       sodipodi:type="arc"
       style="opacity:1;fill:#3464be;fill-opacity:1;stroke:#0744a3;stroke-width:1.44175315;stroke-miterlimit:4;stroke-dasharray:none;stroke-opacity:1"
       id="path5695"
       sodipodi:cx="20"
       sodipodi:cy="20.035715"
       sodipodi:rx="15"
       sodipodi:ry="14.964286"
       d="M 35 20.035715 A 15 14.964286 0 1 1  5,20.035715 A 15 14.964286 0 1 1  35 20.035715 z"
       transform="matrix(1.009499,0,0,1.009499,79.806402,-0.1984603)" />
    <path
       sodipodi:type="arc"
       style="opacity:1;fill:none;fill-opacity:1;stroke:#8ab3ff;stroke-width:1.32692444;stroke-miterlimit:4;stroke-dasharray:none;stroke-opacity:1"
       id="path5697"
       sodipodi:cx="20"
       sodipodi:cy="20.035715"
       sodipodi:rx="15"
       sodipodi:ry="14.964286"
       d="M 35 20.035715 A 15 14.964286 0 1 1  5,20.035715 A 15 14.964286 0 1 1  35 20.035715 z"
       transform="matrix(0.9140488,0,0,0.9140488,81.751939,1.6749624)" />
    <path
       sodipodi:type="arc"
       style="opacity:0.2;fill:none;fill-opacity:1;stroke:url(#linearGradient5715);stroke-width:2.30114675;stroke-miterlimit:4;stroke-dasharray:none;stroke-opacity:1"
       id="path5707"
       sodipodi:cx="20"
       sodipodi:cy="20.035715"
       sodipodi:rx="15.303802"
       sodipodi:ry="15.303802"
       d="M 35.303802 20.035715 A 15.303802 15.303802 0 1 1  4.6961985,20.035715 A 15.303802 15.303802 0 1 1  35.303802 20.035715 z"
       transform="matrix(-0.2618524,-1.0310846,1.0332476,-0.2613043,124.53519,45.857111)" />
    <path
       sodipodi:type="arc"
       style="opacity:1;fill:#feed16;fill-opacity:1;stroke:#ffb616;stroke-width:1.44175315;stroke-miterlimit:4;stroke-dasharray:none;stroke-opacity:1"
       id="path5709"
       sodipodi:cx="20"
       sodipodi:cy="20.035715"
       sodipodi:rx="15"
       sodipodi:ry="14.964286"
       d="M 35 20.035715 A 15 14.964286 0 1 1  5,20.035715 A 15 14.964286 0 1 1  35 20.035715 z"
       transform="matrix(1.009499,0,0,1.009499,119.8064,-0.1984603)" />
    <path
       sodipodi:type="arc"
       style="opacity:1;fill:none;fill-opacity:1;stroke:#f2ff60;stroke-width:1.32692444;stroke-miterlimit:4;stroke-dasharray:none;stroke-opacity:1"
       id="path5711"
       sodipodi:cx="20"
       sodipodi:cy="20.035715"
       sodipodi:rx="15"
       sodipodi:ry="14.964286"
       d="M 35 20.035715 A 15 14.964286 0 1 1  5,20.035715 A 15 14.964286 0 1 1  35 20.035715 z"
       transform="matrix(0.9140488,0,0,0.9140488,121.75194,1.6749624)" />
    <path
       sodipodi:type="arc"
       style="opacity:0.2;fill:none;fill-opacity:1;stroke:url(#linearGradient5729);stroke-width:2.30114675;stroke-miterlimit:4;stroke-dasharray:none;stroke-opacity:1"
       id="path5721"
       sodipodi:cx="20"
       sodipodi:cy="20.035715"
       sodipodi:rx="15.303802"
       sodipodi:ry="15.303802"
       d="M 35.303802 20.035715 A 15.303802 15.303802 0 1 1  4.6961985,20.035715 A 15.303802 15.303802 0 1 1  35.303802 20.035715 z"
       transform="matrix(-0.2618524,-1.0310846,1.0332476,-0.2613043,164.53519,45.857111)" />
    <path
       sodipodi:type="arc"
       style="opacity:1;fill:#ec2424;fill-opacity:1;stroke:#cc0000;stroke-width:1.44175315;stroke-miterlimit:4;stroke-dasharray:none;stroke-opacity:1"
       id="path5723"
       sodipodi:cx="20"
       sodipodi:cy="20.035715"
       sodipodi:rx="15"
       sodipodi:ry="14.964286"
       d="M 35 20.035715 A 15 14.964286 0 1 1  5,20.035715 A 15 14.964286 0 1 1  35 20.035715 z"
       transform="matrix(1.009499,0,0,1.009499,159.8064,-0.1984603)" />
    <path
       sodipodi:type="arc"
       style="opacity:1;fill:none;fill-opacity:1;stroke:#f77d7d;stroke-width:1.32692444;stroke-miterlimit:4;stroke-dasharray:none;stroke-opacity:1"
       id="path5725"
       sodipodi:cx="20"
       sodipodi:cy="20.035715"
       sodipodi:rx="15"
       sodipodi:ry="14.964286"
       d="M 35 20.035715 A 15 14.964286 0 1 1  5,20.035715 A 15 14.964286 0 1 1  35 20.035715 z"
       transform="matrix(0.9140488,0,0,0.9140488,161.75194,1.6749624)" />
    <path
       sodipodi:type="arc"
       style="opacity:0.2;fill:none;fill-opacity:1;stroke:url(#linearGradient5743);stroke-width:2.30114675;stroke-miterlimit:4;stroke-dasharray:none;stroke-opacity:1"
       id="path5735"
       sodipodi:cx="20"
       sodipodi:cy="20.035715"
       sodipodi:rx="15.303802"
       sodipodi:ry="15.303802"
       d="M 35.303802 20.035715 A 15.303802 15.303802 0 1 1  4.6961985,20.035715 A 15.303802 15.303802 0 1 1  35.303802 20.035715 z"
       transform="matrix(-0.2618524,-1.0310846,1.0332476,-0.2613043,204.53519,45.857111)" />
    <path
       sodipodi:type="arc"
       style="opacity:1;fill:#ad6638;fill-opacity:1;stroke:#9c5b30;stroke-width:1.44175315;stroke-miterlimit:4;stroke-dasharray:none;stroke-opacity:1"
       id="path5737"
       sodipodi:cx="20"
       sodipodi:cy="20.035715"
       sodipodi:rx="15"
       sodipodi:ry="14.964286"
       d="M 35 20.035715 A 15 14.964286 0 1 1  5,20.035715 A 15 14.964286 0 1 1  35 20.035715 z"
       transform="matrix(1.009499,0,0,1.009499,199.8064,-0.1984603)" />
    <path
       sodipodi:type="arc"
       style="opacity:1;fill:none;fill-opacity:1;stroke:#d5a369;stroke-width:1.32692444;stroke-miterlimit:4;stroke-dasharray:none;stroke-opacity:1"
       id="path5739"
       sodipodi:cx="20"
       sodipodi:cy="20.035715"
       sodipodi:rx="15"
       sodipodi:ry="14.964286"
       d="M 35 20.035715 A 15 14.964286 0 1 1  5,20.035715 A 15 14.964286 0 1 1  35 20.035715 z"
       transform="matrix(0.9140488,0,0,0.9140488,201.75194,1.6749624)" />
    <path
       sodipodi:type="arc"
       style="opacity:0.2;fill:none;fill-opacity:1;stroke:url(#linearGradient5757);stroke-width:2.30114675;stroke-miterlimit:4;stroke-dasharray:none;stroke-opacity:1"
       id="path5749"
       sodipodi:cx="20"
       sodipodi:cy="20.035715"
       sodipodi:rx="15.303802"
       sodipodi:ry="15.303802"
       d="M 35.303802 20.035715 A 15.303802 15.303802 0 1 1  4.6961985,20.035715 A 15.303802 15.303802 0 1 1  35.303802 20.035715 z"
       transform="matrix(-0.2618524,-1.0310846,1.0332476,-0.2613043,244.53519,45.857111)" />
    <path
       sodipodi:type="arc"
       style="opacity:1;fill:#94c010;fill-opacity:1;stroke:#749114;stroke-width:1.44175315;stroke-miterlimit:4;stroke-dasharray:none;stroke-opacity:1"
       id="path5751"
       sodipodi:cx="20"
       sodipodi:cy="20.035715"
       sodipodi:rx="15"
       sodipodi:ry="14.964286"
       d="M 35 20.035715 A 15 14.964286 0 1 1  5,20.035715 A 15 14.964286 0 1 1  35 20.035715 z"
       transform="matrix(1.009499,0,0,1.009499,239.8064,-0.1984603)" />
    <path
       sodipodi:type="arc"
       style="opacity:1;fill:none;fill-opacity:1;stroke:#cbef3b;stroke-width:1.32692444;stroke-miterlimit:4;stroke-dasharray:none;stroke-opacity:1"
       id="path5753"
       sodipodi:cx="20"
       sodipodi:cy="20.035715"
       sodipodi:rx="15"
       sodipodi:ry="14.964286"
       d="M 35 20.035715 A 15 14.964286 0 1 1  5,20.035715 A 15 14.964286 0 1 1  35 20.035715 z"
       transform="matrix(0.9140488,0,0,0.9140488,241.75194,1.6749624)" />
    <path
       sodipodi:type="arc"
       style="opacity:0.2;fill:none;fill-opacity:1;stroke:url(#linearGradient5771);stroke-width:2.30114675;stroke-miterlimit:4;stroke-dasharray:none;stroke-opacity:1"
       id="path5763"
       sodipodi:cx="20"
       sodipodi:cy="20.035715"
       sodipodi:rx="15.303802"
       sodipodi:ry="15.303802"
       d="M 35.303802 20.035715 A 15.303802 15.303802 0 1 1  4.6961985,20.035715 A 15.303802 15.303802 0 1 1  35.303802 20.035715 z"
       transform="matrix(-0.2618524,-1.0310846,1.0332476,-0.2613043,284.53519,45.857111)" />
    <path
       sodipodi:type="arc"
       style="opacity:1;fill:#d4256a;fill-opacity:1;stroke:#c52c6a;stroke-width:1.44175315;stroke-miterlimit:4;stroke-dasharray:none;stroke-opacity:1"
       id="path5765"
       sodipodi:cx="20"
       sodipodi:cy="20.035715"
       sodipodi:rx="15"
       sodipodi:ry="14.964286"
       d="M 35 20.035715 A 15 14.964286 0 1 1  5,20.035715 A 15 14.964286 0 1 1  35 20.035715 z"
       transform="matrix(1.009499,0,0,1.009499,279.8064,-0.1984603)" />
    <path
       sodipodi:type="arc"
       style="opacity:1;fill:none;fill-opacity:1;stroke:#ff94bd;stroke-width:1.32692444;stroke-miterlimit:4;stroke-dasharray:none;stroke-opacity:1"
       id="path5767"
       sodipodi:cx="20"
       sodipodi:cy="20.035715"
       sodipodi:rx="15"
       sodipodi:ry="14.964286"
       d="M 35 20.035715 A 15 14.964286 0 1 1  5,20.035715 A 15 14.964286 0 1 1  35 20.035715 z"
       transform="matrix(0.9140488,0,0,0.9140488,281.75194,1.6749624)" />
    <path
       style="opacity:0.65;fill:url(#radialGradient40280);fill-opacity:1;stroke:none;stroke-width:1;stroke-miterlimit:4;stroke-opacity:1"
       d="M 73.711834,15.899058 C 68.154742,15.037913 67.906837,14.484538 59.134955,17.946896 C 50.405532,21.392495 45.853731,22.213568 45.690641,20.409407 C 44.996184,12.682886 52.558727,5.6433677 59.869108,5.6433677 C 67.179489,5.6433677 72.374895,11.131371 73.711834,15.899058 z "
       id="path40278"
       sodipodi:nodetypes="csssc" />
    <path
       style="opacity:0.65;fill:url(#radialGradient40284);fill-opacity:1;stroke:none;stroke-width:1;stroke-miterlimit:4;stroke-opacity:1"
       d="M 113.71183,15.899058 C 108.15474,15.037913 107.90684,14.484538 99.134955,17.946896 C 90.405532,21.392495 85.853731,22.213568 85.690641,20.409407 C 84.996184,12.682886 92.558727,5.6433677 99.869108,5.6433677 C 107.17949,5.6433677 112.3749,11.131371 113.71183,15.899058 z "
       id="path40282"
       sodipodi:nodetypes="csssc" />
    <path
       style="opacity:0.65;fill:url(#radialGradient40288);fill-opacity:1;stroke:none;stroke-width:1;stroke-miterlimit:4;stroke-opacity:1"
       d="M 153.71183,15.899058 C 148.15474,15.037913 147.90684,14.484538 139.13495,17.946896 C 130.40553,21.392495 125.85373,22.213568 125.69064,20.409407 C 124.99618,12.682886 132.55873,5.6433677 139.86911,5.6433677 C 147.17949,5.6433677 152.3749,11.131371 153.71183,15.899058 z "
       id="path40286"
       sodipodi:nodetypes="csssc" />
    <path
       style="opacity:0.65;fill:url(#radialGradient40292);fill-opacity:1;stroke:none;stroke-width:1;stroke-miterlimit:4;stroke-opacity:1"
       d="M 193.71183,15.899058 C 188.15474,15.037913 187.90684,14.484538 179.13495,17.946896 C 170.40553,21.392495 165.85373,22.213568 165.69064,20.409407 C 164.99618,12.682886 172.55873,5.6433677 179.86911,5.6433677 C 187.17949,5.6433677 192.3749,11.131371 193.71183,15.899058 z "
       id="path40290"
       sodipodi:nodetypes="csssc" />
    <path
       style="opacity:0.65;fill:url(#radialGradient40296);fill-opacity:1;stroke:none;stroke-width:1;stroke-miterlimit:4;stroke-opacity:1"
       d="M 233.71183,15.899058 C 228.15474,15.037913 227.90684,14.484538 219.13495,17.946896 C 210.40553,21.392495 205.85373,22.213568 205.69064,20.409407 C 204.99618,12.682886 212.55873,5.6433677 219.86911,5.6433677 C 227.17949,5.6433677 232.3749,11.131371 233.71183,15.899058 z "
       id="path40294"
       sodipodi:nodetypes="csssc" />
    <path
       style="opacity:0.65;fill:url(#radialGradient40300);fill-opacity:1;stroke:none;stroke-width:1;stroke-miterlimit:4;stroke-opacity:1"
       d="M 273.71183,15.899058 C 268.15474,15.037913 267.90684,14.484538 259.13495,17.946896 C 250.40553,21.392495 245.85373,22.213568 245.69064,20.409407 C 244.99618,12.682886 252.55873,5.6433677 259.86911,5.6433677 C 267.17949,5.6433677 272.37489,11.131371 273.71183,15.899058 z "
       id="path40298"
       sodipodi:nodetypes="csssc" />
    <path
       style="opacity:0.65;fill:url(#radialGradient40304);fill-opacity:1;stroke:none;stroke-width:1;stroke-miterlimit:4;stroke-opacity:1"
       d="M 313.71183,15.899058 C 308.15474,15.037913 307.90684,14.484538 299.13495,17.946896 C 290.40553,21.392495 285.85373,22.213568 285.69064,20.409407 C 284.99618,12.682886 292.55873,5.6433677 299.86911,5.6433677 C 307.17949,5.6433677 312.37489,11.131371 313.71183,15.899058 z "
       id="path40302"
       sodipodi:nodetypes="csssc" />
    <path
       style="opacity:0.65;fill:url(#radialGradient40308);fill-opacity:1;stroke:none;stroke-width:1;stroke-miterlimit:4;stroke-opacity:1"
       d="M 335.25,8.2455772 C 333.10355,7.9225442 333.00778,7.7149623 329.61961,9.0137626 C 326.24784,10.306277 324.45294,10.616694 324.42669,9.9375 C 324.31469,7.039126 327.07952,4.3984603 329.90319,4.3984603 C 332.72686,4.3984603 334.73359,6.4571213 335.25,8.2455772 z "
       id="path40306"
       sodipodi:nodetypes="csssc" />
    <path
       style="opacity:1;fill:url(#radialGradient41296);fill-opacity:1;stroke:none;stroke-width:1;stroke-miterlimit:4;stroke-opacity:1"
       d="M 335.35156,28.323702 C 333.20511,28.000669 333.19528,27.777462 329.80711,29.076263 C 326.43534,30.368777 324.51858,30.678682 324.48138,30 C 324.3225,27.101626 327.26702,24.46096 330.09069,24.46096 C 332.91436,24.46096 334.83515,26.535246 335.35156,28.323702 z "
       id="path41294"
       sodipodi:nodetypes="csssc" />
  </g>
</svg>
