<?xml version="1.0" encoding="UTF-8" standalone="no"?>
<!-- Created with Inkscape (http://www.inkscape.org/) -->
<svg
   xmlns:dc="http://purl.org/dc/elements/1.1/"
   xmlns:cc="http://web.resource.org/cc/"
   xmlns:rdf="http://www.w3.org/1999/02/22-rdf-syntax-ns#"
   xmlns:svg="http://www.w3.org/2000/svg"
   xmlns="http://www.w3.org/2000/svg"
   xmlns:xlink="http://www.w3.org/1999/xlink"
   xmlns:sodipodi="http://sodipodi.sourceforge.net/DTD/sodipodi-0.dtd"
   xmlns:inkscape="http://www.inkscape.org/namespaces/inkscape"
   width="340"
   height="40"
   id="svg2523"
   sodipodi:version="0.32"
   inkscape:version="0.45"
   version="1.0"
   sodipodi:docbase="/home/pippo/svn/gnome-mastermind/themes"
   sodipodi:docname="simple2.svg"
   inkscape:output_extension="org.inkscape.output.svg.inkscape"
   sodipodi:modified="true">
  <defs
     id="defs2525">
    <linearGradient
       inkscape:collect="always"
       id="linearGradient15986">
      <stop
         style="stop-color:#ffffff;stop-opacity:1;"
         offset="0"
         id="stop15988" />
      <stop
         style="stop-color:#ffffff;stop-opacity:0;"
         offset="1"
         id="stop15990" />
    </linearGradient>
    <linearGradient
       id="linearGradient13564">
      <stop
         style="stop-color:#ffffff;stop-opacity:1;"
         offset="0"
         id="stop13566" />
      <stop
         id="stop14820"
         offset="0.5"
         style="stop-color:#ffffff;stop-opacity:0.49803922;" />
      <stop
         style="stop-color:#ffffff;stop-opacity:0;"
         offset="1"
         id="stop13568" />
    </linearGradient>
    <linearGradient
       id="linearGradient13556">
      <stop
         style="stop-color:#8c28ab;stop-opacity:1;"
         offset="0"
         id="stop13558" />
      <stop
         style="stop-color:#8c28ab;stop-opacity:0;"
         offset="1"
         id="stop13560" />
    </linearGradient>
    <linearGradient
       id="linearGradient6102">
      <stop
         style="stop-color:#000000;stop-opacity:1;"
         offset="0"
         id="stop6104" />
      <stop
         style="stop-color:#000000;stop-opacity:0;"
         offset="1"
         id="stop6106" />
    </linearGradient>
    <linearGradient
       id="linearGradient5106">
      <stop
         style="stop-color:#000000;stop-opacity:1;"
         offset="0"
         id="stop5108" />
      <stop
         style="stop-color:#000000;stop-opacity:0;"
         offset="1"
         id="stop5110" />
    </linearGradient>
    <linearGradient
       id="linearGradient4127">
      <stop
         style="stop-color:#ffffff;stop-opacity:1;"
         offset="0"
         id="stop4129" />
      <stop
         style="stop-color:#ffffff;stop-opacity:0;"
         offset="1"
         id="stop4131" />
    </linearGradient>
    <linearGradient
       inkscape:collect="always"
       xlink:href="#linearGradient4127"
       id="linearGradient4133"
       x1="10"
       y1="14.711454"
       x2="27.979185"
       y2="14.711454"
       gradientUnits="userSpaceOnUse"
       gradientTransform="matrix(1.4713996,0,0,1.4678867,-8.1180585,-7.3577373)" />
    <linearGradient
       inkscape:collect="always"
       xlink:href="#linearGradient6102"
       id="linearGradient6108"
       x1="4.5"
       y1="20.035715"
       x2="35.5"
       y2="20.035715"
       gradientUnits="userSpaceOnUse" />
    <linearGradient
       inkscape:collect="always"
       xlink:href="#linearGradient6102"
       id="linearGradient12189"
       gradientUnits="userSpaceOnUse"
       x1="5.5242991"
       y1="26.304611"
       x2="34.064911"
       y2="13.140471" />
    <linearGradient
       inkscape:collect="always"
       xlink:href="#linearGradient13564"
       id="linearGradient14553"
       x1="20"
       y1="29.290297"
       x2="20"
       y2="5.0714293"
       gradientUnits="userSpaceOnUse" />
    <linearGradient
       inkscape:collect="always"
       xlink:href="#linearGradient13564"
       id="linearGradient14854"
       gradientUnits="userSpaceOnUse"
       x1="26.350712"
       y1="29.116396"
       x2="12.897854"
       y2="10.14325"
       gradientTransform="matrix(0.9404855,0,0,0.9232432,5.0965206,7.0937883)" />
    <linearGradient
       inkscape:collect="always"
       xlink:href="#linearGradient15986"
       id="linearGradient15992"
       x1="15.324579"
       y1="14.987155"
       x2="24.873405"
       y2="35.663464"
       gradientUnits="userSpaceOnUse" />
    <linearGradient
       inkscape:collect="always"
       xlink:href="#linearGradient6102"
       id="linearGradient2253"
       gradientUnits="userSpaceOnUse"
       x1="5.5242991"
       y1="26.304611"
       x2="34.064911"
       y2="13.140471" />
    <linearGradient
       inkscape:collect="always"
       xlink:href="#linearGradient15986"
       id="linearGradient2255"
       gradientUnits="userSpaceOnUse"
       x1="15.324579"
       y1="14.987155"
       x2="24.873405"
       y2="35.663464" />
    <linearGradient
       inkscape:collect="always"
       xlink:href="#linearGradient13564"
       id="linearGradient2257"
       gradientUnits="userSpaceOnUse"
       gradientTransform="matrix(0.9404855,0,0,0.9232432,44.975955,6.7867185)"
       x1="26.350712"
       y1="29.116396"
       x2="12.897854"
       y2="10.14325" />
    <linearGradient
       inkscape:collect="always"
       xlink:href="#linearGradient6102"
       id="linearGradient2267"
       gradientUnits="userSpaceOnUse"
       x1="5.5242991"
       y1="26.304611"
       x2="34.064911"
       y2="13.140471" />
    <linearGradient
       inkscape:collect="always"
       xlink:href="#linearGradient15986"
       id="linearGradient2269"
       gradientUnits="userSpaceOnUse"
       x1="15.324579"
       y1="14.987155"
       x2="24.873405"
       y2="35.663464" />
    <linearGradient
       inkscape:collect="always"
       xlink:href="#linearGradient13564"
       id="linearGradient2271"
       gradientUnits="userSpaceOnUse"
       gradientTransform="matrix(0.9404855,0,0,0.9232432,84.975955,6.7867185)"
       x1="26.350712"
       y1="29.116396"
       x2="12.897854"
       y2="10.14325" />
    <linearGradient
       inkscape:collect="always"
       xlink:href="#linearGradient6102"
       id="linearGradient2281"
       gradientUnits="userSpaceOnUse"
       x1="5.5242991"
       y1="26.304611"
       x2="34.064911"
       y2="13.140471" />
    <linearGradient
       inkscape:collect="always"
       xlink:href="#linearGradient15986"
       id="linearGradient2283"
       gradientUnits="userSpaceOnUse"
       x1="15.324579"
       y1="14.987155"
       x2="24.873405"
       y2="35.663464" />
    <linearGradient
       inkscape:collect="always"
       xlink:href="#linearGradient13564"
       id="linearGradient2285"
       gradientUnits="userSpaceOnUse"
       gradientTransform="matrix(0.9404855,0,0,0.9232432,124.97596,6.7867185)"
       x1="26.350712"
       y1="29.116396"
       x2="12.897854"
       y2="10.14325" />
    <linearGradient
       inkscape:collect="always"
       xlink:href="#linearGradient6102"
       id="linearGradient2295"
       gradientUnits="userSpaceOnUse"
       x1="5.5242991"
       y1="26.304611"
       x2="34.064911"
       y2="13.140471" />
    <linearGradient
       inkscape:collect="always"
       xlink:href="#linearGradient15986"
       id="linearGradient2297"
       gradientUnits="userSpaceOnUse"
       x1="15.324579"
       y1="14.987155"
       x2="24.873405"
       y2="35.663464" />
    <linearGradient
       inkscape:collect="always"
       xlink:href="#linearGradient13564"
       id="linearGradient2299"
       gradientUnits="userSpaceOnUse"
       gradientTransform="matrix(0.9404855,0,0,0.9232432,164.97596,6.7867185)"
       x1="26.350712"
       y1="29.116396"
       x2="12.897854"
       y2="10.14325" />
    <linearGradient
       inkscape:collect="always"
       xlink:href="#linearGradient6102"
       id="linearGradient2309"
       gradientUnits="userSpaceOnUse"
       x1="5.5242991"
       y1="26.304611"
       x2="34.064911"
       y2="13.140471" />
    <linearGradient
       inkscape:collect="always"
       xlink:href="#linearGradient15986"
       id="linearGradient2311"
       gradientUnits="userSpaceOnUse"
       x1="15.324579"
       y1="14.987155"
       x2="24.873405"
       y2="35.663464" />
    <linearGradient
       inkscape:collect="always"
       xlink:href="#linearGradient13564"
       id="linearGradient2313"
       gradientUnits="userSpaceOnUse"
       gradientTransform="matrix(0.9404855,0,0,0.9232432,204.97596,6.7867185)"
       x1="26.350712"
       y1="29.116396"
       x2="12.897854"
       y2="10.14325" />
    <linearGradient
       inkscape:collect="always"
       xlink:href="#linearGradient6102"
       id="linearGradient2323"
       gradientUnits="userSpaceOnUse"
       x1="5.5242991"
       y1="26.304611"
       x2="34.064911"
       y2="13.140471" />
    <linearGradient
       inkscape:collect="always"
       xlink:href="#linearGradient15986"
       id="linearGradient2325"
       gradientUnits="userSpaceOnUse"
       x1="15.324579"
       y1="14.987155"
       x2="24.873405"
       y2="35.663464" />
    <linearGradient
       inkscape:collect="always"
       xlink:href="#linearGradient13564"
       id="linearGradient2327"
       gradientUnits="userSpaceOnUse"
       gradientTransform="matrix(0.9404855,0,0,0.9232432,244.97596,6.7867185)"
       x1="26.350712"
       y1="29.116396"
       x2="12.897854"
       y2="10.14325" />
    <linearGradient
       inkscape:collect="always"
       xlink:href="#linearGradient6102"
       id="linearGradient2337"
       gradientUnits="userSpaceOnUse"
       x1="5.5242991"
       y1="26.304611"
       x2="34.064911"
       y2="13.140471" />
    <linearGradient
       inkscape:collect="always"
       xlink:href="#linearGradient15986"
       id="linearGradient2339"
       gradientUnits="userSpaceOnUse"
       x1="15.324579"
       y1="14.987155"
       x2="24.873405"
       y2="35.663464" />
    <linearGradient
       inkscape:collect="always"
       xlink:href="#linearGradient13564"
       id="linearGradient2341"
       gradientUnits="userSpaceOnUse"
       gradientTransform="matrix(0.9404855,0,0,0.9232432,284.97596,6.7867185)"
       x1="26.350712"
       y1="29.116396"
       x2="12.897854"
       y2="10.14325" />
    <linearGradient
       inkscape:collect="always"
       xlink:href="#linearGradient6102"
       id="linearGradient6250"
       gradientUnits="userSpaceOnUse"
       x1="5.5242991"
       y1="26.304611"
       x2="34.064911"
       y2="13.140471" />
    <linearGradient
       inkscape:collect="always"
       xlink:href="#linearGradient15986"
       id="linearGradient6252"
       gradientUnits="userSpaceOnUse"
       x1="15.324579"
       y1="14.987155"
       x2="24.873405"
       y2="35.663464" />
    <linearGradient
       inkscape:collect="always"
       xlink:href="#linearGradient13564"
       id="linearGradient6254"
       gradientUnits="userSpaceOnUse"
       gradientTransform="matrix(0.4702427,0,0,0.4616216,347.86803,-23.23969)"
       x1="26.350712"
       y1="29.116396"
       x2="12.897854"
       y2="10.14325" />
  </defs>
  <sodipodi:namedview
     id="base"
     pagecolor="#ffffff"
     bordercolor="#666666"
     borderopacity="1.0"
     inkscape:pageopacity="0.0"
     inkscape:pageshadow="2"
     inkscape:zoom="6.9411765"
     inkscape:cx="329.63184"
     inkscape:cy="36.564197"
     inkscape:current-layer="layer1"
     showgrid="true"
     inkscape:grid-bbox="true"
     inkscape:document-units="px"
     width="340px"
     height="40px"
     inkscape:window-width="1280"
     inkscape:window-height="729"
     inkscape:window-x="0"
     inkscape:window-y="25" />
  <metadata
     id="metadata2528">
    <rdf:RDF>
      <cc:Work
         rdf:about="">
        <dc:format>image/svg+xml</dc:format>
        <dc:type
           rdf:resource="http://purl.org/dc/dcmitype/StillImage" />
        <dc:title>Another Simple tileset for GNOME Mastermind</dc:title>
        <dc:date>14 May 2007</dc:date>
        <dc:creator>
          <cc:Agent>
            <dc:title>Filippo Argiolas &lt;filippo.argiolas@gmail.com&gt;</dc:title>
          </cc:Agent>
        </dc:creator>
        <cc:license
           rdf:resource="http://creativecommons.org/licenses/GPL/2.0/" />
      </cc:Work>
      <cc:License
         rdf:about="http://creativecommons.org/licenses/GPL/2.0/">
        <cc:permits
           rdf:resource="http://web.resource.org/cc/Reproduction" />
        <cc:permits
           rdf:resource="http://web.resource.org/cc/Distribution" />
        <cc:requires
           rdf:resource="http://web.resource.org/cc/Notice" />
        <cc:permits
           rdf:resource="http://web.resource.org/cc/DerivativeWorks" />
        <cc:requires
           rdf:resource="http://web.resource.org/cc/ShareAlike" />
        <cc:requires
           rdf:resource="http://web.resource.org/cc/SourceCode" />
      </cc:License>
    </rdf:RDF>
  </metadata>
  <g
     id="layer1"
     inkscape:label="Layer 1"
     inkscape:groupmode="layer">
    <path
       sodipodi:type="arc"
       style="opacity:0.2;fill:none;fill-opacity:1;stroke:url(#linearGradient12189);stroke-width:2.30114675;stroke-miterlimit:4;stroke-dasharray:none;stroke-opacity:1"
       id="path6110"
       sodipodi:cx="20"
       sodipodi:cy="20.035715"
       sodipodi:rx="15.303802"
       sodipodi:ry="15.303802"
       d="M 35.303802 20.035715 A 15.303802 15.303802 0 1 1  4.6961985,20.035715 A 15.303802 15.303802 0 1 1  35.303802 20.035715 z"
       transform="matrix(-0.2592339,-1.0207738,1.0229151,-0.2586913,4.810408,45.905611)" />
    <path
       sodipodi:type="arc"
       style="opacity:1;fill:#8c28ab;fill-opacity:1;stroke:#580075;stroke-width:1.44175315;stroke-miterlimit:4;stroke-dasharray:none;stroke-opacity:1"
       id="path2531"
       sodipodi:cx="20"
       sodipodi:cy="20.035715"
       sodipodi:rx="15"
       sodipodi:ry="14.964286"
       d="M 35 20.035715 A 15 14.964286 0 1 1  5,20.035715 A 15 14.964286 0 1 1  35 20.035715 z"
       transform="matrix(1.009499,0,0,1.009499,-0.193598,-0.1984603)" />
    <path
       sodipodi:type="arc"
       style="opacity:0.59362548;fill:none;fill-opacity:1;stroke:url(#linearGradient15992);stroke-width:1.32692444;stroke-miterlimit:4;stroke-dasharray:none;stroke-opacity:1"
       id="path4076"
       sodipodi:cx="20"
       sodipodi:cy="20.035715"
       sodipodi:rx="15"
       sodipodi:ry="14.964286"
       d="M 35 20.035715 A 15 14.964286 0 1 1  5,20.035715 A 15 14.964286 0 1 1  35 20.035715 z"
       transform="matrix(0.9140488,0,0,0.9140488,1.7519388,1.6749624)" />
    <path
       style="opacity:0.4;fill:url(#linearGradient14854);fill-opacity:1;stroke:none;stroke-width:1;stroke-miterlimit:4;stroke-opacity:1"
       d="M 33.015548,21.836609 C 32.342136,25.905355 30.43271,28.330161 27.210737,30.882344 C 21.675113,35.267212 9.2779844,32.5715 9.2779844,24.945247 C 9.2779844,17.318996 16.207397,10.450125 23.994615,10.450125 C 31.781834,10.450125 33.640548,17.46036 33.015548,21.836609 z "
       id="path12585"
       sodipodi:nodetypes="csssc" />
    <g
       id="g2341"
       transform="matrix(0,0.5583194,-0.5583194,0,339.37066,1.6093848)">
      <path
         transform="matrix(0.474879,0,0,0.474879,3.12229,3.180454)"
         d="M 58.403591 29.207693 A 29.010935 29.010935 0 1 1  0.3817215,29.207693 A 29.010935 29.010935 0 1 1  58.403591 29.207693 z"
         sodipodi:ry="29.010935"
         sodipodi:rx="29.010935"
         sodipodi:cy="29.207693"
         sodipodi:cx="29.392656"
         id="path2157"
         style="fill:#000000;fill-opacity:0.09803922;fill-rule:evenodd;stroke:none;stroke-width:2.5;stroke-linecap:butt;stroke-linejoin:miter;stroke-miterlimit:4;stroke-opacity:1"
         sodipodi:type="arc" />
      <path
         transform="matrix(0.474879,0,0,0.474879,2.51269,2.745024)"
         d="M 58.403591 29.207693 A 29.010935 29.010935 0 1 1  0.3817215,29.207693 A 29.010935 29.010935 0 1 1  58.403591 29.207693 z"
         sodipodi:ry="29.010935"
         sodipodi:rx="29.010935"
         sodipodi:cy="29.207693"
         sodipodi:cx="29.392656"
         id="path2156"
         style="fill:#000000;fill-opacity:0.09803922;fill-rule:evenodd;stroke:none;stroke-width:2.5;stroke-linecap:butt;stroke-linejoin:miter;stroke-miterlimit:4;stroke-opacity:1"
         sodipodi:type="arc" />
      <path
         transform="matrix(0.474879,0,0,0.474879,1.99017,2.646674)"
         d="M 58.403591 29.207693 A 29.010935 29.010935 0 1 1  0.3817215,29.207693 A 29.010935 29.010935 0 1 1  58.403591 29.207693 z"
         sodipodi:ry="29.010935"
         sodipodi:rx="29.010935"
         sodipodi:cy="29.207693"
         sodipodi:cx="29.392656"
         id="path2155"
         style="fill:#000000;fill-opacity:0.09803922;fill-rule:evenodd;stroke:none;stroke-width:2.5;stroke-linecap:butt;stroke-linejoin:miter;stroke-miterlimit:4;stroke-opacity:1"
         sodipodi:type="arc" />
      <path
         transform="matrix(1.636646,0,0,1.636646,-3.514751,-2.901009)"
         d="M 19.25 11.625 A 7.25 7.25 0 1 1  4.75,11.625 A 7.25 7.25 0 1 1  19.25 11.625 z"
         sodipodi:ry="7.25"
         sodipodi:rx="7.25"
         sodipodi:cy="11.625"
         sodipodi:cx="12"
         id="path2766"
         style="opacity:1;fill:#ff2d00;fill-opacity:1;stroke:#000000;stroke-width:1.60000002;stroke-linecap:butt;stroke-linejoin:round;stroke-miterlimit:4;stroke-dasharray:none;stroke-opacity:1"
         sodipodi:type="arc" />
    </g>
    <g
       id="g2364"
       transform="matrix(0,0.5583194,-0.5583194,0,339.37066,21.609385)">
      <path
         transform="matrix(0.474879,0,0,0.474879,3.12229,3.180454)"
         d="M 58.403591 29.207693 A 29.010935 29.010935 0 1 1  0.3817215,29.207693 A 29.010935 29.010935 0 1 1  58.403591 29.207693 z"
         sodipodi:ry="29.010935"
         sodipodi:rx="29.010935"
         sodipodi:cy="29.207693"
         sodipodi:cx="29.392656"
         id="path2366"
         style="fill:#000000;fill-opacity:0.09803922;fill-rule:evenodd;stroke:none;stroke-width:2.5;stroke-linecap:butt;stroke-linejoin:miter;stroke-miterlimit:4;stroke-opacity:1"
         sodipodi:type="arc" />
      <path
         transform="matrix(0.474879,0,0,0.474879,2.51269,2.745024)"
         d="M 58.403591 29.207693 A 29.010935 29.010935 0 1 1  0.3817215,29.207693 A 29.010935 29.010935 0 1 1  58.403591 29.207693 z"
         sodipodi:ry="29.010935"
         sodipodi:rx="29.010935"
         sodipodi:cy="29.207693"
         sodipodi:cx="29.392656"
         id="path2368"
         style="fill:#000000;fill-opacity:0.09803922;fill-rule:evenodd;stroke:none;stroke-width:2.5;stroke-linecap:butt;stroke-linejoin:miter;stroke-miterlimit:4;stroke-opacity:1"
         sodipodi:type="arc" />
      <path
         transform="matrix(0.474879,0,0,0.474879,1.99017,2.646674)"
         d="M 58.403591 29.207693 A 29.010935 29.010935 0 1 1  0.3817215,29.207693 A 29.010935 29.010935 0 1 1  58.403591 29.207693 z"
         sodipodi:ry="29.010935"
         sodipodi:rx="29.010935"
         sodipodi:cy="29.207693"
         sodipodi:cx="29.392656"
         id="path2370"
         style="fill:#000000;fill-opacity:0.09803922;fill-rule:evenodd;stroke:none;stroke-width:2.5;stroke-linecap:butt;stroke-linejoin:miter;stroke-miterlimit:4;stroke-opacity:1"
         sodipodi:type="arc" />
      <path
         transform="matrix(1.636646,0,0,1.636646,-3.514751,-2.901009)"
         d="M 19.25 11.625 A 7.25 7.25 0 1 1  4.75,11.625 A 7.25 7.25 0 1 1  19.25 11.625 z"
         sodipodi:ry="7.25"
         sodipodi:rx="7.25"
         sodipodi:cy="11.625"
         sodipodi:cx="12"
         id="path2372"
         style="opacity:1;fill:#ffffff;fill-opacity:1;stroke:#000000;stroke-width:1.60000002;stroke-linecap:butt;stroke-linejoin:round;stroke-miterlimit:4;stroke-dasharray:none;stroke-opacity:1"
         sodipodi:type="arc" />
    </g>
    <path
       sodipodi:type="arc"
       style="opacity:0.2;fill:none;fill-opacity:1;stroke:url(#linearGradient2253);stroke-width:2.30114675;stroke-miterlimit:4;stroke-dasharray:none;stroke-opacity:1"
       id="path2245"
       sodipodi:cx="20"
       sodipodi:cy="20.035715"
       sodipodi:rx="15.303802"
       sodipodi:ry="15.303802"
       d="M 35.303802 20.035715 A 15.303802 15.303802 0 1 1  4.6961985,20.035715 A 15.303802 15.303802 0 1 1  35.303802 20.035715 z"
       transform="matrix(-0.2592339,-1.0207738,1.0229151,-0.2586913,44.689842,45.598541)" />
    <path
       sodipodi:type="arc"
       style="opacity:1;fill:#ff9f19;fill-opacity:1;stroke:#df7223;stroke-width:1.44175315;stroke-miterlimit:4;stroke-dasharray:none;stroke-opacity:1"
       id="path2247"
       sodipodi:cx="20"
       sodipodi:cy="20.035715"
       sodipodi:rx="15"
       sodipodi:ry="14.964286"
       d="M 35 20.035715 A 15 14.964286 0 1 1  5,20.035715 A 15 14.964286 0 1 1  35 20.035715 z"
       transform="matrix(1.009499,0,0,1.009499,39.685836,-0.5055301)" />
    <path
       sodipodi:type="arc"
       style="opacity:0.59362548;fill:none;fill-opacity:1;stroke:url(#linearGradient2255);stroke-width:1.32692444;stroke-miterlimit:4;stroke-dasharray:none;stroke-opacity:1"
       id="path2249"
       sodipodi:cx="20"
       sodipodi:cy="20.035715"
       sodipodi:rx="15"
       sodipodi:ry="14.964286"
       d="M 35 20.035715 A 15 14.964286 0 1 1  5,20.035715 A 15 14.964286 0 1 1  35 20.035715 z"
       transform="matrix(0.9140488,0,0,0.9140488,41.631373,1.3678926)" />
    <path
       style="opacity:0.4;fill:url(#linearGradient2257);fill-opacity:1;stroke:none;stroke-width:1;stroke-miterlimit:4;stroke-opacity:1"
       d="M 72.894982,21.529539 C 72.22157,25.598285 70.312144,28.023091 67.090171,30.575274 C 61.554547,34.960142 49.157419,32.26443 49.157419,24.638177 C 49.157419,17.011926 56.086831,10.143055 63.874049,10.143055 C 71.661268,10.143055 73.519982,17.15329 72.894982,21.529539 z "
       id="path2251"
       sodipodi:nodetypes="csssc" />
    <path
       sodipodi:type="arc"
       style="opacity:0.2;fill:none;fill-opacity:1;stroke:url(#linearGradient2267);stroke-width:2.30114675;stroke-miterlimit:4;stroke-dasharray:none;stroke-opacity:1"
       id="path2259"
       sodipodi:cx="20"
       sodipodi:cy="20.035715"
       sodipodi:rx="15.303802"
       sodipodi:ry="15.303802"
       d="M 35.303802 20.035715 A 15.303802 15.303802 0 1 1  4.6961985,20.035715 A 15.303802 15.303802 0 1 1  35.303802 20.035715 z"
       transform="matrix(-0.2592339,-1.0207738,1.0229151,-0.2586913,84.689842,45.598541)" />
    <path
       sodipodi:type="arc"
       style="opacity:1;fill:#3464be;fill-opacity:1;stroke:#0744a3;stroke-width:1.44175315;stroke-miterlimit:4;stroke-dasharray:none;stroke-opacity:1"
       id="path2261"
       sodipodi:cx="20"
       sodipodi:cy="20.035715"
       sodipodi:rx="15"
       sodipodi:ry="14.964286"
       d="M 35 20.035715 A 15 14.964286 0 1 1  5,20.035715 A 15 14.964286 0 1 1  35 20.035715 z"
       transform="matrix(1.009499,0,0,1.009499,79.685836,-0.5055301)" />
    <path
       sodipodi:type="arc"
       style="opacity:0.59362548;fill:none;fill-opacity:1;stroke:url(#linearGradient2269);stroke-width:1.32692444;stroke-miterlimit:4;stroke-dasharray:none;stroke-opacity:1"
       id="path2263"
       sodipodi:cx="20"
       sodipodi:cy="20.035715"
       sodipodi:rx="15"
       sodipodi:ry="14.964286"
       d="M 35 20.035715 A 15 14.964286 0 1 1  5,20.035715 A 15 14.964286 0 1 1  35 20.035715 z"
       transform="matrix(0.9140488,0,0,0.9140488,81.631373,1.3678926)" />
    <path
       style="opacity:0.4;fill:url(#linearGradient2271);fill-opacity:1;stroke:none;stroke-width:1;stroke-miterlimit:4;stroke-opacity:1"
       d="M 112.89498,21.529539 C 112.22157,25.598285 110.31214,28.023091 107.09017,30.575274 C 101.55455,34.960142 89.157419,32.26443 89.157419,24.638177 C 89.157419,17.011926 96.086831,10.143055 103.87405,10.143055 C 111.66127,10.143055 113.51998,17.15329 112.89498,21.529539 z "
       id="path2265"
       sodipodi:nodetypes="csssc" />
    <path
       sodipodi:type="arc"
       style="opacity:0.2;fill:none;fill-opacity:1;stroke:url(#linearGradient2281);stroke-width:2.30114675;stroke-miterlimit:4;stroke-dasharray:none;stroke-opacity:1"
       id="path2273"
       sodipodi:cx="20"
       sodipodi:cy="20.035715"
       sodipodi:rx="15.303802"
       sodipodi:ry="15.303802"
       d="M 35.303802 20.035715 A 15.303802 15.303802 0 1 1  4.6961985,20.035715 A 15.303802 15.303802 0 1 1  35.303802 20.035715 z"
       transform="matrix(-0.2592339,-1.0207738,1.0229151,-0.2586913,124.68984,45.598541)" />
    <path
       sodipodi:type="arc"
       style="opacity:1;fill:#feed16;fill-opacity:1;stroke:#feb616;stroke-width:1.44175315;stroke-miterlimit:4;stroke-dasharray:none;stroke-opacity:1"
       id="path2275"
       sodipodi:cx="20"
       sodipodi:cy="20.035715"
       sodipodi:rx="15"
       sodipodi:ry="14.964286"
       d="M 35 20.035715 A 15 14.964286 0 1 1  5,20.035715 A 15 14.964286 0 1 1  35 20.035715 z"
       transform="matrix(1.009499,0,0,1.009499,119.68584,-0.5055301)" />
    <path
       sodipodi:type="arc"
       style="opacity:0.59362548;fill:none;fill-opacity:1;stroke:url(#linearGradient2283);stroke-width:1.32692444;stroke-miterlimit:4;stroke-dasharray:none;stroke-opacity:1"
       id="path2277"
       sodipodi:cx="20"
       sodipodi:cy="20.035715"
       sodipodi:rx="15"
       sodipodi:ry="14.964286"
       d="M 35 20.035715 A 15 14.964286 0 1 1  5,20.035715 A 15 14.964286 0 1 1  35 20.035715 z"
       transform="matrix(0.9140488,0,0,0.9140488,121.63137,1.3678926)" />
    <path
       style="opacity:0.4;fill:url(#linearGradient2285);fill-opacity:1;stroke:none;stroke-width:1;stroke-miterlimit:4;stroke-opacity:1"
       d="M 152.89498,21.529539 C 152.22157,25.598285 150.31214,28.023091 147.09017,30.575274 C 141.55455,34.960142 129.15742,32.26443 129.15742,24.638177 C 129.15742,17.011926 136.08683,10.143055 143.87405,10.143055 C 151.66127,10.143055 153.51998,17.15329 152.89498,21.529539 z "
       id="path2279"
       sodipodi:nodetypes="csssc" />
    <path
       sodipodi:type="arc"
       style="opacity:0.2;fill:none;fill-opacity:1;stroke:url(#linearGradient2295);stroke-width:2.30114675;stroke-miterlimit:4;stroke-dasharray:none;stroke-opacity:1"
       id="path2287"
       sodipodi:cx="20"
       sodipodi:cy="20.035715"
       sodipodi:rx="15.303802"
       sodipodi:ry="15.303802"
       d="M 35.303802 20.035715 A 15.303802 15.303802 0 1 1  4.6961985,20.035715 A 15.303802 15.303802 0 1 1  35.303802 20.035715 z"
       transform="matrix(-0.2592339,-1.0207738,1.0229151,-0.2586913,164.68984,45.598541)" />
    <path
       sodipodi:type="arc"
       style="opacity:1;fill:#ec2424;fill-opacity:1;stroke:#cc0000;stroke-width:1.44175315;stroke-miterlimit:4;stroke-dasharray:none;stroke-opacity:1"
       id="path2289"
       sodipodi:cx="20"
       sodipodi:cy="20.035715"
       sodipodi:rx="15"
       sodipodi:ry="14.964286"
       d="M 35 20.035715 A 15 14.964286 0 1 1  5,20.035715 A 15 14.964286 0 1 1  35 20.035715 z"
       transform="matrix(1.009499,0,0,1.009499,159.68584,-0.5055301)" />
    <path
       sodipodi:type="arc"
       style="opacity:0.59362548;fill:none;fill-opacity:1;stroke:url(#linearGradient2297);stroke-width:1.32692444;stroke-miterlimit:4;stroke-dasharray:none;stroke-opacity:1"
       id="path2291"
       sodipodi:cx="20"
       sodipodi:cy="20.035715"
       sodipodi:rx="15"
       sodipodi:ry="14.964286"
       d="M 35 20.035715 A 15 14.964286 0 1 1  5,20.035715 A 15 14.964286 0 1 1  35 20.035715 z"
       transform="matrix(0.9140488,0,0,0.9140488,161.63137,1.3678926)" />
    <path
       style="opacity:0.4;fill:url(#linearGradient2299);fill-opacity:1;stroke:none;stroke-width:1;stroke-miterlimit:4;stroke-opacity:1"
       d="M 192.89498,21.529539 C 192.22157,25.598285 190.31214,28.023091 187.09017,30.575274 C 181.55455,34.960142 169.15742,32.26443 169.15742,24.638177 C 169.15742,17.011926 176.08683,10.143055 183.87405,10.143055 C 191.66127,10.143055 193.51998,17.15329 192.89498,21.529539 z "
       id="path2293"
       sodipodi:nodetypes="csssc" />
    <path
       sodipodi:type="arc"
       style="opacity:0.2;fill:none;fill-opacity:1;stroke:url(#linearGradient2309);stroke-width:2.30114675;stroke-miterlimit:4;stroke-dasharray:none;stroke-opacity:1"
       id="path2301"
       sodipodi:cx="20"
       sodipodi:cy="20.035715"
       sodipodi:rx="15.303802"
       sodipodi:ry="15.303802"
       d="M 35.303802 20.035715 A 15.303802 15.303802 0 1 1  4.6961985,20.035715 A 15.303802 15.303802 0 1 1  35.303802 20.035715 z"
       transform="matrix(-0.2592339,-1.0207738,1.0229151,-0.2586913,204.68984,45.598541)" />
    <path
       sodipodi:type="arc"
       style="opacity:1;fill:#ad6638;fill-opacity:1;stroke:#965b30;stroke-width:1.44175315;stroke-miterlimit:4;stroke-dasharray:none;stroke-opacity:1"
       id="path2303"
       sodipodi:cx="20"
       sodipodi:cy="20.035715"
       sodipodi:rx="15"
       sodipodi:ry="14.964286"
       d="M 35 20.035715 A 15 14.964286 0 1 1  5,20.035715 A 15 14.964286 0 1 1  35 20.035715 z"
       transform="matrix(1.009499,0,0,1.009499,199.68584,-0.5055301)" />
    <path
       sodipodi:type="arc"
       style="opacity:0.59362548;fill:none;fill-opacity:1;stroke:url(#linearGradient2311);stroke-width:1.32692444;stroke-miterlimit:4;stroke-dasharray:none;stroke-opacity:1"
       id="path2305"
       sodipodi:cx="20"
       sodipodi:cy="20.035715"
       sodipodi:rx="15"
       sodipodi:ry="14.964286"
       d="M 35 20.035715 A 15 14.964286 0 1 1  5,20.035715 A 15 14.964286 0 1 1  35 20.035715 z"
       transform="matrix(0.9140488,0,0,0.9140488,201.63137,1.3678926)" />
    <path
       style="opacity:0.4;fill:url(#linearGradient2313);fill-opacity:1;stroke:none;stroke-width:1;stroke-miterlimit:4;stroke-opacity:1"
       d="M 232.89498,21.529539 C 232.22157,25.598285 230.31214,28.023091 227.09017,30.575274 C 221.55455,34.960142 209.15742,32.26443 209.15742,24.638177 C 209.15742,17.011926 216.08683,10.143055 223.87405,10.143055 C 231.66127,10.143055 233.51998,17.15329 232.89498,21.529539 z "
       id="path2307"
       sodipodi:nodetypes="csssc" />
    <path
       sodipodi:type="arc"
       style="opacity:0.2;fill:none;fill-opacity:1;stroke:url(#linearGradient2323);stroke-width:2.30114675;stroke-miterlimit:4;stroke-dasharray:none;stroke-opacity:1"
       id="path2315"
       sodipodi:cx="20"
       sodipodi:cy="20.035715"
       sodipodi:rx="15.303802"
       sodipodi:ry="15.303802"
       d="M 35.303802 20.035715 A 15.303802 15.303802 0 1 1  4.6961985,20.035715 A 15.303802 15.303802 0 1 1  35.303802 20.035715 z"
       transform="matrix(-0.2592339,-1.0207738,1.0229151,-0.2586913,244.68984,45.598541)" />
    <path
       sodipodi:type="arc"
       style="opacity:1;fill:#94c010;fill-opacity:1;stroke:#749114;stroke-width:1.44175315;stroke-miterlimit:4;stroke-dasharray:none;stroke-opacity:1"
       id="path2317"
       sodipodi:cx="20"
       sodipodi:cy="20.035715"
       sodipodi:rx="15"
       sodipodi:ry="14.964286"
       d="M 35 20.035715 A 15 14.964286 0 1 1  5,20.035715 A 15 14.964286 0 1 1  35 20.035715 z"
       transform="matrix(1.009499,0,0,1.009499,239.68584,-0.5055301)" />
    <path
       sodipodi:type="arc"
       style="opacity:0.59362548;fill:none;fill-opacity:1;stroke:url(#linearGradient2325);stroke-width:1.32692444;stroke-miterlimit:4;stroke-dasharray:none;stroke-opacity:1"
       id="path2319"
       sodipodi:cx="20"
       sodipodi:cy="20.035715"
       sodipodi:rx="15"
       sodipodi:ry="14.964286"
       d="M 35 20.035715 A 15 14.964286 0 1 1  5,20.035715 A 15 14.964286 0 1 1  35 20.035715 z"
       transform="matrix(0.9140488,0,0,0.9140488,241.63137,1.3678926)" />
    <path
       style="opacity:0.4;fill:url(#linearGradient2327);fill-opacity:1;stroke:none;stroke-width:1;stroke-miterlimit:4;stroke-opacity:1"
       d="M 272.89498,21.529539 C 272.22157,25.598285 270.31214,28.023091 267.09017,30.575274 C 261.55455,34.960142 249.15742,32.26443 249.15742,24.638177 C 249.15742,17.011926 256.08683,10.143055 263.87405,10.143055 C 271.66127,10.143055 273.51998,17.15329 272.89498,21.529539 z "
       id="path2321"
       sodipodi:nodetypes="csssc" />
    <path
       sodipodi:type="arc"
       style="opacity:0.2;fill:none;fill-opacity:1;stroke:url(#linearGradient2337);stroke-width:2.30114675;stroke-miterlimit:4;stroke-dasharray:none;stroke-opacity:1"
       id="path2329"
       sodipodi:cx="20"
       sodipodi:cy="20.035715"
       sodipodi:rx="15.303802"
       sodipodi:ry="15.303802"
       d="M 35.303802 20.035715 A 15.303802 15.303802 0 1 1  4.6961985,20.035715 A 15.303802 15.303802 0 1 1  35.303802 20.035715 z"
       transform="matrix(-0.2592339,-1.0207738,1.0229151,-0.2586913,284.68984,45.598541)" />
    <path
       sodipodi:type="arc"
       style="opacity:1;fill:#d4256a;fill-opacity:1;stroke:#c52c6a;stroke-width:1.44175315;stroke-miterlimit:4;stroke-dasharray:none;stroke-opacity:1"
       id="path2331"
       sodipodi:cx="20"
       sodipodi:cy="20.035715"
       sodipodi:rx="15"
       sodipodi:ry="14.964286"
       d="M 35 20.035715 A 15 14.964286 0 1 1  5,20.035715 A 15 14.964286 0 1 1  35 20.035715 z"
       transform="matrix(1.009499,0,0,1.009499,279.68584,-0.5055301)" />
    <path
       sodipodi:type="arc"
       style="opacity:0.59362548;fill:none;fill-opacity:1;stroke:url(#linearGradient2339);stroke-width:1.32692444;stroke-miterlimit:4;stroke-dasharray:none;stroke-opacity:1"
       id="path2333"
       sodipodi:cx="20"
       sodipodi:cy="20.035715"
       sodipodi:rx="15"
       sodipodi:ry="14.964286"
       d="M 35 20.035715 A 15 14.964286 0 1 1  5,20.035715 A 15 14.964286 0 1 1  35 20.035715 z"
       transform="matrix(0.9140488,0,0,0.9140488,281.63137,1.3678926)" />
    <path
       style="opacity:0.4;fill:url(#linearGradient2341);fill-opacity:1;stroke:none;stroke-width:1;stroke-miterlimit:4;stroke-opacity:1"
       d="M 312.89498,21.529539 C 312.22157,25.598285 310.31214,28.023091 307.09017,30.575274 C 301.55455,34.960142 289.15742,32.26443 289.15742,24.638177 C 289.15742,17.011926 296.08683,10.143055 303.87405,10.143055 C 311.66127,10.143055 313.51998,17.15329 312.89498,21.529539 z "
       id="path2335"
       sodipodi:nodetypes="csssc" />
  </g>
</svg>
