<?xml version="1.0" encoding="UTF-8" standalone="no"?>
<!-- Created with Inkscape (http://www.inkscape.org/) -->
<svg
   xmlns:dc="http://purl.org/dc/elements/1.1/"
   xmlns:cc="http://web.resource.org/cc/"
   xmlns:rdf="http://www.w3.org/1999/02/22-rdf-syntax-ns#"
   xmlns:svg="http://www.w3.org/2000/svg"
   xmlns="http://www.w3.org/2000/svg"
   xmlns:xlink="http://www.w3.org/1999/xlink"
   xmlns:sodipodi="http://sodipodi.sourceforge.net/DTD/sodipodi-0.dtd"
   xmlns:inkscape="http://www.inkscape.org/namespaces/inkscape"
   width="340"
   height="40"
   id="svg2523"
   sodipodi:version="0.32"
   inkscape:version="0.45"
   version="1.0"
   sodipodi:docbase="/home/pippo/svn/gnome-mastermind/themes"
   sodipodi:docname="simple.svg"
   inkscape:output_extension="org.inkscape.output.svg.inkscape"
   sodipodi:modified="true">
  <defs
     id="defs2525">
    <linearGradient
       id="linearGradient5134">
      <stop
         style="stop-color:#ffffff;stop-opacity:1;"
         offset="0"
         id="stop5136" />
      <stop
         style="stop-color:#eeeeec;stop-opacity:0;"
         offset="1"
         id="stop5138" />
    </linearGradient>
    <linearGradient
       inkscape:collect="always"
       xlink:href="#linearGradient5134"
       id="linearGradient5519"
       gradientUnits="userSpaceOnUse"
       gradientTransform="matrix(1.2360489,0,0,1.2360489,296.69149,-11.748846)"
       x1="29.839071"
       y1="13.407934"
       x2="27.008896"
       y2="16.774937" />
    <linearGradient
       inkscape:collect="always"
       id="linearGradient4326">
      <stop
         style="stop-color:#ffffff;stop-opacity:1;"
         offset="0"
         id="stop4328" />
      <stop
         style="stop-color:#ffffff;stop-opacity:0;"
         offset="1"
         id="stop4330" />
    </linearGradient>
    <linearGradient
       inkscape:collect="always"
       xlink:href="#linearGradient4326"
       id="linearGradient5521"
       gradientUnits="userSpaceOnUse"
       x1="331.26721"
       y1="8.0978613"
       x2="327.35535"
       y2="13.607504" />
    <linearGradient
       id="linearGradient4315">
      <stop
         id="stop4317"
         offset="0"
         style="stop-color:#8c8c8c;stop-opacity:1;" />
      <stop
         id="stop4319"
         offset="1"
         style="stop-color:#eeeeec;stop-opacity:0;" />
    </linearGradient>
    <linearGradient
       inkscape:collect="always"
       xlink:href="#linearGradient4315"
       id="linearGradient5523"
       gradientUnits="userSpaceOnUse"
       gradientTransform="matrix(1.2360489,0,0,1.2360489,296.73315,8.250801)"
       x1="29.839071"
       y1="13.407934"
       x2="27.008896"
       y2="16.774937" />
    <linearGradient
       inkscape:collect="always"
       id="linearGradient15986">
      <stop
         style="stop-color:#ffffff;stop-opacity:1;"
         offset="0"
         id="stop15988" />
      <stop
         style="stop-color:#ffffff;stop-opacity:0;"
         offset="1"
         id="stop15990" />
    </linearGradient>
    <linearGradient
       id="linearGradient13564">
      <stop
         style="stop-color:#ffffff;stop-opacity:1;"
         offset="0"
         id="stop13566" />
      <stop
         id="stop14820"
         offset="0.5"
         style="stop-color:#ffffff;stop-opacity:0.49803922;" />
      <stop
         style="stop-color:#ffffff;stop-opacity:0;"
         offset="1"
         id="stop13568" />
    </linearGradient>
    <linearGradient
       id="linearGradient13556">
      <stop
         style="stop-color:#8c28ab;stop-opacity:1;"
         offset="0"
         id="stop13558" />
      <stop
         style="stop-color:#8c28ab;stop-opacity:0;"
         offset="1"
         id="stop13560" />
    </linearGradient>
    <linearGradient
       id="linearGradient6102">
      <stop
         style="stop-color:#000000;stop-opacity:1;"
         offset="0"
         id="stop6104" />
      <stop
         style="stop-color:#000000;stop-opacity:0;"
         offset="1"
         id="stop6106" />
    </linearGradient>
    <linearGradient
       id="linearGradient5106">
      <stop
         style="stop-color:#000000;stop-opacity:1;"
         offset="0"
         id="stop5108" />
      <stop
         style="stop-color:#000000;stop-opacity:0;"
         offset="1"
         id="stop5110" />
    </linearGradient>
    <linearGradient
       id="linearGradient4127">
      <stop
         style="stop-color:#ffffff;stop-opacity:1;"
         offset="0"
         id="stop4129" />
      <stop
         style="stop-color:#ffffff;stop-opacity:0;"
         offset="1"
         id="stop4131" />
    </linearGradient>
    <linearGradient
       inkscape:collect="always"
       xlink:href="#linearGradient4127"
       id="linearGradient4133"
       x1="10"
       y1="14.711454"
       x2="27.979185"
       y2="14.711454"
       gradientUnits="userSpaceOnUse"
       gradientTransform="matrix(1.4713996,0,0,1.4678867,-8.1180585,-7.3577373)" />
    <linearGradient
       inkscape:collect="always"
       xlink:href="#linearGradient6102"
       id="linearGradient6108"
       x1="4.5"
       y1="20.035715"
       x2="35.5"
       y2="20.035715"
       gradientUnits="userSpaceOnUse" />
    <linearGradient
       inkscape:collect="always"
       xlink:href="#linearGradient6102"
       id="linearGradient12189"
       gradientUnits="userSpaceOnUse"
       x1="3.7418327"
       y1="23.087822"
       x2="33.555206"
       y2="13.44334" />
    <linearGradient
       inkscape:collect="always"
       xlink:href="#linearGradient13564"
       id="linearGradient14553"
       x1="20"
       y1="29.290297"
       x2="20"
       y2="5.0714293"
       gradientUnits="userSpaceOnUse" />
    <linearGradient
       inkscape:collect="always"
       xlink:href="#linearGradient13564"
       id="linearGradient14854"
       gradientUnits="userSpaceOnUse"
       x1="20.103939"
       y1="22.786573"
       x2="20.296356"
       y2="6.1851888"
       gradientTransform="matrix(0.9404855,0,0,0.9232432,1.0464352,0.9612058)" />
    <linearGradient
       inkscape:collect="always"
       xlink:href="#linearGradient15986"
       id="linearGradient15992"
       x1="15.324579"
       y1="14.987155"
       x2="24.873405"
       y2="35.663464"
       gradientUnits="userSpaceOnUse" />
    <linearGradient
       inkscape:collect="always"
       xlink:href="#linearGradient6102"
       id="linearGradient23049"
       gradientUnits="userSpaceOnUse"
       x1="3.7418327"
       y1="23.087822"
       x2="33.555206"
       y2="13.44334" />
    <linearGradient
       inkscape:collect="always"
       xlink:href="#linearGradient15986"
       id="linearGradient23051"
       gradientUnits="userSpaceOnUse"
       x1="15.324579"
       y1="14.987155"
       x2="24.873405"
       y2="35.663464" />
    <linearGradient
       inkscape:collect="always"
       xlink:href="#linearGradient13564"
       id="linearGradient23053"
       gradientUnits="userSpaceOnUse"
       gradientTransform="matrix(0.9404855,0,0,0.9232432,40.924614,0.6513106)"
       x1="20.103939"
       y1="22.786573"
       x2="20.296356"
       y2="6.1851888" />
    <linearGradient
       inkscape:collect="always"
       xlink:href="#linearGradient6102"
       id="linearGradient23063"
       gradientUnits="userSpaceOnUse"
       x1="3.7418327"
       y1="23.087822"
       x2="33.555206"
       y2="13.44334" />
    <linearGradient
       inkscape:collect="always"
       xlink:href="#linearGradient15986"
       id="linearGradient23065"
       gradientUnits="userSpaceOnUse"
       x1="15.324579"
       y1="14.987155"
       x2="24.873405"
       y2="35.663464" />
    <linearGradient
       inkscape:collect="always"
       xlink:href="#linearGradient13564"
       id="linearGradient23067"
       gradientUnits="userSpaceOnUse"
       gradientTransform="matrix(0.9404855,0,0,0.9232432,80.925869,0.6541338)"
       x1="20.103939"
       y1="22.786573"
       x2="20.296356"
       y2="6.1851888" />
    <linearGradient
       inkscape:collect="always"
       xlink:href="#linearGradient6102"
       id="linearGradient23077"
       gradientUnits="userSpaceOnUse"
       x1="3.7418327"
       y1="23.087822"
       x2="33.555206"
       y2="13.44334" />
    <linearGradient
       inkscape:collect="always"
       xlink:href="#linearGradient15986"
       id="linearGradient23079"
       gradientUnits="userSpaceOnUse"
       x1="15.324579"
       y1="14.987155"
       x2="24.873405"
       y2="35.663464" />
    <linearGradient
       inkscape:collect="always"
       xlink:href="#linearGradient13564"
       id="linearGradient23081"
       gradientUnits="userSpaceOnUse"
       gradientTransform="matrix(0.9404855,0,0,0.9232432,120.92586,0.6541338)"
       x1="20.103939"
       y1="22.786573"
       x2="20.296356"
       y2="6.1851888" />
    <linearGradient
       inkscape:collect="always"
       xlink:href="#linearGradient6102"
       id="linearGradient23105"
       gradientUnits="userSpaceOnUse"
       x1="3.7418327"
       y1="23.087822"
       x2="33.555206"
       y2="13.44334" />
    <linearGradient
       inkscape:collect="always"
       xlink:href="#linearGradient15986"
       id="linearGradient23107"
       gradientUnits="userSpaceOnUse"
       x1="15.324579"
       y1="14.987155"
       x2="24.873405"
       y2="35.663464" />
    <linearGradient
       inkscape:collect="always"
       xlink:href="#linearGradient13564"
       id="linearGradient23109"
       gradientUnits="userSpaceOnUse"
       gradientTransform="matrix(0.9404855,0,0,0.9232432,160.92586,0.6541338)"
       x1="20.103939"
       y1="22.786573"
       x2="20.296356"
       y2="6.1851888" />
    <linearGradient
       inkscape:collect="always"
       xlink:href="#linearGradient6102"
       id="linearGradient23119"
       gradientUnits="userSpaceOnUse"
       x1="3.7418327"
       y1="23.087822"
       x2="33.555206"
       y2="13.44334" />
    <linearGradient
       inkscape:collect="always"
       xlink:href="#linearGradient15986"
       id="linearGradient23121"
       gradientUnits="userSpaceOnUse"
       x1="15.324579"
       y1="14.987155"
       x2="24.873405"
       y2="35.663464" />
    <linearGradient
       inkscape:collect="always"
       xlink:href="#linearGradient13564"
       id="linearGradient23123"
       gradientUnits="userSpaceOnUse"
       gradientTransform="matrix(0.9404855,0,0,0.9232432,200.92586,0.6541338)"
       x1="20.103939"
       y1="22.786573"
       x2="20.296356"
       y2="6.1851888" />
    <linearGradient
       inkscape:collect="always"
       xlink:href="#linearGradient6102"
       id="linearGradient23133"
       gradientUnits="userSpaceOnUse"
       x1="3.7418327"
       y1="23.087822"
       x2="33.555206"
       y2="13.44334" />
    <linearGradient
       inkscape:collect="always"
       xlink:href="#linearGradient15986"
       id="linearGradient23135"
       gradientUnits="userSpaceOnUse"
       x1="15.324579"
       y1="14.987155"
       x2="24.873405"
       y2="35.663464" />
    <linearGradient
       inkscape:collect="always"
       xlink:href="#linearGradient13564"
       id="linearGradient23137"
       gradientUnits="userSpaceOnUse"
       gradientTransform="matrix(0.9404855,0,0,0.9232432,240.92586,0.6541338)"
       x1="20.103939"
       y1="22.786573"
       x2="20.296356"
       y2="6.1851888" />
    <linearGradient
       inkscape:collect="always"
       xlink:href="#linearGradient6102"
       id="linearGradient23147"
       gradientUnits="userSpaceOnUse"
       x1="3.7418327"
       y1="23.087822"
       x2="33.555206"
       y2="13.44334" />
    <linearGradient
       inkscape:collect="always"
       xlink:href="#linearGradient15986"
       id="linearGradient23149"
       gradientUnits="userSpaceOnUse"
       x1="15.324579"
       y1="14.987155"
       x2="24.873405"
       y2="35.663464" />
    <linearGradient
       inkscape:collect="always"
       xlink:href="#linearGradient13564"
       id="linearGradient23151"
       gradientUnits="userSpaceOnUse"
       gradientTransform="matrix(0.9404855,0,0,0.9232432,280.92586,0.6541338)"
       x1="20.103939"
       y1="22.786573"
       x2="20.296356"
       y2="6.1851888" />
  </defs>
  <sodipodi:namedview
     id="base"
     pagecolor="#ffffff"
     bordercolor="#666666"
     borderopacity="1.0"
     inkscape:pageopacity="0.0"
     inkscape:pageshadow="2"
     inkscape:zoom="14.928528"
     inkscape:cx="302.0562"
     inkscape:cy="13.146295"
     inkscape:current-layer="layer1"
     showgrid="true"
     inkscape:grid-bbox="false"
     inkscape:document-units="px"
     width="340px"
     height="40px"
     inkscape:window-width="1280"
     inkscape:window-height="729"
     inkscape:window-x="0"
     inkscape:window-y="25"
     inkscape:guide-bbox="false" />
  <metadata
     id="metadata2528">
    <rdf:RDF>
      <cc:Work
         rdf:about="">
        <dc:format>image/svg+xml</dc:format>
        <dc:type
           rdf:resource="http://purl.org/dc/dcmitype/StillImage" />
        <dc:title>Simple tileset for GNOME Mastermind</dc:title>
        <dc:date>14 May 2007</dc:date>
        <dc:creator>
          <cc:Agent>
            <dc:title>Filippo Argiolas &lt;filippo.argiolas@gmail.com&gt;</dc:title>
          </cc:Agent>
        </dc:creator>
        <cc:license
           rdf:resource="http://creativecommons.org/licenses/GPL/2.0/" />
      </cc:Work>
      <cc:License
         rdf:about="http://creativecommons.org/licenses/GPL/2.0/">
        <cc:permits
           rdf:resource="http://web.resource.org/cc/Reproduction" />
        <cc:permits
           rdf:resource="http://web.resource.org/cc/Distribution" />
        <cc:requires
           rdf:resource="http://web.resource.org/cc/Notice" />
        <cc:permits
           rdf:resource="http://web.resource.org/cc/DerivativeWorks" />
        <cc:requires
           rdf:resource="http://web.resource.org/cc/ShareAlike" />
        <cc:requires
           rdf:resource="http://web.resource.org/cc/SourceCode" />
      </cc:License>
    </rdf:RDF>
  </metadata>
  <g
     id="layer1"
     inkscape:label="Layer 1"
     inkscape:groupmode="layer">
    <path
       sodipodi:type="arc"
       style="opacity:0.2;fill:none;fill-opacity:1;stroke:url(#linearGradient12189);stroke-width:2.30114675;stroke-miterlimit:4;stroke-dasharray:none;stroke-opacity:1"
       id="path6110"
       sodipodi:cx="20"
       sodipodi:cy="20.035715"
       sodipodi:rx="15.303802"
       sodipodi:ry="15.303802"
       d="M 35.303802 20.035715 A 15.303802 15.303802 0 1 1  4.6961985,20.035715 A 15.303802 15.303802 0 1 1  35.303802 20.035715 z"
       transform="matrix(-0.2592339,-1.0207738,1.0229151,-0.2586913,4.810408,45.905611)" />
    <path
       sodipodi:type="arc"
       style="opacity:1;fill:#8c28ab;fill-opacity:1;stroke:#580075;stroke-width:1.44175315;stroke-miterlimit:4;stroke-dasharray:none;stroke-opacity:1"
       id="path2531"
       sodipodi:cx="20"
       sodipodi:cy="20.035715"
       sodipodi:rx="15"
       sodipodi:ry="14.964286"
       d="M 35 20.035715 A 15 14.964286 0 1 1  5,20.035715 A 15 14.964286 0 1 1  35 20.035715 z"
       transform="matrix(1.009499,0,0,1.009499,-0.193598,-0.1984603)" />
    <path
       sodipodi:type="arc"
       style="opacity:0.59362548;fill:none;fill-opacity:1;stroke:url(#linearGradient15992);stroke-width:1.32692444;stroke-miterlimit:4;stroke-dasharray:none;stroke-opacity:1"
       id="path4076"
       sodipodi:cx="20"
       sodipodi:cy="20.035715"
       sodipodi:rx="15"
       sodipodi:ry="14.964286"
       d="M 35 20.035715 A 15 14.964286 0 1 1  5,20.035715 A 15 14.964286 0 1 1  35 20.035715 z"
       transform="matrix(0.9140488,0,0,0.9140488,1.7519388,1.6749624)" />
    <path
       style="opacity:0.4;fill:url(#linearGradient14854);fill-opacity:1;stroke:none;stroke-width:1;stroke-miterlimit:4;stroke-opacity:1"
       d="M 34.423108,19.921095 C 32.370254,18.207671 27.604491,15.724006 19.074103,21.846272 C 13.587994,25.783656 5.8466173,26.704083 5.8466173,19.07783 C 5.8466173,11.451579 12.068924,5.6433677 19.856142,5.6433677 C 27.643361,5.6433677 34.423108,12.294846 34.423108,19.921095 z "
       id="path12585"
       sodipodi:nodetypes="csssc" />
    <path
       sodipodi:type="arc"
       style="opacity:0.2;fill:none;fill-opacity:1;stroke:url(#linearGradient23049);stroke-width:2.30114675;stroke-miterlimit:4;stroke-dasharray:none;stroke-opacity:1"
       id="path23041"
       sodipodi:cx="20"
       sodipodi:cy="20.035715"
       sodipodi:rx="15.303802"
       sodipodi:ry="15.303802"
       d="M 35.303802 20.035715 A 15.303802 15.303802 0 1 1  4.6961985,20.035715 A 15.303802 15.303802 0 1 1  35.303802 20.035715 z"
       transform="matrix(-0.2618524,-1.0310846,1.0332476,-0.2613043,44.535194,45.85711)" />
    <path
       sodipodi:type="arc"
       style="opacity:1;fill:#ff9f19;fill-opacity:1;stroke:#df7223;stroke-width:1.44175315;stroke-miterlimit:4;stroke-dasharray:none;stroke-opacity:0.94117647"
       id="path23043"
       sodipodi:cx="20"
       sodipodi:cy="20.035715"
       sodipodi:rx="15"
       sodipodi:ry="14.964286"
       d="M 35 20.035715 A 15 14.964286 0 1 1  5,20.035715 A 15 14.964286 0 1 1  35 20.035715 z"
       transform="matrix(1.009499,0,0,1.009499,39.684582,-0.5083555)" />
    <path
       sodipodi:type="arc"
       style="opacity:0.59362548;fill:none;fill-opacity:1;stroke:url(#linearGradient23051);stroke-width:1.32692444;stroke-miterlimit:4;stroke-dasharray:none;stroke-opacity:1"
       id="path23045"
       sodipodi:cx="20"
       sodipodi:cy="20.035715"
       sodipodi:rx="15"
       sodipodi:ry="14.964286"
       d="M 35 20.035715 A 15 14.964286 0 1 1  5,20.035715 A 15 14.964286 0 1 1  35 20.035715 z"
       transform="matrix(0.9140488,0,0,0.9140488,41.630119,1.3650672)" />
    <path
       style="opacity:0.4;fill:url(#linearGradient23053);fill-opacity:1;stroke:none;stroke-width:1;stroke-miterlimit:4;stroke-opacity:1"
       d="M 74.301288,19.611199 C 72.248434,17.897776 67.48267,15.414111 58.952283,21.536376 C 53.466174,25.47376 45.724798,26.394187 45.724798,18.767935 C 45.724798,11.141684 51.947104,5.3334725 59.734322,5.3334725 C 67.52154,5.3334725 74.301288,11.98495 74.301288,19.611199 z "
       id="path23047"
       sodipodi:nodetypes="csssc" />
    <path
       sodipodi:type="arc"
       style="opacity:0.2;fill:none;fill-opacity:1;stroke:url(#linearGradient23063);stroke-width:2.30114675;stroke-miterlimit:4;stroke-dasharray:none;stroke-opacity:1"
       id="path23055"
       sodipodi:cx="20"
       sodipodi:cy="20.035715"
       sodipodi:rx="15.303802"
       sodipodi:ry="15.303802"
       d="M 35.303802 20.035715 A 15.303802 15.303802 0 1 1  4.6961985,20.035715 A 15.303802 15.303802 0 1 1  35.303802 20.035715 z"
       transform="matrix(-0.2592339,-1.0207738,1.0229151,-0.2586913,84.689842,45.598539)" />
    <path
       sodipodi:type="arc"
       style="opacity:1;fill:#3464be;fill-opacity:1;stroke:#0744a3;stroke-width:1.44175315;stroke-miterlimit:4;stroke-dasharray:none;stroke-opacity:1"
       id="path23057"
       sodipodi:cx="20"
       sodipodi:cy="20.035715"
       sodipodi:rx="15"
       sodipodi:ry="14.964286"
       d="M 35 20.035715 A 15 14.964286 0 1 1  5,20.035715 A 15 14.964286 0 1 1  35 20.035715 z"
       transform="matrix(1.009499,0,0,1.009499,79.685836,-0.5055323)" />
    <path
       sodipodi:type="arc"
       style="opacity:0.59362548;fill:none;fill-opacity:1;stroke:url(#linearGradient23065);stroke-width:1.32692444;stroke-miterlimit:4;stroke-dasharray:none;stroke-opacity:1"
       id="path23059"
       sodipodi:cx="20"
       sodipodi:cy="20.035715"
       sodipodi:rx="15"
       sodipodi:ry="14.964286"
       d="M 35 20.035715 A 15 14.964286 0 1 1  5,20.035715 A 15 14.964286 0 1 1  35 20.035715 z"
       transform="matrix(0.9140488,0,0,0.9140488,81.631373,1.3678904)" />
    <path
       style="opacity:0.4;fill:url(#linearGradient23067);fill-opacity:1;stroke:none;stroke-width:1;stroke-miterlimit:4;stroke-opacity:1"
       d="M 114.30254,19.614023 C 112.24969,17.900599 107.48393,15.416934 98.953537,21.5392 C 93.467428,25.476584 85.726053,26.397011 85.726053,18.770758 C 85.726053,11.144507 91.948358,5.3362957 99.735576,5.3362957 C 107.5228,5.3362957 114.30254,11.987774 114.30254,19.614023 z "
       id="path23061"
       sodipodi:nodetypes="csssc" />
    <path
       sodipodi:type="arc"
       style="opacity:0.2;fill:none;fill-opacity:1;stroke:url(#linearGradient23077);stroke-width:2.30114675;stroke-miterlimit:4;stroke-dasharray:none;stroke-opacity:1"
       id="path23069"
       sodipodi:cx="20"
       sodipodi:cy="20.035715"
       sodipodi:rx="15.303802"
       sodipodi:ry="15.303802"
       d="M 35.303802 20.035715 A 15.303802 15.303802 0 1 1  4.6961985,20.035715 A 15.303802 15.303802 0 1 1  35.303802 20.035715 z"
       transform="matrix(-0.2592339,-1.0207738,1.0229151,-0.2586913,124.68985,45.598539)" />
    <path
       sodipodi:type="arc"
       style="opacity:1;fill:#feed16;fill-opacity:1;stroke:#ffb616;stroke-width:1.44175315;stroke-miterlimit:4;stroke-dasharray:none;stroke-opacity:1"
       id="path23071"
       sodipodi:cx="20"
       sodipodi:cy="20.035715"
       sodipodi:rx="15"
       sodipodi:ry="14.964286"
       d="M 35 20.035715 A 15 14.964286 0 1 1  5,20.035715 A 15 14.964286 0 1 1  35 20.035715 z"
       transform="matrix(1.009499,0,0,1.009499,119.68583,-0.5055323)" />
    <path
       sodipodi:type="arc"
       style="opacity:0.59362548;fill:none;fill-opacity:1;stroke:url(#linearGradient23079);stroke-width:1.32692444;stroke-miterlimit:4;stroke-dasharray:none;stroke-opacity:1"
       id="path23073"
       sodipodi:cx="20"
       sodipodi:cy="20.035715"
       sodipodi:rx="15"
       sodipodi:ry="14.964286"
       d="M 35 20.035715 A 15 14.964286 0 1 1  5,20.035715 A 15 14.964286 0 1 1  35 20.035715 z"
       transform="matrix(0.9140488,0,0,0.9140488,121.63137,1.3678904)" />
    <path
       style="opacity:0.5;fill:url(#linearGradient23081);fill-opacity:1;stroke:none;stroke-width:1;stroke-miterlimit:4;stroke-opacity:1"
       d="M 154.30254,19.614023 C 152.24969,17.900599 147.48393,15.416934 138.95353,21.5392 C 133.46743,25.476584 125.72605,26.397011 125.72605,18.770758 C 125.72605,11.144507 131.94835,5.3362957 139.73558,5.3362957 C 147.5228,5.3362957 154.30254,11.987774 154.30254,19.614023 z "
       id="path23075"
       sodipodi:nodetypes="csssc" />
    <path
       sodipodi:type="arc"
       style="opacity:0.2;fill:none;fill-opacity:1;stroke:url(#linearGradient23105);stroke-width:2.30114675;stroke-miterlimit:4;stroke-dasharray:none;stroke-opacity:1"
       id="path23097"
       sodipodi:cx="20"
       sodipodi:cy="20.035715"
       sodipodi:rx="15.303802"
       sodipodi:ry="15.303802"
       d="M 35.303802 20.035715 A 15.303802 15.303802 0 1 1  4.6961985,20.035715 A 15.303802 15.303802 0 1 1  35.303802 20.035715 z"
       transform="matrix(-0.2592339,-1.0207738,1.0229151,-0.2586913,164.68985,45.598539)" />
    <path
       sodipodi:type="arc"
       style="opacity:1;fill:#ec2424;fill-opacity:1;stroke:#cc0000;stroke-width:1.44175315;stroke-miterlimit:4;stroke-dasharray:none;stroke-opacity:1"
       id="path23099"
       sodipodi:cx="20"
       sodipodi:cy="20.035715"
       sodipodi:rx="15"
       sodipodi:ry="14.964286"
       d="M 35 20.035715 A 15 14.964286 0 1 1  5,20.035715 A 15 14.964286 0 1 1  35 20.035715 z"
       transform="matrix(1.009499,0,0,1.009499,159.68583,-0.5055323)" />
    <path
       sodipodi:type="arc"
       style="opacity:0.59362548;fill:none;fill-opacity:1;stroke:url(#linearGradient23107);stroke-width:1.32692444;stroke-miterlimit:4;stroke-dasharray:none;stroke-opacity:1"
       id="path23101"
       sodipodi:cx="20"
       sodipodi:cy="20.035715"
       sodipodi:rx="15"
       sodipodi:ry="14.964286"
       d="M 35 20.035715 A 15 14.964286 0 1 1  5,20.035715 A 15 14.964286 0 1 1  35 20.035715 z"
       transform="matrix(0.9140488,0,0,0.9140488,161.63137,1.3678904)" />
    <path
       style="opacity:0.4;fill:url(#linearGradient23109);fill-opacity:1;stroke:none;stroke-width:1;stroke-miterlimit:4;stroke-opacity:1"
       d="M 194.30254,19.614023 C 192.24969,17.900599 187.48393,15.416934 178.95353,21.5392 C 173.46743,25.476584 165.72605,26.397011 165.72605,18.770758 C 165.72605,11.144507 171.94835,5.3362957 179.73558,5.3362957 C 187.5228,5.3362957 194.30254,11.987774 194.30254,19.614023 z "
       id="path23103"
       sodipodi:nodetypes="csssc" />
    <path
       sodipodi:type="arc"
       style="opacity:0.2;fill:none;fill-opacity:1;stroke:url(#linearGradient23119);stroke-width:2.30114675;stroke-miterlimit:4;stroke-dasharray:none;stroke-opacity:1"
       id="path23111"
       sodipodi:cx="20"
       sodipodi:cy="20.035715"
       sodipodi:rx="15.303802"
       sodipodi:ry="15.303802"
       d="M 35.303802 20.035715 A 15.303802 15.303802 0 1 1  4.6961985,20.035715 A 15.303802 15.303802 0 1 1  35.303802 20.035715 z"
       transform="matrix(-0.2592339,-1.0207738,1.0229151,-0.2586913,204.68985,45.598539)" />
    <path
       sodipodi:type="arc"
       style="opacity:1;fill:#ad6638;fill-opacity:1;stroke:#9c5b30;stroke-width:1.44175315;stroke-miterlimit:4;stroke-dasharray:none;stroke-opacity:1"
       id="path23113"
       sodipodi:cx="20"
       sodipodi:cy="20.035715"
       sodipodi:rx="15"
       sodipodi:ry="14.964286"
       d="M 35 20.035715 A 15 14.964286 0 1 1  5,20.035715 A 15 14.964286 0 1 1  35 20.035715 z"
       transform="matrix(1.009499,0,0,1.009499,199.68583,-0.5055323)" />
    <path
       sodipodi:type="arc"
       style="opacity:0.59362548;fill:none;fill-opacity:1;stroke:url(#linearGradient23121);stroke-width:1.32692444;stroke-miterlimit:4;stroke-dasharray:none;stroke-opacity:1"
       id="path23115"
       sodipodi:cx="20"
       sodipodi:cy="20.035715"
       sodipodi:rx="15"
       sodipodi:ry="14.964286"
       d="M 35 20.035715 A 15 14.964286 0 1 1  5,20.035715 A 15 14.964286 0 1 1  35 20.035715 z"
       transform="matrix(0.9140488,0,0,0.9140488,201.63137,1.3678904)" />
    <path
       style="opacity:0.4;fill:url(#linearGradient23123);fill-opacity:1;stroke:none;stroke-width:1;stroke-miterlimit:4;stroke-opacity:1"
       d="M 234.30254,19.614023 C 232.24969,17.900599 227.48393,15.416934 218.95353,21.5392 C 213.46743,25.476584 205.72605,26.397011 205.72605,18.770758 C 205.72605,11.144507 211.94835,5.3362957 219.73558,5.3362957 C 227.5228,5.3362957 234.30254,11.987774 234.30254,19.614023 z "
       id="path23117"
       sodipodi:nodetypes="csssc" />
    <path
       sodipodi:type="arc"
       style="opacity:0.2;fill:none;fill-opacity:1;stroke:url(#linearGradient23133);stroke-width:2.30114675;stroke-miterlimit:4;stroke-dasharray:none;stroke-opacity:1"
       id="path23125"
       sodipodi:cx="20"
       sodipodi:cy="20.035715"
       sodipodi:rx="15.303802"
       sodipodi:ry="15.303802"
       d="M 35.303802 20.035715 A 15.303802 15.303802 0 1 1  4.6961985,20.035715 A 15.303802 15.303802 0 1 1  35.303802 20.035715 z"
       transform="matrix(-0.2592339,-1.0207738,1.0229151,-0.2586913,244.68985,45.598539)" />
    <path
       sodipodi:type="arc"
       style="opacity:1;fill:#94c010;fill-opacity:1;stroke:#749114;stroke-width:1.44175315;stroke-miterlimit:4;stroke-dasharray:none;stroke-opacity:1"
       id="path23127"
       sodipodi:cx="20"
       sodipodi:cy="20.035715"
       sodipodi:rx="15"
       sodipodi:ry="14.964286"
       d="M 35 20.035715 A 15 14.964286 0 1 1  5,20.035715 A 15 14.964286 0 1 1  35 20.035715 z"
       transform="matrix(1.009499,0,0,1.009499,239.68583,-0.5055323)" />
    <path
       sodipodi:type="arc"
       style="opacity:0.59362548;fill:none;fill-opacity:1;stroke:url(#linearGradient23135);stroke-width:1.32692444;stroke-miterlimit:4;stroke-dasharray:none;stroke-opacity:1"
       id="path23129"
       sodipodi:cx="20"
       sodipodi:cy="20.035715"
       sodipodi:rx="15"
       sodipodi:ry="14.964286"
       d="M 35 20.035715 A 15 14.964286 0 1 1  5,20.035715 A 15 14.964286 0 1 1  35 20.035715 z"
       transform="matrix(0.9140488,0,0,0.9140488,241.63137,1.3678904)" />
    <path
       style="opacity:0.4;fill:url(#linearGradient23137);fill-opacity:1;stroke:none;stroke-width:1;stroke-miterlimit:4;stroke-opacity:1"
       d="M 274.30254,19.614023 C 272.24969,17.900599 267.48393,15.416934 258.95353,21.5392 C 253.46743,25.476584 245.72605,26.397011 245.72605,18.770758 C 245.72605,11.144507 251.94835,5.3362957 259.73558,5.3362957 C 267.5228,5.3362957 274.30254,11.987774 274.30254,19.614023 z "
       id="path23131"
       sodipodi:nodetypes="csssc" />
    <path
       sodipodi:type="arc"
       style="opacity:0.2;fill:none;fill-opacity:1;stroke:url(#linearGradient23147);stroke-width:2.30114675;stroke-miterlimit:4;stroke-dasharray:none;stroke-opacity:1"
       id="path23139"
       sodipodi:cx="20"
       sodipodi:cy="20.035715"
       sodipodi:rx="15.303802"
       sodipodi:ry="15.303802"
       d="M 35.303802 20.035715 A 15.303802 15.303802 0 1 1  4.6961985,20.035715 A 15.303802 15.303802 0 1 1  35.303802 20.035715 z"
       transform="matrix(-0.2592339,-1.0207738,1.0229151,-0.2586913,284.68985,45.598539)" />
    <path
       sodipodi:type="arc"
       style="opacity:1;fill:#d4256a;fill-opacity:1;stroke:#c52c6a;stroke-width:1.44175315;stroke-miterlimit:4;stroke-dasharray:none;stroke-opacity:1"
       id="path23141"
       sodipodi:cx="20"
       sodipodi:cy="20.035715"
       sodipodi:rx="15"
       sodipodi:ry="14.964286"
       d="M 35 20.035715 A 15 14.964286 0 1 1  5,20.035715 A 15 14.964286 0 1 1  35 20.035715 z"
       transform="matrix(1.009499,0,0,1.009499,279.68583,-0.5055323)" />
    <path
       sodipodi:type="arc"
       style="opacity:0.59362548;fill:none;fill-opacity:1;stroke:url(#linearGradient23149);stroke-width:1.32692444;stroke-miterlimit:4;stroke-dasharray:none;stroke-opacity:1"
       id="path23143"
       sodipodi:cx="20"
       sodipodi:cy="20.035715"
       sodipodi:rx="15"
       sodipodi:ry="14.964286"
       d="M 35 20.035715 A 15 14.964286 0 1 1  5,20.035715 A 15 14.964286 0 1 1  35 20.035715 z"
       transform="matrix(0.9140488,0,0,0.9140488,281.63137,1.3678904)" />
    <path
       style="opacity:0.4;fill:url(#linearGradient23151);fill-opacity:1;stroke:none;stroke-width:1;stroke-miterlimit:4;stroke-opacity:1"
       d="M 314.30254,19.614023 C 312.24969,17.900599 307.48393,15.416934 298.95353,21.5392 C 293.46743,25.476584 285.72605,26.397011 285.72605,18.770758 C 285.72605,11.144507 291.94835,5.3362957 299.73558,5.3362957 C 307.5228,5.3362957 314.30254,11.987774 314.30254,19.614023 z "
       id="path23145"
       sodipodi:nodetypes="csssc" />
    <path
       sodipodi:type="arc"
       style="opacity:1;fill:#ffffff;fill-opacity:1;fill-rule:nonzero;stroke:none;stroke-width:1.23966944;stroke-miterlimit:4;stroke-dasharray:none;stroke-opacity:1"
       id="path4490"
       sodipodi:cx="330"
       sodipodi:cy="10"
       sodipodi:rx="5"
       sodipodi:ry="5"
       d="M 335 10 A 5 5 0 1 1  325,10 A 5 5 0 1 1  335 10 z"
       transform="matrix(1.2705,0,0,1.2705,-89.265,17.294771)" />
    <path
       style="opacity:0.1;fill:#000000;fill-opacity:1;fill-rule:nonzero;stroke:none;stroke-width:2;stroke-miterlimit:4;stroke-opacity:1"
       d="M 336.62216,10.624088 C 336.62216,14.394139 333.5624,17.453893 329.79235,17.453893 C 326.0223,17.453893 322.96255,14.394139 322.96255,10.624088 C 322.96255,6.854036 326.0223,3.794284 329.79235,3.794284 C 333.5624,3.794284 336.62216,6.854036 336.62216,10.624088 z "
       id="path4293" />
    <path
       style="opacity:0.1;fill:#000000;fill-opacity:1;fill-rule:nonzero;stroke:none;stroke-width:2;stroke-miterlimit:4;stroke-opacity:1"
       d="M 336.71503,11.114548 C 336.71503,14.884599 333.65528,17.944353 329.88523,17.944353 C 326.11518,17.944353 323.05542,14.884599 323.05542,11.114548 C 323.05542,7.344496 326.11518,4.284744 329.88523,4.284744 C 333.65528,4.284744 336.71503,7.344496 336.71503,11.114548 z "
       id="path5305" />
    <path
       sodipodi:type="arc"
       style="opacity:1;fill:#ff0000;fill-opacity:1;fill-rule:nonzero;stroke:#000000;stroke-width:1.23966944;stroke-miterlimit:4;stroke-dasharray:none;stroke-opacity:1"
       id="path3253"
       sodipodi:cx="330"
       sodipodi:cy="10"
       sodipodi:rx="5"
       sodipodi:ry="5"
       d="M 335 10 A 5 5 0 1 1  325,10 A 5 5 0 1 1  335 10 z"
       transform="matrix(1.2705,0,0,1.2705,-89.265,-2.705229)" />
    <path
       style="fill:url(#linearGradient5519);fill-opacity:1;fill-rule:nonzero;stroke:none;stroke-width:1.60000002;stroke-miterlimit:4;stroke-opacity:1"
       d="M 334.12089,8.899009 C 334.1525,10.889439 332.41931,10.787143 330.71352,10.787143 C 329.00775,10.787143 327.72042,10.318947 327.78248,8.614332 C 327.84576,6.876949 328.24954,5.429313 329.9553,5.429313 C 331.66105,5.429313 334.12089,7.193263 334.12089,8.899009 z "
       id="path4287"
       sodipodi:nodetypes="csssc" />
    <path
       style="opacity:0.1;fill:#000000;fill-opacity:1;fill-rule:nonzero;stroke:none;stroke-width:2;stroke-miterlimit:4;stroke-opacity:1"
       d="M 336.66382,30.623735 C 336.66382,34.393786 333.60406,37.45354 329.83401,37.45354 C 326.06396,37.45354 323.0042,34.393786 323.0042,30.623735 C 323.0042,26.853682 326.06396,23.793931 329.83401,23.793931 C 333.60406,23.793931 336.66382,26.853682 336.66382,30.623735 z "
       id="path4305" />
    <path
       style="opacity:0.1;fill:#000000;fill-opacity:1;fill-rule:nonzero;stroke:none;stroke-width:2;stroke-miterlimit:4;stroke-opacity:1"
       d="M 336.7567,31.114195 C 336.7567,34.884246 333.69694,37.944 329.92689,37.944 C 326.15684,37.944 323.09709,34.884246 323.09709,31.114195 C 323.09709,27.344144 326.15684,24.284391 329.92689,24.284391 C 333.69694,24.284391 336.7567,27.344144 336.7567,31.114195 z "
       id="path4307" />
    <path
       sodipodi:type="arc"
       style="opacity:1;fill:url(#linearGradient5521);fill-opacity:1;fill-rule:nonzero;stroke:#000000;stroke-width:1.23966944;stroke-miterlimit:4;stroke-dasharray:none;stroke-opacity:1"
       id="path4309"
       sodipodi:cx="330"
       sodipodi:cy="10"
       sodipodi:rx="5"
       sodipodi:ry="5"
       d="M 335 10 A 5 5 0 1 1  325,10 A 5 5 0 1 1  335 10 z"
       transform="matrix(1.2705,0,0,1.2705,-89.223335,17.294418)" />
    <path
       style="fill:url(#linearGradient5523);fill-opacity:1;fill-rule:nonzero;stroke:none;stroke-width:1.60000002;stroke-miterlimit:4;stroke-opacity:1"
       d="M 334.16255,28.898655 C 334.19416,30.889086 332.46097,30.78679 330.75518,30.78679 C 329.04941,30.78679 327.76208,30.318594 327.82414,28.613978 C 327.88742,26.876595 328.2912,25.42896 329.99696,25.42896 C 331.70271,25.42896 334.16255,27.19291 334.16255,28.898655 z "
       id="path4311"
       sodipodi:nodetypes="csssc" />
  </g>
</svg>
