<?xml version="1.0" encoding="UTF-8" standalone="no"?>
<!-- Created with Inkscape (http://www.inkscape.org/) -->
<svg
   xmlns:dc="http://purl.org/dc/elements/1.1/"
   xmlns:cc="http://web.resource.org/cc/"
   xmlns:rdf="http://www.w3.org/1999/02/22-rdf-syntax-ns#"
   xmlns:svg="http://www.w3.org/2000/svg"
   xmlns="http://www.w3.org/2000/svg"
   xmlns:sodipodi="http://sodipodi.sourceforge.net/DTD/sodipodi-0.dtd"
   xmlns:inkscape="http://www.inkscape.org/namespaces/inkscape"
   width="480"
   height="48"
   id="svg2160"
   sodipodi:version="0.32"
   inkscape:version="0.45.1"
   version="1.0"
   sodipodi:docbase="/home/pippo/Desktop"
   sodipodi:docname="startile.svg"
   inkscape:output_extension="org.inkscape.output.svg.inkscape">
  <defs
     id="defs2162" />
  <sodipodi:namedview
     id="base"
     pagecolor="#ffffff"
     bordercolor="#666666"
     borderopacity="1.0"
     inkscape:pageopacity="0.0"
     inkscape:pageshadow="2"
     inkscape:zoom="2"
     inkscape:cx="204.29355"
     inkscape:cy="-10.899189"
     inkscape:current-layer="layer1"
     showgrid="true"
     inkscape:grid-bbox="true"
     inkscape:document-units="px"
     height="48px"
     width="480px"
     gridempspacing="24"
     inkscape:window-width="1280"
     inkscape:window-height="729"
     inkscape:window-x="0"
     inkscape:window-y="25" />
  <metadata
     id="metadata2165">
    <rdf:RDF>
      <cc:Work
         rdf:about="">
        <dc:format>image/svg+xml</dc:format>
        <dc:type
           rdf:resource="http://purl.org/dc/dcmitype/StillImage" />
      </cc:Work>
    </rdf:RDF>
  </metadata>
  <g
     id="layer1"
     inkscape:label="Layer 1"
     inkscape:groupmode="layer">
    <g
       id="g2174"
       inkscape:label="Livello 1"
       transform="translate(1.1159457,-0.1214584)">
      <path
         transform="matrix(0.976651,0,0,0.979251,0.196083,4.105637)"
         d="M 36.964285,42.107142 L 23.39719,33.269096 L 9.5380764,41.641796 L 13.751096,26.007615 L 1.505483,15.414121 L 17.676367,14.589713 L 23.967276,-0.33012667 L 29.748413,14.794542 L 45.882021,16.167068 L 33.284076,26.339035 L 36.964285,42.107142 z "
         inkscape:randomized="0"
         inkscape:rounded="0"
         inkscape:flatsided="false"
         sodipodi:arg2="1.5877619"
         sodipodi:arg1="0.9594434"
         sodipodi:r2="10.270574"
         sodipodi:r1="23.333485"
         sodipodi:cy="23"
         sodipodi:cx="23.571428"
         sodipodi:sides="5"
         id="path1874"
         style="opacity:1;fill:#eeeeec;fill-opacity:1;stroke:#2e3436;stroke-width:1.60000002;stroke-linecap:butt;stroke-linejoin:round;stroke-miterlimit:4;stroke-dasharray:none;stroke-opacity:1"
         sodipodi:type="star" />
    </g>
    <g
       id="g2183"
       inkscape:label="Livello 1"
       transform="translate(49.115946,-0.1214584)">
      <path
         transform="matrix(0.976651,0,0,0.979251,0.196083,4.105637)"
         d="M 36.964285,42.107142 L 23.39719,33.269096 L 9.5380764,41.641796 L 13.751096,26.007615 L 1.505483,15.414121 L 17.676367,14.589713 L 23.967276,-0.33012667 L 29.748413,14.794542 L 45.882021,16.167068 L 33.284076,26.339035 L 36.964285,42.107142 z "
         inkscape:randomized="0"
         inkscape:rounded="0"
         inkscape:flatsided="false"
         sodipodi:arg2="1.5877619"
         sodipodi:arg1="0.9594434"
         sodipodi:r2="10.270574"
         sodipodi:r1="23.333485"
         sodipodi:cy="23"
         sodipodi:cx="23.571428"
         sodipodi:sides="5"
         id="path2185"
         style="opacity:1;fill:#fce94f;fill-opacity:1;stroke:#2e3436;stroke-width:1.60000002;stroke-linecap:butt;stroke-linejoin:round;stroke-miterlimit:4;stroke-dasharray:none;stroke-opacity:1"
         sodipodi:type="star" />
    </g>
    <g
       id="g2193"
       inkscape:label="Livello 1"
       transform="translate(97.115946,-0.1214584)">
      <path
         transform="matrix(0.976651,0,0,0.979251,0.196083,4.105637)"
         d="M 36.964285,42.107142 L 23.39719,33.269096 L 9.5380764,41.641796 L 13.751096,26.007615 L 1.505483,15.414121 L 17.676367,14.589713 L 23.967276,-0.33012667 L 29.748413,14.794542 L 45.882021,16.167068 L 33.284076,26.339035 L 36.964285,42.107142 z "
         inkscape:randomized="0"
         inkscape:rounded="0"
         inkscape:flatsided="false"
         sodipodi:arg2="1.5877619"
         sodipodi:arg1="0.9594434"
         sodipodi:r2="10.270574"
         sodipodi:r1="23.333485"
         sodipodi:cy="23"
         sodipodi:cx="23.571428"
         sodipodi:sides="5"
         id="path2195"
         style="opacity:1;fill:#fcaf3e;fill-opacity:1;stroke:#2e3436;stroke-width:1.60000002;stroke-linecap:butt;stroke-linejoin:round;stroke-miterlimit:4;stroke-dasharray:none;stroke-opacity:1"
         sodipodi:type="star" />
    </g>
    <g
       id="g2203"
       inkscape:label="Livello 1"
       transform="translate(145.11595,-0.1214584)">
      <path
         transform="matrix(0.976651,0,0,0.979251,0.196083,4.105637)"
         d="M 36.964285,42.107142 L 23.39719,33.269096 L 9.5380764,41.641796 L 13.751096,26.007615 L 1.505483,15.414121 L 17.676367,14.589713 L 23.967276,-0.33012667 L 29.748413,14.794542 L 45.882021,16.167068 L 33.284076,26.339035 L 36.964285,42.107142 z "
         inkscape:randomized="0"
         inkscape:rounded="0"
         inkscape:flatsided="false"
         sodipodi:arg2="1.5877619"
         sodipodi:arg1="0.9594434"
         sodipodi:r2="10.270574"
         sodipodi:r1="23.333485"
         sodipodi:cy="23"
         sodipodi:cx="23.571428"
         sodipodi:sides="5"
         id="path2205"
         style="opacity:1;fill:#8ae234;fill-opacity:1;stroke:#2e3436;stroke-width:1.60000002;stroke-linecap:butt;stroke-linejoin:round;stroke-miterlimit:4;stroke-dasharray:none;stroke-opacity:1"
         sodipodi:type="star" />
    </g>
    <g
       id="g2213"
       inkscape:label="Livello 1"
       transform="translate(193.11595,-0.1214584)">
      <path
         transform="matrix(0.976651,0,0,0.979251,0.196083,4.105637)"
         d="M 36.964285,42.107142 L 23.39719,33.269096 L 9.5380764,41.641796 L 13.751096,26.007615 L 1.505483,15.414121 L 17.676367,14.589713 L 23.967276,-0.33012667 L 29.748413,14.794542 L 45.882021,16.167068 L 33.284076,26.339035 L 36.964285,42.107142 z "
         inkscape:randomized="0"
         inkscape:rounded="0"
         inkscape:flatsided="false"
         sodipodi:arg2="1.5877619"
         sodipodi:arg1="0.9594434"
         sodipodi:r2="10.270574"
         sodipodi:r1="23.333485"
         sodipodi:cy="23"
         sodipodi:cx="23.571428"
         sodipodi:sides="5"
         id="path2215"
         style="opacity:1;fill:#729fcf;fill-opacity:1;stroke:#2e3436;stroke-width:1.60000002;stroke-linecap:butt;stroke-linejoin:round;stroke-miterlimit:4;stroke-dasharray:none;stroke-opacity:1"
         sodipodi:type="star" />
    </g>
    <g
       id="g2223"
       inkscape:label="Livello 1"
       transform="translate(241.11595,-0.1214584)">
      <path
         transform="matrix(0.976651,0,0,0.979251,0.196083,4.105637)"
         d="M 36.964285,42.107142 L 23.39719,33.269096 L 9.5380764,41.641796 L 13.751096,26.007615 L 1.505483,15.414121 L 17.676367,14.589713 L 23.967276,-0.33012667 L 29.748413,14.794542 L 45.882021,16.167068 L 33.284076,26.339035 L 36.964285,42.107142 z "
         inkscape:randomized="0"
         inkscape:rounded="0"
         inkscape:flatsided="false"
         sodipodi:arg2="1.5877619"
         sodipodi:arg1="0.9594434"
         sodipodi:r2="10.270574"
         sodipodi:r1="23.333485"
         sodipodi:cy="23"
         sodipodi:cx="23.571428"
         sodipodi:sides="5"
         id="path2225"
         style="opacity:1;fill:#ad7fa8;fill-opacity:1;stroke:#2e3436;stroke-width:1.60000002;stroke-linecap:butt;stroke-linejoin:round;stroke-miterlimit:4;stroke-dasharray:none;stroke-opacity:1"
         sodipodi:type="star" />
    </g>
    <g
       id="g2233"
       inkscape:label="Livello 1"
       transform="translate(289.11595,-0.1214584)">
      <path
         transform="matrix(0.976651,0,0,0.979251,0.196083,4.105637)"
         d="M 36.964285,42.107142 L 23.39719,33.269096 L 9.5380764,41.641796 L 13.751096,26.007615 L 1.505483,15.414121 L 17.676367,14.589713 L 23.967276,-0.33012667 L 29.748413,14.794542 L 45.882021,16.167068 L 33.284076,26.339035 L 36.964285,42.107142 z "
         inkscape:randomized="0"
         inkscape:rounded="0"
         inkscape:flatsided="false"
         sodipodi:arg2="1.5877619"
         sodipodi:arg1="0.9594434"
         sodipodi:r2="10.270574"
         sodipodi:r1="23.333485"
         sodipodi:cy="23"
         sodipodi:cx="23.571428"
         sodipodi:sides="5"
         id="path2235"
         style="opacity:1;fill:#ef2929;fill-opacity:1;stroke:#2e3436;stroke-width:1.60000002;stroke-linecap:butt;stroke-linejoin:round;stroke-miterlimit:4;stroke-dasharray:none;stroke-opacity:1"
         sodipodi:type="star" />
    </g>
    <g
       id="g2243"
       inkscape:label="Livello 1"
       transform="translate(337.11595,-0.1214584)">
      <path
         transform="matrix(0.976651,0,0,0.979251,0.196083,4.105637)"
         d="M 36.964285,42.107142 L 23.39719,33.269096 L 9.5380764,41.641796 L 13.751096,26.007615 L 1.505483,15.414121 L 17.676367,14.589713 L 23.967276,-0.33012667 L 29.748413,14.794542 L 45.882021,16.167068 L 33.284076,26.339035 L 36.964285,42.107142 z "
         inkscape:randomized="0"
         inkscape:rounded="0"
         inkscape:flatsided="false"
         sodipodi:arg2="1.5877619"
         sodipodi:arg1="0.9594434"
         sodipodi:r2="10.270574"
         sodipodi:r1="23.333485"
         sodipodi:cy="23"
         sodipodi:cx="23.571428"
         sodipodi:sides="5"
         id="path2245"
         style="opacity:1;fill:#8f5902;fill-opacity:1;stroke:#2e3436;stroke-width:1.60000002;stroke-linecap:butt;stroke-linejoin:round;stroke-miterlimit:4;stroke-dasharray:none;stroke-opacity:1"
         sodipodi:type="star" />
    </g>
    <g
       id="g2341"
       transform="matrix(1.5,0,0,1.5,383.74284,-0.2408867)">
      <path
         transform="matrix(0.474879,0,0,0.474879,3.12229,3.180454)"
         d="M 58.403591 29.207693 A 29.010935 29.010935 0 1 1  0.3817215,29.207693 A 29.010935 29.010935 0 1 1  58.403591 29.207693 z"
         sodipodi:ry="29.010935"
         sodipodi:rx="29.010935"
         sodipodi:cy="29.207693"
         sodipodi:cx="29.392656"
         id="path2157"
         style="fill:#000000;fill-opacity:0.09803922;fill-rule:evenodd;stroke:none;stroke-width:2.5;stroke-linecap:butt;stroke-linejoin:miter;stroke-miterlimit:4;stroke-opacity:1"
         sodipodi:type="arc" />
      <path
         transform="matrix(0.474879,0,0,0.474879,2.51269,2.745024)"
         d="M 58.403591 29.207693 A 29.010935 29.010935 0 1 1  0.3817215,29.207693 A 29.010935 29.010935 0 1 1  58.403591 29.207693 z"
         sodipodi:ry="29.010935"
         sodipodi:rx="29.010935"
         sodipodi:cy="29.207693"
         sodipodi:cx="29.392656"
         id="path2156"
         style="fill:#000000;fill-opacity:0.09803922;fill-rule:evenodd;stroke:none;stroke-width:2.5;stroke-linecap:butt;stroke-linejoin:miter;stroke-miterlimit:4;stroke-opacity:1"
         sodipodi:type="arc" />
      <path
         transform="matrix(0.474879,0,0,0.474879,1.99017,2.646674)"
         d="M 58.403591 29.207693 A 29.010935 29.010935 0 1 1  0.3817215,29.207693 A 29.010935 29.010935 0 1 1  58.403591 29.207693 z"
         sodipodi:ry="29.010935"
         sodipodi:rx="29.010935"
         sodipodi:cy="29.207693"
         sodipodi:cx="29.392656"
         id="path2155"
         style="fill:#000000;fill-opacity:0.09803922;fill-rule:evenodd;stroke:none;stroke-width:2.5;stroke-linecap:butt;stroke-linejoin:miter;stroke-miterlimit:4;stroke-opacity:1"
         sodipodi:type="arc" />
      <path
         transform="matrix(1.636646,0,0,1.636646,-3.514751,-2.901009)"
         d="M 19.25 11.625 A 7.25 7.25 0 1 1  4.75,11.625 A 7.25 7.25 0 1 1  19.25 11.625 z"
         sodipodi:ry="7.25"
         sodipodi:rx="7.25"
         sodipodi:cy="11.625"
         sodipodi:cx="12"
         id="path2766"
         style="opacity:1;fill:#ff2d00;fill-opacity:1;stroke:#000000;stroke-width:1.60000002;stroke-linecap:butt;stroke-linejoin:round;stroke-miterlimit:4;stroke-dasharray:none;stroke-opacity:1"
         sodipodi:type="arc" />
    </g>
    <g
       id="g2364"
       transform="matrix(1.5,0,0,1.5,431.74284,-0.2408867)">
      <path
         transform="matrix(0.474879,0,0,0.474879,3.12229,3.180454)"
         d="M 58.403591 29.207693 A 29.010935 29.010935 0 1 1  0.3817215,29.207693 A 29.010935 29.010935 0 1 1  58.403591 29.207693 z"
         sodipodi:ry="29.010935"
         sodipodi:rx="29.010935"
         sodipodi:cy="29.207693"
         sodipodi:cx="29.392656"
         id="path2366"
         style="fill:#000000;fill-opacity:0.09803922;fill-rule:evenodd;stroke:none;stroke-width:2.5;stroke-linecap:butt;stroke-linejoin:miter;stroke-miterlimit:4;stroke-opacity:1"
         sodipodi:type="arc" />
      <path
         transform="matrix(0.474879,0,0,0.474879,2.51269,2.745024)"
         d="M 58.403591 29.207693 A 29.010935 29.010935 0 1 1  0.3817215,29.207693 A 29.010935 29.010935 0 1 1  58.403591 29.207693 z"
         sodipodi:ry="29.010935"
         sodipodi:rx="29.010935"
         sodipodi:cy="29.207693"
         sodipodi:cx="29.392656"
         id="path2368"
         style="fill:#000000;fill-opacity:0.09803922;fill-rule:evenodd;stroke:none;stroke-width:2.5;stroke-linecap:butt;stroke-linejoin:miter;stroke-miterlimit:4;stroke-opacity:1"
         sodipodi:type="arc" />
      <path
         transform="matrix(0.474879,0,0,0.474879,1.99017,2.646674)"
         d="M 58.403591 29.207693 A 29.010935 29.010935 0 1 1  0.3817215,29.207693 A 29.010935 29.010935 0 1 1  58.403591 29.207693 z"
         sodipodi:ry="29.010935"
         sodipodi:rx="29.010935"
         sodipodi:cy="29.207693"
         sodipodi:cx="29.392656"
         id="path2370"
         style="fill:#000000;fill-opacity:0.09803922;fill-rule:evenodd;stroke:none;stroke-width:2.5;stroke-linecap:butt;stroke-linejoin:miter;stroke-miterlimit:4;stroke-opacity:1"
         sodipodi:type="arc" />
      <path
         transform="matrix(1.636646,0,0,1.636646,-3.514751,-2.901009)"
         d="M 19.25 11.625 A 7.25 7.25 0 1 1  4.75,11.625 A 7.25 7.25 0 1 1  19.25 11.625 z"
         sodipodi:ry="7.25"
         sodipodi:rx="7.25"
         sodipodi:cy="11.625"
         sodipodi:cx="12"
         id="path2372"
         style="opacity:1;fill:#ffffff;fill-opacity:1;stroke:#000000;stroke-width:1.60000002;stroke-linecap:butt;stroke-linejoin:round;stroke-miterlimit:4;stroke-dasharray:none;stroke-opacity:1"
         sodipodi:type="arc" />
    </g>
  </g>
</svg>
